<?xml version="1.0" encoding="UTF-8"?>
<!DOCTYPE svg PUBLIC "-//W3C//DTD SVG 1.1//EN" "http://www.w3.org/Graphics/SVG/1.1/DTD/svg11.dtd">
<!-- Creator: CorelDRAW 2017 -->
<svg xmlns="http://www.w3.org/2000/svg" xml:space="preserve" width="602px" height="508px" version="1.1" style="shape-rendering:geometricPrecision; text-rendering:geometricPrecision; image-rendering:optimizeQuality; fill-rule:evenodd; clip-rule:evenodd"
viewBox="0 0 602 507.57"
 xmlns:xlink="http://www.w3.org/1999/xlink">
 <defs>
  <style type="text/css">
   <![CDATA[
    .fil0 {fill:black}
   ]]>
  </style>
 </defs>
 <g id="Layer_x0020_1">
  <metadata id="CorelCorpID_0Corel-Layer"/>
  <g>
   <path class="fil0" d="M356.09 3.94l245.67 0 0 499.69 -245.67 0c0,-11.08 -1.65,-22.29 -4.09,-33.54 -3.75,-13.61 -8.18,-28.01 -19.3,-35.79 -19.52,-13.65 -39.73,-2.56 -47.94,-5.84l19.33 -22.55c-10.15,-10.99 -20.05,-16.46 -31.01,-30.17 -9.81,-12.24 -18.71,-25.8 -26.36,-39.51 -8.21,-14.64 -28.45,-59.58 -25.45,-75.7 9.49,12.9 16.61,39.07 30.07,49.13l8.93 -12.87c1.85,2.53 1.44,16.58 4,22.14 3.31,7.19 11.78,12.74 18.05,17.27 13.25,9.59 26.27,18.27 38.61,29.14 4.9,4.31 9.08,8.4 12.67,12.34 0.04,-1.47 0.07,-2.94 0.13,-4.41 -8.62,-45.97 -18.8,-85.48 -51.09,-123.92 -23.87,-28.45 -31.11,-5.09 -52.38,-13.62 0.16,-1.09 20.33,-18.64 23.45,-22.49 7.03,-8.62 13.31,-28.82 15.34,-31.04 4.34,4.65 4.47,32.73 8.56,41.2 3.12,6.49 16.58,20.7 21.83,27.6 7.02,9.22 13.68,20.18 19.14,30.36 1.28,2.34 9.28,20.39 13.31,29.26 3.06,6.75 5.77,14.65 8.27,22.9 1.53,-6.16 3.19,-12.34 4.84,-18.49 5.56,-20.52 11.09,-41.04 11.09,-61.25 0,-20.2 -5.53,-40.72 -11.09,-61.24 -5.68,-21.11 -11.4,-42.26 -11.4,-63.68 0,-21.43 5.72,-42.57 11.4,-63.68 5.56,-20.52 11.09,-41.04 11.09,-61.24l0 0zm-131.05 215.24c-11.08,-7.65 -37.22,-10.47 -50.12,-8 -6.78,1.28 -41.23,11.18 -42.2,17.93 4.44,1.28 17.96,-0.13 25.92,1.44 7.41,1.46 16.84,3.56 24.3,3.4 10.53,-0.22 35.42,-6.31 42.1,-14.77zm-97.84 -27.49l-17.53 11.19c0.91,0.93 22.74,12.14 23.99,12.18 7.22,0.18 -4.34,-20.62 -6.46,-23.37zm43.13 9.31l-10.56 -22.17c-17.68,2.87 -25.89,4.09 -18.61,20.39 3.93,8.71 2.87,10.37 11.74,7.5 3.84,-1.25 14.71,-4 17.43,-5.72zm78.01 -7.87l-39.01 -15.71c-1.59,4.53 14.37,22.68 17.78,26.64 4.18,4.9 6.77,9.81 12.11,2.81 2.31,-3.03 7.87,-10.43 9.12,-13.74l0 0zm-35.88 10.12l-17.09 -27.52 -25.67 0.82c1.38,4.84 8.97,21.48 12.37,22.86 1.44,0.59 27.86,3.81 30.39,3.84zm-88.7 -21.64l-6.06 -24.21c-12.08,2.06 -10.3,9.93 -8.21,19.18 2.68,11.68 3.9,13.96 14.27,5.03l0 0zm32.54 -12.62l-5.15 -23.24c-3.47,-0.53 -14.58,3.13 -18.21,4.5 -8.27,3.12 -5.4,8.46 -3.21,15.77 2.93,9.68 0.53,12.99 9.77,9.15 4.44,-1.84 13.37,-4.06 16.8,-6.18l0 0zm-41.88 -39.54l-6.87 20.71c11.43,0.06 8.43,-12.21 6.87,-20.71zm76.89 36.17l-6.59 -23.77 -23.98 1.44c0.06,1.4 4.87,22.54 5.31,23.26 1.87,3.13 20.45,-0.03 25.26,-0.94l0 0.01zm42.57 8.37c-1.47,-5.78 -8.24,-17.77 -10.99,-24.24 -3.12,-7.43 -19.46,-8.37 -27.3,-8.28 0.53,5.47 4.91,24.18 9.5,25.74 3.43,1.22 25.73,6.75 28.79,6.78zm-0.4 -84.58c-14.62,8.12 0.71,86.2 18.27,90.76 10.08,2.62 2.03,-42.07 -0.32,-48.72 -2.5,-7.12 -6.65,-13.34 -10.12,-20.05 -2.62,-5.06 -6.55,-20.33 -7.84,-21.99l0.01 0zm-49.72 17.8l-24.24 1.22 -0.75 24.83c30.42,-0.31 25.3,0.91 24.99,-26.05zm35.38 27.55l-1.22 -24.86 -24.11 -3.09c0.22,25.92 -8.06,25.51 25.33,27.95zm-94.16 7.31l24.48 -6.72 -0.93 -24.04c-2.72,0.49 -20.71,4.52 -22.43,5.34 -4.21,1.99 -2.09,20.33 -1.12,25.42l0 0zm76.8 -65.74c-9.5,20.83 -9.25,21.98 12.11,22.7 13.75,0.47 4.19,-6.46 -0.34,-9.93 -7.21,-5.56 -6.93,-8.09 -11.77,-12.77zm-70.31 27.89l18.49 -4.25 1.28 -8.78 -19.77 13.03zm56.35 -19.24l-24.86 1.15 -3.16 11.84c3.94,0.34 15.09,-0.44 19.65,-0.62 8.55,-0.38 5.27,-5.31 8.37,-12.37zm-76.8 -20.65l-29.23 -27.23 -7.69 6.53 22.9 32.17 -32.77 -22.46 -6.9 8.24 26.64 28.3 -34.1 -17.24 -6.19 9.37 31.14 23.64 -37.29 -12.05 -3.78 9.49 35.51 20.11 -39.22 -7.46 -2.6 9.68 64.06 24.83c3.18,-4.09 4.84,-40.48 33.2,-60.46 3.9,-2.75 18.2,-9.25 19.7,-12.31l-43.88 -52.44c-19.64,0.41 8.31,29.98 10.5,39.29l0 0zm-2.59 317.97c-1.72,-0.16 -20.68,7.74 -24.36,8.96 -8.12,2.69 -21.71,15.99 -25.24,16.4 -4.09,-2.37 7.56,-12.74 -3.62,-13.62 -21.71,-1.65 -36.2,-6.65 -54.97,-19.3 3.22,-1.28 25.27,1.16 30.61,1.28 11.27,0.19 21.92,-2.31 31.57,-2.81l-10.87 -17.27c4.53,-2.93 10.22,7.78 24.8,3.94 26.02,-6.9 48.75,-39.17 78.11,-18.24 -11.59,4.78 -26.42,6.06 -36.35,15.21 7.05,1.31 39.78,-13.93 61.61,-8.5 -9.18,13.49 -27.98,7.12 -42.72,17.12 -7.28,4.96 -12.21,11.11 -17.11,18.33 -12.09,17.83 -5.22,2.18 -11.47,-1.5l0.01 0zm133.1 11.15c-6.71,-20.96 8.47,-21.52 -27.73,-22.86 -35.6,-1.35 -37.73,18.99 -42.29,20.11 -4.75,-3.78 1.06,-25.83 5.78,-31.2 8.28,-9.53 21.77,-11.43 33.67,-10.15 10.58,1.15 21.64,4.4 31.51,8.37 9.24,3.72 26.83,15.43 27.67,25.23 -19.21,-0.53 -11.81,-1.71 -28.61,10.5l0 0zm-153.37 -109.47c0.12,-0.06 61.27,32.26 76.79,24.96l-5.43 -17.46c6.87,2.97 5.34,5.43 24.42,11.87 8.65,2.9 16.65,5.02 24.92,9.05 5.94,2.91 19.96,9.03 24.24,13.28 5.68,5.65 12.31,22.14 17.83,29.29 -8.12,-1.19 -19.02,-11.37 -42.03,-11.34 -16.24,0 -27.18,0.44 -43.07,-4.62 -21.46,-6.77 -69.27,-34.48 -77.67,-55.03z"/>
  </g>
 </g>
</svg>
