<?xml version="1.0" encoding="UTF-8"?>
<!DOCTYPE svg PUBLIC "-//W3C//DTD SVG 1.1//EN" "http://www.w3.org/Graphics/SVG/1.1/DTD/svg11.dtd">
<!-- Creator: CorelDRAW 2017 -->
<svg xmlns="http://www.w3.org/2000/svg" xml:space="preserve" width="200px" height="160px" version="1.1" style="shape-rendering:geometricPrecision; text-rendering:geometricPrecision; image-rendering:optimizeQuality; fill-rule:evenodd; clip-rule:evenodd"
viewBox="0 0 200 160"
 xmlns:xlink="http://www.w3.org/1999/xlink">
 <defs>
  <style type="text/css">
   <![CDATA[
    .fil0 {fill:#E49B0E}
   ]]>
  </style>
 </defs>
 <g id="Layer_x0020_1">
  <metadata id="CorelCorpID_0Corel-Layer"/>
  <path class="fil0" d="M162.97 33.58l7.18 15.63c-1.06,0.7 -6.03,0.57 -9.15,2.83 -1.81,1.32 -5.87,6.32 -6.44,6.77l-10.88 -13.57 2.07 -2.02 8.42 7.02 -5.48 -9.16 2.47 -1.97 7.05 8.02 -3.91 -9.84c0.51,-0.28 2.24,-1.41 2.7,-1.35l5.52 8.83c0.87,-2.64 -4.87,-11.56 0.45,-11.19zm-163.04 -33.58l200.14 0c0,6.47 -1.77,13.04 -3.55,19.61 -1.82,6.76 -3.65,13.53 -3.65,20.39 0,6.86 1.83,13.63 3.65,20.39 1.78,6.57 3.55,13.14 3.55,19.61 0,6.47 -1.77,13.04 -3.55,19.61 -0.83,3.07 -1.65,6.14 -2.31,9.23 -1.46,-4.22 -3.73,-10.73 -4.23,-11.9 -2.86,-6.66 -5.41,-8.09 -5.59,-15.49 -3.11,1.32 -5.37,3.71 -7.65,4.19 -1.11,0.23 2.99,1.56 4.8,3.78 4.86,5.95 4.18,6.52 6.92,13.06 2.17,5.17 3.35,10.61 4.06,16.14 -2.08,-4.77 -5.04,-8.38 -11.91,-12.66 -4.15,-2.6 -8.4,-4.52 -12.75,-6.68 -2.07,-1.03 -4.83,-2.26 -6.15,-4.21 -1.03,-1.5 -1.58,-5.65 -2.25,-6.31l-2 4.22c-4.45,-2.3 -7.8,-9.65 -11.22,-12.98 -0.1,4.88 8.03,17.1 11.15,21.01 2.92,3.66 6.19,7.21 9.66,10.33 3.9,3.5 7.07,4.62 10.59,7.35l-4.59 7.57c2.57,0.56 7.97,-3.67 14.37,-0.61 4.96,2.37 6.7,7.81 8.89,13.95l0.21 0.79c1.78,6.57 3.55,13.14 3.55,19.61l-200.14 0 0 -160zm192.96 118.81l-0.02 0.64 -0.12 -0.3 0.14 -0.34zm-73.89 2.45c-0.51,0.04 -5.7,3.28 -6.72,3.81 -2.26,1.19 -5.6,5.76 -6.63,6.05 -1.3,-0.5 1.61,-4.11 -1.72,-3.82 -6.46,0.56 -10.96,-0.2 -17.08,-3 0.88,-0.54 7.47,-0.89 9.05,-1.12 3.32,-0.48 6.33,-1.74 9.14,-2.36l-4.03 -4.54c1.19,-1.08 3.37,1.79 7.47,-0.05 7.32,-3.29 12.43,-13.87 22.07,-9.15 -3.17,1.96 -7.47,3.06 -9.94,6.23 2.14,0.05 11.01,-6.03 17.69,-5.49 -2.05,4.41 -7.88,3.45 -11.72,7.11 -1.9,1.81 -3.05,3.86 -4.14,6.22 -2.68,5.82 -1.43,0.89 -3.44,0.11zm39.65 -3.19c-2.99,-5.82 1.44,-6.73 -9.26,-5.37 -10.53,1.34 -10.17,7.41 -11.45,7.97 -1.57,-0.89 -0.94,-7.65 0.18,-9.45 1.97,-3.2 5.85,-4.42 9.4,-4.62 3.17,-0.18 6.58,0.25 9.67,0.93 2.89,0.64 8.63,3.23 9.35,6.08 -5.67,0.76 -3.55,0.06 -7.89,4.46zm-50.38 -24.71c0.03,-0.02 19.57,6.51 23.77,3.6l-2.44 -4.86c2.16,0.53 1.83,1.34 7.75,2.29 2.68,0.44 5.13,0.68 7.76,1.46 1.89,0.56 6.31,1.68 7.77,2.72 1.95,1.39 4.69,5.9 6.66,7.74 -2.44,0.05 -6.14,-2.41 -12.9,-1.29 -4.78,0.79 -7.96,1.45 -12.88,0.74 -6.63,-0.96 -22.02,-6.77 -25.49,-12.4zm45.82 -19.57c3.61,-1.18 18.43,6.05 17.54,8.29 -0.58,1.46 -8.07,-1.18 -9.83,-2.78 -1.12,-1.02 -2.13,-2.21 -3.3,-3.18 -1.28,-1.07 -3.79,-1.6 -4.41,-2.33zm18.09 -3.83l9.03 7.8 -0.33 0.34c-0.74,1.53 -5.15,5.44 -6.61,1.11 -1.35,-3.98 -1.26,-5.9 -2.09,-9.25zm-9.97 -4.68l6.65 2.76 1.54 9.01c-6.47,-4.3 -9.34,-3.2 -8.19,-11.77zm-5.7 -0.93l2.91 0.36 0.13 7.02c-2.59,-0.29 -3.17,-0.13 -3.12,-2.4 0.03,-1.32 -0.17,-3.84 0.08,-4.98zm3.26 -6.3l-0.21 3.81 -1.87 -0.22 2.08 -3.59zm24.04 -2.12c0.21,0.43 -0.19,3.54 0.14,5.02 0.34,1.51 1.03,2.78 1.3,4.35 0.29,1.78 -0.18,9.65 -2.02,9.82 -2.48,0.25 -2.11,-17.3 0.58,-19.19zm-14.88 8.56l-6.48 -2.03 0.86 -6.88c0.44,0.06 6.07,1.79 6.27,1.93 1.07,0.79 -0.29,5.6 -0.65,6.98zm3.51 -5.39l6.41 3.4 0.1 8.97c-0.73,-0.13 -4.81,-3.58 -5.74,-4.27 -3.54,-2.66 0.22,-5.31 -0.77,-8.1zm7.83 -2.45l-0.81 3.03c-1.44,-0.48 -6.33,-3.11 -5.85,-4.58 0.7,-2.14 1.41,-1.48 3.24,-0.65 1.06,0.48 2.73,1.28 3.42,2.2zm-13.07 -3.02l4.04 -0.54c-0.13,2.82 -2.94,1.47 -4.04,0.54z"/>
 </g>
</svg>
