<?xml version="1.0" encoding="UTF-8"?>
<!DOCTYPE svg PUBLIC "-//W3C//DTD SVG 1.1//EN" "http://www.w3.org/Graphics/SVG/1.1/DTD/svg11.dtd">
<!-- Creator: CorelDRAW 2017 -->
<svg xmlns="http://www.w3.org/2000/svg" xml:space="preserve" width="160px" height="54px" version="1.1" style="shape-rendering:geometricPrecision; text-rendering:geometricPrecision; image-rendering:optimizeQuality; fill-rule:evenodd; clip-rule:evenodd"
viewBox="0 0 160 54"
 xmlns:xlink="http://www.w3.org/1999/xlink">
 <defs>
  <style type="text/css">
   <![CDATA[
    .fil0 {fill:black}
    .fil1 {fill:#E49B0E}
   ]]>
  </style>
 </defs>
 <g id="Layer_x0020_1">
  <metadata id="CorelCorpID_0Corel-Layer"/>
  <g id="_1806330609120">
   <path class="fil0" d="M160 47.39l0 0c-6.86,0 -13.63,-1.83 -20.39,-3.65 -6.57,-1.78 -13.14,-3.55 -19.61,-3.55 -6.47,0 -13.04,1.77 -19.61,3.55 -6.76,1.82 -13.53,3.65 -20.39,3.65 -3.07,0 -6.11,-0.37 -9.15,-0.93l-6.02 -8.38 -0.08 7.01c-1.72,-0.43 -3.43,-0.89 -5.14,-1.35 -6.57,-1.78 -13.14,-3.55 -19.61,-3.55 -6.47,0 -13.04,1.77 -19.61,3.55 -6.76,1.82 -13.53,3.65 -20.39,3.65l0 -47.2 160 0 0 47.2z"/>
   <path class="fil1" d="M95.6 47.61c1.43,0.1 10.29,-0.1 13.31,0.4 1.89,0.32 -0.34,3.73 -0.69,5.8l7.09 -4.09c2.2,-1.18 1.88,-1.23 4.36,-1.22 8.24,0.03 16.7,-0.23 25.46,-0.89 -2.09,-0.48 -4.12,-1.02 -6.13,-1.55 -8.78,-2.32 -17.27,-4.57 -29.87,-1.87 -4.23,0.9 -8.59,2.09 -12.78,3.22 -0.25,0.07 -0.5,0.14 -0.75,0.2z"/>
   <path class="fil1" d="M15.54 48.51c15.54,0.59 31.37,1.34 48.47,0 -8.35,-2.08 -17.13,-5.65 -25.76,-5.65 -8.06,0.08 -14.96,3.83 -22.71,5.65z"/>
  </g>
 </g>
</svg>
