<?xml version="1.0" encoding="UTF-8"?>
<!DOCTYPE svg PUBLIC "-//W3C//DTD SVG 1.1//EN" "http://www.w3.org/Graphics/SVG/1.1/DTD/svg11.dtd">
<!-- Creator: CorelDRAW 2017 -->
<svg xmlns="http://www.w3.org/2000/svg" xml:space="preserve" width="166px" height="113px" version="1.1" style="shape-rendering:geometricPrecision; text-rendering:geometricPrecision; image-rendering:optimizeQuality; fill-rule:evenodd; clip-rule:evenodd"
viewBox="0 0 166 113"
 xmlns:xlink="http://www.w3.org/1999/xlink">
 <defs>
  <style type="text/css">
   <![CDATA[
    .fil0 {fill:black}
    .fil1 {fill:#E49B0E}
   ]]>
  </style>
 </defs>
 <g id="Layer_x0020_1">
  <metadata id="CorelCorpID_0Corel-Layer"/>
  <g id="_1806321074800">
   <path class="fil0" d="M185.09 1348.97c-0.61,-0.75 -0.32,-2.29 -2.04,-2.5 -1.48,-0.19 -3.19,0.13 -4.67,0.11 -3.88,-0.06 -2,-3.89 -1.36,-6.18 0.76,-2.68 5.32,-12.86 5.37,-13.71l-5.19 0.73c-0.03,0.04 -1.65,6.8 -2.17,8.13 -0.95,2.45 -1.91,4.71 -3.13,7.05 -1.81,3.49 -1.07,4.62 -5.84,4.27 -1.43,-0.1 -3.36,-0.53 -4.71,-0.43 -1.95,0.13 -1.62,1.71 -2.33,2.53l26.07 0zm-32.01 0c-1.5,-1.49 0.81,-2.14 -3.98,-2.08 -2.27,0.03 -3.33,-1.2 -2.21,-3.35 1.5,-2.85 3.24,-5.07 5.31,-7.5 1.8,-2.12 4.31,-4.61 6.31,-6.6 1.02,-1.01 2.2,-2.33 2.75,-3.66 0.42,-0.99 1.14,-4.17 2.25,-4.13l-0.07 5.33c2.9,1.4 23.15,-1.94 27.38,-2.86 8.73,-1.9 16.54,-3.96 25.5,-5.02 9.71,-1.15 19.67,-0.67 29.4,-0.19 4.88,0.23 9.71,0.3 14.57,0.76 3.04,0.29 10.8,1.9 11.94,-2 -1.78,-0.86 -11.15,-1.09 -11.28,-2.32l0.02 -0.39 9.95 0.5c-1.21,-3.74 -18.6,-4.46 -22.27,-4.73 -7.65,-0.57 -15.65,-1.76 -23.03,-3.85 -6.65,-1.88 -12.76,-4.67 -18.7,-8.18 -2.73,-1.61 -14.71,-8.94 -15.84,-11.02l0.19 -0.33 22.15 13.1 0.19 -0.31c-4.63,-6.33 -12.51,-12.59 -18.57,-17.68 -6.56,-5.52 -13.14,-11.03 -19.64,-16.61 -6.26,-5.38 -13.44,-11.23 -18.62,-17.62 -5.98,-7.38 -12.34,-14.58 -22.95,-11.96 -2.22,0.55 -4.68,1.48 -6.81,2.34 -1.56,0.63 -5.58,1.88 -3.58,4.13 1.47,1.67 5.11,2.8 0.57,3.86 -2.83,0.67 -0.6,3.98 0.18,5.74 2.83,6.43 3.97,6.89 2.82,14.38 -2.56,16.67 -3.17,28.66 8.47,42.7 2.76,3.32 5.68,6.32 9,9.07 1.67,1.38 3.4,2.65 5.24,3.8 1.88,1.16 4.13,1.86 5.68,3.35 -0.63,2.5 -9.2,11.79 -11.37,14.47 -1.56,1.92 -3.77,6.58 -6.27,6.64 -1.83,0.04 -4.22,-0.21 -6.09,-0.36 -2.98,-0.24 -2.72,-0.46 -4.23,1.51l0 0c-0.03,0.05 -0.31,0.53 -0.54,1.07l26.18 0zm-17.35 -79.47c-3.27,0.89 -1.34,7.67 -0.31,9.91 6.81,14.79 39.36,24.17 54.42,28.15 2.26,0.59 9.37,2.8 11.13,2.88 2.79,0.12 -1.32,-1.48 -1.76,-1.6 -1.85,-0.49 -3.59,-0.89 -5.46,-1.43 -10.58,-3.06 -20.64,-6.11 -30.87,-10.41 -11.01,-4.63 -29.02,-13.05 -27.15,-27.5zm-2.29 -25.38c0.94,4.72 8.04,3.39 7.61,-0.51 -0.55,-4.95 -8.24,-2.64 -7.61,0.51zm4.23 -2.17c3.55,0.91 2.03,4.44 -0.59,4.03 -3.46,-0.54 -2.03,-4.71 0.59,-4.03z"/>
   <path class="fil1" d="M123.99 1245.14c-0.18,0.46 -1.39,1.08 -1.86,1.4 -1.07,0.71 -1.03,0.52 -2.18,-0.03 -3.1,-1.47 -6.11,-3.14 -9.12,-4.37 -0.71,-0.29 -4.66,-1.41 -4.12,-2.3 1.23,-2.02 9.44,-1.33 11.51,-0.97 1.65,0.29 4.73,0.32 3.68,2.17 -1.07,1.86 1.97,2.84 2.09,4.1z"/>
  </g>
  <g id="_1806321073968">
   <path class="fil0" d="M78.65 113.13c-0.61,-0.75 -0.32,-2.3 -2.04,-2.51 -1.48,-0.18 -3.19,0.13 -4.67,0.11 -3.88,-0.06 -2,-3.88 -1.36,-6.17 0.76,-2.69 5.32,-12.87 5.37,-13.72l-5.19 0.74c-0.03,0.03 -1.65,6.8 -2.17,8.13 -0.95,2.45 -1.91,4.7 -3.13,7.04 -1.81,3.49 -1.07,4.63 -5.84,4.28 -1.43,-0.1 -3.36,-0.53 -4.72,-0.44 -1.95,0.14 -1.61,1.72 -2.32,2.54l26.07 0zm-32.01 0c-1.5,-1.49 0.81,-2.15 -3.98,-2.08 -2.27,0.03 -3.33,-1.2 -2.21,-3.35 1.5,-2.85 3.24,-5.07 5.3,-7.5 1.81,-2.12 4.32,-4.62 6.32,-6.61 1.02,-1.01 2.19,-2.32 2.75,-3.65 0.42,-1 1.14,-4.18 2.25,-4.13l-0.07 5.32c2.9,1.41 23.15,-1.94 27.37,-2.86 8.74,-1.89 16.55,-3.96 25.51,-5.02 9.71,-1.15 19.67,-0.66 29.4,-0.19 4.88,0.24 9.71,0.3 14.57,0.77 3.04,0.29 10.8,1.89 11.94,-2.01 -1.78,-0.85 -11.15,-1.09 -11.28,-2.32l0.02 -0.38 9.95 0.5c-1.21,-3.75 -18.6,-4.46 -22.27,-4.74 -7.65,-0.57 -15.65,-1.75 -23.03,-3.84 -6.65,-1.88 -12.76,-4.68 -18.7,-8.18 -2.74,-1.61 -14.71,-8.94 -15.84,-11.02l0.19 -0.34 22.15 13.11 0.19 -0.31c-4.63,-6.34 -12.51,-12.59 -18.57,-17.69 -6.56,-5.51 -13.14,-11.02 -19.64,-16.6 -6.26,-5.39 -13.44,-11.23 -18.62,-17.63 -5.98,-7.37 -12.34,-14.57 -22.95,-11.96 -2.22,0.55 -4.68,1.49 -6.81,2.35 -1.56,0.63 -5.58,1.87 -3.58,4.13 1.47,1.67 5.11,2.79 0.57,3.86 -2.83,0.66 -0.6,3.97 0.17,5.74 2.84,6.43 3.98,6.88 2.83,14.38 -2.56,16.66 -3.17,28.65 8.47,42.7 2.76,3.32 5.68,6.31 9,9.07 1.67,1.38 3.4,2.65 5.24,3.79 1.88,1.17 4.13,1.86 5.68,3.35 -0.63,2.5 -9.2,11.8 -11.37,14.47 -1.57,1.92 -3.77,6.58 -6.27,6.64 -1.83,0.05 -4.22,-0.21 -6.09,-0.36 -2.98,-0.23 -2.73,-0.45 -4.23,1.51l0 0.01c-0.03,0.04 -0.31,0.52 -0.54,1.07l26.18 0zm-17.35 -79.47c-3.27,0.89 -1.34,7.66 -0.31,9.91 6.81,14.78 39.36,24.17 54.42,28.14 2.26,0.6 9.37,2.8 11.13,2.88 2.79,0.12 -1.32,-1.48 -1.76,-1.59 -1.85,-0.5 -3.59,-0.89 -5.46,-1.43 -10.58,-3.06 -20.64,-6.12 -30.87,-10.41 -11.01,-4.63 -29.02,-13.06 -27.15,-27.5zm-2.29 -25.39c0.94,4.73 8.04,3.4 7.61,-0.51 -0.55,-4.94 -8.24,-2.64 -7.61,0.51zm4.23 -2.17c3.55,0.91 2.03,4.44 -0.59,4.04 -3.46,-0.54 -2.03,-4.71 0.59,-4.04z"/>
   <path class="fil1" d="M17.55 9.29c-0.18,0.47 -1.39,1.08 -1.86,1.4 -1.07,0.72 -1.03,0.52 -2.18,-0.02 -3.1,-1.47 -6.11,-3.14 -9.12,-4.37 -0.71,-0.3 -4.67,-1.42 -4.12,-2.31 1.23,-2.02 9.44,-1.32 11.51,-0.96 1.65,0.29 4.73,0.32 3.67,2.16 -1.06,1.86 1.98,2.84 2.1,4.1z"/>
  </g>
 </g>
</svg>
