<?xml version="1.0" encoding="utf-8"?>
<!-- Generator: Adobe Illustrator 22.0.1, SVG Export Plug-In . SVG Version: 6.00 Build 0)  -->
<svg version="1.1" id="Layer_1" xmlns="http://www.w3.org/2000/svg" xmlns:xlink="http://www.w3.org/1999/xlink" x="0px" y="0px"
	 viewBox="0 0 355.9 478.6" style="enable-background:new 0 0 355.9 478.6;" xml:space="preserve">
<g id="Layer_x0020_1">
	<g>
		<path d="M396.8,435.7c-45-42-98-29-106.2-32.3l19.3-22.5c-10.1-11-20-16.5-31-30.2c-9.8-12.2-18.7-25.8-26.4-39.5
			c-8.2-14.6-28.4-59.6-25.4-75.7c9.5,12.9,16.6,39.1,30.1,49.1l8.9-12.9c1.9,2.5,1.4,16.6,4,22.1c3.3,7.2,11.8,12.7,18,17.3
			c13.3,9.6,26.3,18.3,38.6,29.1c4.9,4.3,9.1,8.4,12.7,12.3c0-1.5,0.1-2.9,0.1-4.4c-8.6-46-18.8-85.5-51.1-123.9
			c-23.9-28.4-31.1-5.1-52.4-13.6c0.2-1.1,20.3-18.6,23.4-22.5c7-8.6,13.3-28.8,15.3-31c4.3,4.6,4.5,32.7,8.6,41.2
			c3.1,6.5,16.6,20.7,21.8,27.6c7,9.2,13.7,20.2,19.1,30.4c1.3,2.3,9.3,20.4,13.3,29.3c3.1,6.8,5.8,14.6,8.3,22.9
			c1-5.3,9.1-14.2,9.8-21 M230.8,194.1c-11.1-7.6-37.2-10.5-50.1-8c-6.8,1.3-41.2,11.2-42.2,17.9c4.4,1.3,18-0.1,25.9,1.4
			c7.4,1.5,16.8,3.6,24.3,3.4C199.2,208.7,224.1,202.6,230.8,194.1L230.8,194.1z M133,166.6l-17.5,11.2c0.9,0.9,22.7,12.1,24,12.2
			C146.6,190.2,135.1,169.4,133,166.6z M176.1,176l-10.6-22.2c-17.7,2.9-25.9,4.1-18.6,20.4c3.9,8.7,2.9,10.4,11.7,7.5
			C162.5,180.4,173.4,177.7,176.1,176L176.1,176z M254.1,168.1l-39-15.7c-1.6,4.5,14.4,22.7,17.8,26.6c4.2,4.9,6.8,9.8,12.1,2.8
			C247.3,178.8,252.9,171.4,254.1,168.1L254.1,168.1L254.1,168.1z M218.2,178.2l-17.1-27.5l-25.7,0.8c1.4,4.8,9,21.5,12.4,22.9
			C189.3,175,215.7,178.2,218.2,178.2z M129.5,156.6l-6.1-24.2c-12.1,2.1-10.3,9.9-8.2,19.2C117.9,163.2,119.2,165.5,129.5,156.6
			L129.5,156.6L129.5,156.6z M162.1,143.9l-5.1-23.2c-3.5-0.5-14.6,3.1-18.2,4.5c-8.3,3.1-5.4,8.5-3.2,15.8c2.9,9.7,0.5,13,9.8,9.1
			C149.7,148.3,158.6,146.1,162.1,143.9L162.1,143.9L162.1,143.9z M120.2,104.4l-6.9,20.7C124.7,125.2,121.7,112.9,120.2,104.4z
			 M197.1,140.6l-6.6-23.8l-24,1.4c0.1,1.4,4.9,22.5,5.3,23.3C173.7,144.6,192.3,141.5,197.1,140.6L197.1,140.6L197.1,140.6z
			 M239.6,148.9c-1.5-5.8-8.2-17.8-11-24.2c-3.1-7.4-19.5-8.4-27.3-8.3c0.5,5.5,4.9,24.2,9.5,25.7
			C214.3,143.4,236.6,148.9,239.6,148.9z M239.2,64.4c-14.6,8.1,0.7,86.2,18.3,90.8c10.1,2.6,2-42.1-0.3-48.7
			c-2.5-7.1-6.6-13.3-10.1-20.1C244.5,81.3,240.5,66,239.2,64.4C239.2,64.4,239.2,64.4,239.2,64.4z M189.5,82.2l-24.2,1.2l-0.8,24.8
			C194.9,107.9,189.8,109.1,189.5,82.2z M224.9,109.7l-1.2-24.9l-24.1-3.1C199.8,107.7,191.5,107.3,224.9,109.7z M130.7,117
			l24.5-6.7l-0.9-24c-2.7,0.5-20.7,4.5-22.4,5.3C127.7,93.6,129.8,111.9,130.7,117L130.7,117z M207.5,51.3
			c-9.5,20.8-9.3,22,12.1,22.7c13.8,0.5,4.2-6.5-0.3-9.9C212.1,58.5,212.4,56,207.5,51.3z M137.2,79.2l18.5-4.3l1.3-8.8L137.2,79.2z
			 M193.6,59.9l-24.9,1.2l-3.2,11.8c3.9,0.3,15.1-0.4,19.6-0.6C193.8,71.9,190.5,67,193.6,59.9L193.6,59.9z M116.8,39.3L87.6,12.1
			l-7.7,6.5l22.9,32.2L70,28.3l-6.9,8.2l26.6,28.3L55.6,47.6L49.4,57l31.1,23.6L43.3,68.6l-3.8,9.5L75,98.2l-39.2-7.5l-2.6,9.7
			l64.1,24.8c3.2-4.1,4.8-40.5,33.2-60.5c3.9-2.8,18.2-9.3,19.7-12.3L106.3,0C86.6,0.4,114.6,30,116.8,39.3
			C116.8,39.3,116.8,39.3,116.8,39.3z M114.2,357.3c-1.7-0.2-20.7,7.7-24.4,9c-8.1,2.7-21.7,16-25.2,16.4
			c-4.1-2.4,7.6-12.7-3.6-13.6c-21.7-1.6-36.2-6.6-55-19.3c3.2-1.3,25.3,1.2,30.6,1.3c11.3,0.2,21.9-2.3,31.6-2.8l-10.9-17.3
			c4.5-2.9,10.2,7.8,24.8,3.9c26-6.9,48.8-39.2,78.1-18.2c-11.6,4.8-26.4,6.1-36.4,15.2c7.1,1.3,39.8-13.9,61.6-8.5
			c-9.2,13.5-28,7.1-42.7,17.1c-7.3,5-12.2,11.1-17.1,18.3C113.6,376.6,120.4,360.9,114.2,357.3
			C114.2,357.3,114.2,357.3,114.2,357.3z M247.3,368.4c-6.7-21,8.5-21.5-27.7-22.9c-35.6-1.4-37.7,19-42.3,20.1
			c-4.8-3.8,1.1-25.8,5.8-31.2c8.3-9.5,21.8-11.4,33.7-10.1c10.6,1.1,21.6,4.4,31.5,8.4c9.2,3.7,26.8,15.4,27.7,25.2
			C256.7,357.4,264.1,356.2,247.3,368.4L247.3,368.4z M93.9,258.9c0.1-0.1,61.3,32.3,76.8,25l-5.4-17.5c6.9,3,5.3,5.4,24.4,11.9
			c8.6,2.9,16.6,5,24.9,9c5.9,2.9,20,9,24.2,13.3c5.7,5.6,12.3,22.1,17.8,29.3c-8.1-1.2-19-11.4-42-11.3c-16.2,0-27.2,0.4-43.1-4.6
			C150.1,307.2,102.3,279.5,93.9,258.9z"/>
	</g>
</g>
</svg>
