<?xml version="1.0" encoding="utf-8"?>
<!-- Generator: Adobe Illustrator 21.0.0, SVG Export Plug-In . SVG Version: 6.00 Build 0)  -->
<svg version="1.1" id="Layer_1" xmlns="http://www.w3.org/2000/svg" xmlns:xlink="http://www.w3.org/1999/xlink" x="0px" y="0px"
	 viewBox="0 0 106 7" style="enable-background:new 0 0 106 7;" xml:space="preserve">
<style type="text/css">
	.st0{fill:#FFFFFF;}
</style>
<g id="Layer_x0020_1">
	<path class="st0" d="M81.1,4.9h-1.6v-1c4.4,0,8.2-2.4,13.4-2.4c4.1,0,8.1,2.1,12.1,2.4v1c-1.5-0.1-3.2-0.5-5.8-1.1
		c-5.7-1.5-7.8-1.6-13.6,0.1c-0.6,0.2-1.7,0.4-2.1,0.6c0.3,0.5,0.4,1.2,0.7,1.7C83.4,6.1,81.9,4.9,81.1,4.9z M0.9,3.9
		c2-0.1,4.5-0.7,6.1-1.2c5.4-1.5,7.2-1.9,12.5-0.5c1.4,0.4,3.8,1.4,5.3,1.4V0.8C25,0.9,25,1,25.1,1.1l0.8,1.2
		c0.3,0.5,0.8,1.1,0.9,1.6c2.2,0,4.7-0.7,6.6-1.2c6.1-1.7,7.2-1.4,13,0.1c1.1,0.3,2,0.5,3.1,0.8c4.3,0.9,6,0.3,10.2-0.8
		c5.9-1.5,7.4-1.8,13.5,0c1.7,0.5,4.4,1.2,6.4,1.2v1c-5.6,0-7.3-2.2-13.9-2.2c-3.2,0-8.1,2.2-11.5,2.2c-3.7,0-3.8-0.1-7.5-1.1
		c-6.3-1.6-6.9-1.6-13.1,0c-6,1.5-7.2,1.6-13.3,0c-5.8-1.5-7.3-1.5-13.1,0C4.8,4.4,3.6,4.9,0.9,4.9L0.9,3.9C0.9,3.9,0.9,3.9,0.9,3.9
		z"/>
</g>
</svg>
