<?xml version="1.0" encoding="utf-8"?>
<!-- Generator: Adobe Illustrator 22.0.1, SVG Export Plug-In . SVG Version: 6.00 Build 0)  -->
<svg version="1.1" id="Layer_1" xmlns="http://www.w3.org/2000/svg" xmlns:xlink="http://www.w3.org/1999/xlink" x="0px" y="0px"
	 viewBox="0 0 160 54" style="enable-background:new 0 0 160 54;" xml:space="preserve">
<style type="text/css">
	.st0{fill:#E49B0E;}
	.st1{fill:#FFFFFF;}
</style>
<g id="Layer_x0020_1">
	<g id="_1806330642176">
		<path d="M160,47.4L160,47.4c-6.9,0-13.6-1.8-20.4-3.7c-6.6-1.8-13.1-3.5-19.6-3.5s-13,1.8-19.6,3.5c-6.8,1.8-13.5,3.7-20.4,3.7
			s-13.6-1.8-20.4-3.7C53,42,46.5,40.2,40,40.2S27,42,20.4,43.7C13.6,45.6,6.9,47.4,0,47.4V0.2h160V47.4z"/>
		<path class="st0" d="M95.6,47.6c1.4,0.1,9.9,0.3,12.9,0.8c2,0.3,0.5,3.5,0.3,5.4c3.2-2.2,6.7-5.3,10.8-5.3
			c8.2,0,16.7-0.2,25.5-0.9c-2.1-0.5-4.1-1-6.1-1.5c-8.8-2.3-17.3-4.6-29.9-1.9c-4.2,0.9-8.6,2.1-12.8,3.2
			C96.1,47.5,95.8,47.5,95.6,47.6z"/>
		<path class="st0" d="M15.5,48.5c15.5,0.6,31.4,1.3,48.5,0c-8.4-2.1-17.1-5.7-25.8-5.7C30.2,42.9,23.3,46.7,15.5,48.5z"/>
		<path class="st1" d="M132.1,42.5c1.2-0.5,10.4-4.2,10.4-4.2l-3.9,6.3C138.6,44.7,132.1,42.5,132.1,42.5z"/>
	</g>
</g>
</svg>
