<?xml version="1.0" encoding="utf-8"?>
<!-- Generator: Adobe Illustrator 22.0.1, SVG Export Plug-In . SVG Version: 6.00 Build 0)  -->
<svg version="1.1" xmlns="http://www.w3.org/2000/svg" xmlns:xlink="http://www.w3.org/1999/xlink" x="0px" y="0px"
	 viewBox="0 0 160 54" style="enable-background:new 0 0 160 54;" xml:space="preserve">
<style type="text/css">
	.st0{fill:#FFFFFF;}
	.st1{fill:#E49B0E;}
</style>
<g id="Layer_2">
	<rect y="-1" class="st0" width="160" height="47.3"/>
</g>
<g id="Layer_1">
	<g id="Layer_x0020_1_2_">
		<g id="_1806330642176_2_">
			<path d="M0,6.6L0,6.6c6.9,0,13.6,1.8,20.4,3.7C27,12,33.5,13.8,40,13.8s13-1.8,19.6-3.5C66.4,8.4,73.1,6.6,80,6.6
				s13.6,1.8,20.4,3.7c6.6,1.8,13.1,3.5,19.6,3.5s13-1.8,19.6-3.5c6.8-1.8,13.5-3.7,20.4-3.7v47.2H0L0,6.6z"/>
			<path class="st1" d="M64.4,6.4C63,6.3,54.5,6.1,51.5,5.6c-2-0.3-0.5-3.5-0.3-5.4c-3.2,2.2-6.7,5.3-10.8,5.3
				c-8.2,0-16.7,0.2-25.5,0.9C17,6.9,19,7.4,21,7.9c8.8,2.3,17.3,4.6,29.9,1.9c4.2-0.9,8.6-2.1,12.8-3.2C63.9,6.5,64.2,6.4,64.4,6.4
				z"/>
			<path class="st1" d="M144.5,5.5c-15.5-0.6-31.4-1.3-48.5,0c8.4,2.1,17.1,5.7,25.8,5.7C129.8,11.1,136.7,7.3,144.5,5.5z"/>
			<path class="st0" d="M27.9,11.4c-1.2,0.5-10.4,4.2-10.4,4.2l3.9-6.3C21.4,9.3,27.9,11.5,27.9,11.4z"/>
		</g>
	</g>
</g>
</svg>
