<?xml version="1.0" encoding="utf-8"?>
<!-- Generator: Adobe Illustrator 22.0.1, SVG Export Plug-In . SVG Version: 6.00 Build 0)  -->
<svg version="1.1" id="Layer_1" xmlns="http://www.w3.org/2000/svg" xmlns:xlink="http://www.w3.org/1999/xlink" x="0px" y="0px"
	 viewBox="0 0 160 54" style="enable-background:new 0 0 160 54;" xml:space="preserve">
<style type="text/css">
	.st0{fill:#FFFFFF;}
</style>
<g id="Layer_x0020_1">
	<g>
		<path class="st0" d="M60.8,0.9c1.4,0.3,8.8,2.3,10,2.7c1.5,0.5,4.7,1.4,5.1,1.6c1.8,0.7,3.7,1.6,5.4,2.6c1.3,0.7,3.9,2.7,5,3.1
			c1.5,0.5,6.1,0,7,0.6c-0.3,0.3-3.5,1.8-4.8,3.1c-0.6,0.6-3.1,4.3-3.3,4.3c-1.9-3.3,1.9-5-3.3-8.4c-7-4.6-15.1-6.6-22.9-7.2
			c-3.8-2.5-1.3-2.4-1.5-2.4 M88,19.5c-1.3,1.3-1.8,5.5-1.6,7.2c0.1,1.3,0.6,2.8,1,4c0.4,1.3,0.4,3.6,0.7,4.3
			c1.1-0.3,2.1-6.2,2.2-7.3C90.4,25.5,89.5,21.2,88,19.5L88,19.5z M90.4,34.6c0.1,0.2,2.3,3.6,2.5,3.7l1.5-3.1
			C93.9,34.9,90.2,33.4,90.4,34.6z M92,28.2c-0.2,0.5-0.4,2.4-0.6,3c-0.3,1.5,0,1.3,1.5,1.8c2.8,0.9,2.9-0.5,3-3.5L92,28.2L92,28.2z
			 M91.9,15.2L91.9,15.2c-0.6,0.2-1.7,1.3-2.2,1.8c-1.1,1.1-0.2,1.4,0.7,2c0.8,0.5,4.1,2.7,4.8,2.4L91.9,15.2L91.9,15.2z M92.2,26.3
			c0.3,0.5,3.2,1.5,4,1.6l-0.4-4.3l-4.9-2.3C90.9,21.7,92,26,92.2,26.3z M96.1,35.6L96.1,35.6c-1.2,1.9-0.8,2,1.1,2.2
			c1.6,0.2,2.9,0.3,3-1.7L96.1,35.6L96.1,35.6z M97.6,30L97.6,30c-0.3,0.6-0.5,2.1-0.8,2.9c-0.5,1.6,0,1.1,1.7,1.4
			c1.3,0.3,2.2,0.6,2.6-0.8c0.2-0.6,0.6-2.5,0.4-3.1L97.6,30L97.6,30z M101.7,37.6l3.3-1.5C103.5,36,101.4,35.8,101.7,37.6z
			 M97.5,24.1L97.5,24.1c-0.1,0.8-0.2,3.9,0.3,4.2c0.2,0,3.8,0.4,4,0.4l-0.2-4L97.5,24.1L97.5,24.1z M97,21.9
			c0.3,0.7,3.5,1.1,4.4,1.1c-0.1-1.3-0.6-4-1.9-4.4c-1.1-0.4-3.2-1.3-4.2-1.4C95.4,17.7,96.7,21.3,97,21.9z M109.3,15.6
			c-0.3-0.1-2.9-0.5-3.8-0.9c-1.2-0.5-2.3-1-3.5-1.3c-1.2-0.2-8.7-0.7-8.1,0.9C95,17.1,108.2,18.2,109.3,15.6
			C109.3,15.6,109.3,15.7,109.3,15.6z M103.5,28.8l4.1-0.6l-0.3-4C102.8,24.7,103,23.8,103.5,28.8z M107.2,22.5l-1-3.9l-4.1,0.3
			C103.1,24.4,102.9,23,107.2,22.5z M102.7,34.6c0.8,0.1,3.9,0.1,4.1-0.7c0.1-0.3,0.5-3.3,0.5-3.8l-4,0.3L102.7,34.6L102.7,34.6z
			 M109.8,19c-0.7-0.7-2-2.2-1.7,0.1c0.5,3.6,0.7,3.6,4,1.6C111.2,19.9,110.8,20,109.8,19z M110.6,29.3l-1.4,0.4l-0.4,3.1
			L110.6,29.3z M110.9,23.1c-1.1,0.7-2,0.2-1.9,1.5c0.1,0.8,0.2,2.7,0.3,3.3l1.9-0.7L110.9,23.1L110.9,23.1z M115.8,35.5
			c1.6,0.1,7,4.2,6.7,0.9l-9.5-6.3c-0.5,0.3-1.3,2.8-1.7,3.5c-2.8,5.1-8.8,6.1-9.4,6.7l5.4,10.1l1.6-0.6l-2-6.4l4,5.5l1.5-0.8
			l-2.7-5.9l4.5,4.7l1.4-1.2l-3.5-5.3l5.2,3.9l1.2-1.3l-4.3-5l5.8,3.2l0.9-1.4L115.8,35.5L115.8,35.5z"/>
	</g>
</g>
</svg>
