<?xml version="1.0" encoding="utf-8"?>
<!-- Generator: Adobe Illustrator 22.0.1, SVG Export Plug-In . SVG Version: 6.00 Build 0)  -->
<svg version="1.1" id="Layer_1" xmlns="http://www.w3.org/2000/svg" xmlns:xlink="http://www.w3.org/1999/xlink" x="0px" y="0px"
	 viewBox="0 0 355.9 478.6" style="enable-background:new 0 0 355.9 478.6;" xml:space="preserve">
<style type="text/css">
	.st0{fill:#FFFFFF;}
</style>
<g id="Layer_x0020_1">
	<g>
		<path class="st0" d="M-2.7,308.9c0.7,6.8,8.9,15.7,9.8,21c2.5-8.3,5.2-16.1,8.3-22.9c4-8.9,12-26.9,13.3-29.3
			c5.5-10.2,12.1-21.1,19.1-30.4c5.3-6.9,18.7-21.1,21.8-27.6c4.1-8.5,4.2-36.6,8.6-41.2c2,2.2,8.3,22.4,15.3,31
			c3.1,3.9,23.3,21.4,23.4,22.5c-21.3,8.5-28.5-14.8-52.4,13.6c-32.3,38.4-42.5,78-51.1,123.9c0.1,1.5,0.1,2.9,0.1,4.4
			c3.6-3.9,7.8-8,12.7-12.3c12.3-10.9,25.4-19.5,38.6-29.1c6.3-4.5,14.7-10.1,18-17.3c2.6-5.6,2.1-19.6,4-22.1l8.9,12.9
			c13.5-10.1,20.6-36.2,30.1-49.1c3,16.1-17.2,61.1-25.4,75.7c-7.7,13.7-16.6,27.3-26.4,39.5c-11,13.7-20.9,19.2-31,30.2l19.3,22.5
			c-8.2,3.3-61.2-9.7-106.2,32.3 M122.2,215.6c6.7,8.5,31.6,14.6,42.1,14.8c7.5,0.2,16.9-1.9,24.3-3.4c8-1.6,21.5-0.2,25.9-1.4
			c-1-6.8-35.4-16.7-42.2-17.9C159.5,205.1,133.3,207.9,122.2,215.6L122.2,215.6z M213.6,211.4c1.3,0,23.1-11.3,24-12.2l-17.5-11.2
			C218,190.8,206.4,211.6,213.6,211.4z M176.9,197.4c2.7,1.7,13.6,4.5,17.4,5.7c8.9,2.9,7.8,1.2,11.7-7.5
			c7.3-16.3-0.9-17.5-18.6-20.4L176.9,197.4L176.9,197.4z M98.9,189.5L98.9,189.5c1.3,3.3,6.8,10.7,9.1,13.7c5.3,7,7.9,2.1,12.1-2.8
			c3.4-4,19.4-22.1,17.8-26.6L98.9,189.5L98.9,189.5z M165.2,195.8c3.4-1.4,11-18,12.4-22.9l-25.7-0.8l-17.1,27.5
			C137.4,199.6,163.8,196.4,165.2,195.8z M223.5,178L223.5,178c10.4,8.9,11.6,6.6,14.3-5c2.1-9.3,3.9-17.1-8.2-19.2L223.5,178
			L223.5,178z M191,165.4L191,165.4c3.4,2.1,12.4,4.3,16.8,6.2c9.2,3.8,6.8,0.5,9.8-9.1c2.2-7.3,5.1-12.7-3.2-15.8
			c-3.6-1.4-14.7-5-18.2-4.5L191,165.4L191,165.4z M239.7,146.5l-6.9-20.7C231.3,134.3,228.3,146.6,239.7,146.5z M156,162L156,162
			c4.8,0.9,23.4,4.1,25.3,0.9c0.4-0.7,5.3-21.9,5.3-23.3l-24-1.4L156,162L156,162z M142.2,163.6c4.6-1.6,9-20.3,9.5-25.7
			c-7.8-0.1-24.2,0.9-27.3,8.3c-2.8,6.5-9.5,18.5-11,24.2C116.5,170.3,138.8,164.8,142.2,163.6z M113.8,85.8
			c-1.3,1.7-5.2,16.9-7.8,22c-3.5,6.7-7.6,12.9-10.1,20c-2.4,6.6-10.4,51.3-0.3,48.7C113.1,172,128.4,93.9,113.8,85.8
			C113.8,85.8,113.8,85.8,113.8,85.8z M188.5,129.6l-0.8-24.8l-24.2-1.2C163.2,130.6,158.1,129.3,188.5,129.6z M153.5,103.2
			l-24.1,3.1l-1.2,24.9C161.5,128.7,153.3,129.1,153.5,103.2z M222.3,138.5c1-5.1,3.1-23.4-1.1-25.4c-1.7-0.8-19.7-4.9-22.4-5.3
			l-0.9,24L222.3,138.5L222.3,138.5z M133.7,85.5c-4.5,3.5-14.1,10.4-0.3,9.9c21.4-0.7,21.6-1.9,12.1-22.7
			C140.7,77.4,140.9,79.9,133.7,85.5z M196,87.6l1.3,8.8l18.5,4.3L196,87.6z M159.5,81.4c3.1,7.1-0.2,12,8.4,12.4
			c4.6,0.2,15.7,1,19.6,0.6l-3.2-11.8L159.5,81.4L159.5,81.4z M236.3,60.7c2.2-9.3,30.1-38.9,10.5-39.3l-43.9,52.4
			c1.5,3.1,15.8,9.6,19.7,12.3c28.4,20,30,56.4,33.2,60.5l64.1-24.8l-2.6-9.7l-39.2,7.5l35.5-20.1l-3.8-9.5L272.5,102l31.1-23.6
			l-6.2-9.4l-34.1,17.2L290,58l-6.9-8.2l-32.8,22.5L273.2,40l-7.7-6.5L236.3,60.7C236.3,60.7,236.3,60.7,236.3,60.7z M238.9,378.7
			c-6.3,3.7,0.6,19.3-11.5,1.5c-4.9-7.2-9.8-13.4-17.1-18.3c-14.7-10-33.5-3.6-42.7-17.1c21.8-5.4,54.6,9.8,61.6,8.5
			c-9.9-9.1-24.8-10.4-36.3-15.2c29.4-20.9,52.1,11.3,78.1,18.2c14.6,3.8,20.3-6.9,24.8-3.9l-10.9,17.3c9.6,0.5,20.3,3,31.6,2.8
			c5.3-0.1,27.4-2.6,30.6-1.3c-18.8,12.6-33.3,17.6-55,19.3c-11.2,0.9,0.5,11.3-3.6,13.6c-3.5-0.4-17.1-13.7-25.2-16.4
			C259.5,386.4,240.6,378.5,238.9,378.7C238.9,378.7,238.9,378.7,238.9,378.7z M105.8,389.8c-16.8-12.2-9.4-11-28.6-10.5
			c0.8-9.8,18.4-21.5,27.7-25.2c9.9-4,20.9-7.2,31.5-8.4c11.9-1.3,25.4,0.6,33.7,10.1c4.7,5.4,10.5,27.4,5.8,31.2
			c-4.6-1.1-6.7-21.5-42.3-20.1C97.3,368.3,112.5,368.9,105.8,389.8L105.8,389.8z M181.5,335.4c-15.9,5.1-26.8,4.6-43.1,4.6
			c-23,0-33.9,10.1-42,11.3c5.5-7.1,12.2-23.6,17.8-29.3c4.3-4.3,18.3-10.4,24.2-13.3c8.3-4,16.3-6.1,24.9-9
			c19.1-6.4,17.6-8.9,24.4-11.9l-5.4,17.5c15.5,7.3,76.7-25,76.8-25C250.7,300.9,202.9,328.6,181.5,335.4z"/>
	</g>
</g>
</svg>
