<?xml version="1.0" encoding="utf-8"?>
<!-- Generator: Adobe Illustrator 22.0.1, SVG Export Plug-In . SVG Version: 6.00 Build 0)  -->
<svg version="1.1" id="Layer_1" xmlns="http://www.w3.org/2000/svg" xmlns:xlink="http://www.w3.org/1999/xlink" x="0px" y="0px"
	 viewBox="0 0 160 54" style="enable-background:new 0 0 160 54;" xml:space="preserve">
<style type="text/css">
	.st0{fill:#FFFFFF;}
</style>
<g id="Layer_x0020_1">
	<g>
		<path class="st0" d="M57.5,54.4c0.2,0-2.3,0.1,1.5-2.4c7.8-0.6,15.9-2.6,22.9-7.2c5.2-3.4,1.4-5.1,3.3-8.4c0.2,0,2.7,3.7,3.3,4.3
			c1.3,1.3,4.5,2.8,4.8,3.1c-0.9,0.6-5.5,0.1-7,0.6c-1.1,0.4-3.7,2.4-5,3.1c-1.7,1-3.6,1.9-5.4,2.6c-0.4,0.2-3.6,1.1-5.1,1.6
			c-1.2,0.4-8.6,2.4-10,2.7 M88,35.8c1.5-1.7,2.4-6,2.3-8.2c-0.1-1.1-1.1-7-2.2-7.3c-0.3,0.7-0.3,3-0.7,4.3c-0.4,1.2-0.9,2.7-1,4
			C86.2,30.3,86.7,34.5,88,35.8L88,35.8z M94.4,20.1L92.9,17c-0.2,0.1-2.4,3.5-2.5,3.7C90.2,21.9,93.9,20.4,94.4,20.1z M92,27.1
			l3.9-1.3c-0.1-3-0.2-4.4-3-3.5c-1.5,0.5-1.8,0.3-1.5,1.8C91.6,24.7,91.8,26.6,92,27.1L92,27.1z M91.9,40.1l3.3-6.2
			c-0.7-0.3-4,1.9-4.8,2.4c-0.9,0.6-1.8,0.9-0.7,2C90.2,38.8,91.3,39.9,91.9,40.1L91.9,40.1L91.9,40.1z M90.9,34l4.9-2.3l0.4-4.3
			c-0.8,0.1-3.7,1.1-4,1.6C92,29.3,90.9,33.6,90.9,34z M96.1,19.7l4.1-0.5c-0.1-2-1.4-1.9-3-1.7C95.3,17.7,94.9,17.8,96.1,19.7
			L96.1,19.7L96.1,19.7z M97.6,25.3l3.9-0.4c0.2-0.6-0.2-2.5-0.4-3.1c-0.4-1.4-1.3-1.1-2.6-0.8c-1.7,0.3-2.2-0.2-1.7,1.4
			C97.1,23.2,97.3,24.7,97.6,25.3L97.6,25.3L97.6,25.3z M105,19.2l-3.3-1.5C101.4,19.5,103.5,19.3,105,19.2z M97.5,31.2l4.1-0.6
			l0.2-4c-0.2,0-3.8,0.4-4,0.4C97.3,27.3,97.4,30.4,97.5,31.2L97.5,31.2L97.5,31.2z M95.3,38.1c1-0.1,3.1-1,4.2-1.4
			c1.3-0.4,1.8-3.1,1.9-4.4c-0.9,0-4.1,0.4-4.4,1.1C96.7,34,95.4,37.6,95.3,38.1z M109.3,39.7c-1.1-2.6-14.3-1.5-15.4,1.3
			c-0.6,1.6,6.9,1.1,8.1,0.9c1.2-0.3,2.3-0.8,3.5-1.3C106.4,40.2,109,39.8,109.3,39.7C109.3,39.6,109.3,39.7,109.3,39.7z
			 M107.3,31.1l0.3-4l-4.1-0.6C103,31.5,102.8,30.6,107.3,31.1z M102.1,36.4l4.1,0.3l1-3.9C102.9,32.3,103.1,30.9,102.1,36.4z
			 M102.7,20.7l0.6,4.2l4,0.3c0-0.5-0.4-3.5-0.5-3.8C106.6,20.6,103.5,20.6,102.7,20.7L102.7,20.7z M112.1,34.6c-3.3-2-3.5-2-4,1.6
			c-0.3,2.3,1,0.8,1.7,0.1C110.8,35.3,111.2,35.4,112.1,34.6z M108.8,22.5l0.4,3.1l1.4,0.4L108.8,22.5z M110.9,32.2l0.3-4.1
			l-1.9-0.7c-0.1,0.6-0.2,2.5-0.3,3.3C108.9,32,109.8,31.5,110.9,32.2L110.9,32.2z M115.8,19.8l5.1-4.3l-0.9-1.4l-5.8,3.2l4.3-5
			l-1.2-1.3l-5.2,3.9l3.5-5.3l-1.4-1.2l-4.5,4.7l2.7-5.9l-1.5-0.8l-4,5.5l2-6.4l-1.6-0.6L101.9,15c0.6,0.6,6.6,1.6,9.4,6.7
			c0.4,0.7,1.2,3.2,1.7,3.5l9.5-6.3C122.8,15.6,117.4,19.7,115.8,19.8C115.8,19.8,115.8,19.8,115.8,19.8z"/>
	</g>
</g>
</svg>
