<?xml version="1.0" encoding="UTF-8"?>
<!DOCTYPE svg PUBLIC "-//W3C//DTD SVG 1.1//EN" "http://www.w3.org/Graphics/SVG/1.1/DTD/svg11.dtd">
<!-- Creator: CorelDRAW 2017 -->
<svg xmlns="http://www.w3.org/2000/svg" xml:space="preserve" width="245px" height="76px" version="1.1" style="shape-rendering:geometricPrecision; text-rendering:geometricPrecision; image-rendering:optimizeQuality; fill-rule:evenodd; clip-rule:evenodd"
viewBox="0 0 245 76"
 xmlns:xlink="http://www.w3.org/1999/xlink">
 <defs>
  <style type="text/css">
   <![CDATA[
    .fil0 {fill:white}
   ]]>
  </style>
 </defs>
 <g id="Layer_x0020_1">
  <metadata id="CorelCorpID_0Corel-Layer"/>
  <g id="_1806319815744">
   <path class="fil0" d="M135.04 50.79c3.8,-0.71 6.09,2.64 6.36,6.02 0.59,7.66 -5.81,9.88 -9.3,6.58 -1.17,-1.1 -1.66,-2.42 -1.66,-4.63 0.01,-2.23 -0.16,-3.63 0.89,-5.41 0.72,-1.22 1.92,-2.22 3.71,-2.56zm-8.12 -2.41c0.02,2.21 0.14,4.38 0.14,6.61l0 13.26c0,2.04 -0.14,4.59 0.01,6.58l3.37 -0.04 0.01 -10.17 0.29 0.3c1.02,1.32 2.21,2.1 3.96,2.45 5.62,1.13 10.29,-3.21 10.15,-10.24 -0.08,-4.19 -2.14,-7.41 -5.15,-8.62 -1.72,-0.7 -4.07,-0.68 -5.8,-0.02 -2.6,0.99 -3.32,2.81 -3.76,3.1l-0.15 -3.21 -3.07 0z"/>
   <path class="fil0" d="M119.3 59.01c-0.92,7.18 -7.93,7.15 -10.24,3.12 -0.87,-1.51 -0.71,-3.75 -0.67,-5.68 0.06,-3.41 2.93,-6.44 6.65,-5.6 3.15,0.72 4.75,4.31 4.26,8.16zm-14.45 -10.63c0.04,2.21 0.15,4.38 0.15,6.61l0 13.26c0,2.06 -0.12,4.55 0.01,6.58l3.38 -0.02 0 -10.2c0.19,0.12 0.03,0.01 0.17,0.14l0.3 0.4c0.15,0.22 0.22,0.26 0.41,0.45 4.42,4.24 13.78,1.66 13.53,-8.47 -0.23,-9.53 -9.64,-11.53 -13.95,-6.49 -0.18,0.2 -0.54,0.82 -0.77,0.94l-0.18 -3.2 -3.05 0z"/>
   <path class="fil0" d="M86.43 56.26c0.11,-0.7 0.75,-2.28 0.99,-3 1.18,-3.51 1.82,-5.51 2.85,-9.22 0.33,0.38 0.76,2.55 0.94,3.18 0.47,1.62 2.89,8.3 3.01,9.05l-7.79 -0.01zm-0.88 3.08c0.11,-0.32 0.05,-0.29 0.28,-0.43l9.15 0.01c0.35,1.34 1.84,5.44 2.46,7.3 0.15,0.43 0.2,0.86 0.45,0.91l3.49 -0.01 -8.93 -26.12 -4.09 0 -8.86 26.13 3.49 -0.01 2.56 -7.78z"/>
   <path class="fil0" d="M170.01 44.62c0.18,-0.23 0.92,-2.42 0.93,-2.77 -2.04,-0.93 -4.24,-1.45 -6.87,-1.19 -2.43,0.24 -3.97,0.96 -5.57,2.49 -1.31,1.25 -2.19,3.71 -1.61,6.14 1.38,5.8 9.33,5.24 11.2,8.91 1.79,3.5 -1.12,8.04 -8.27,6.03 -1.51,-0.42 -2.16,-0.96 -2.81,-1.19l-0.82 2.88c1.26,0.53 1.21,0.69 2.88,1.12 3.26,0.84 7.4,0.64 9.99,-1.19 4,-2.83 3.69,-8.58 0.76,-11.01 -3.69,-3.05 -8.75,-3.01 -9.58,-6.51 -0.6,-2.55 1.16,-4.27 3.15,-4.73 2.53,-0.58 4.71,0.19 6.62,1.02z"/>
   <path class="fil0" d="M202.46 59.01c-0.5,3.7 -3.2,6.7 -6.85,5.8 -6.97,-1.73 -5.59,-15.83 2.42,-14.14 3.2,0.67 4.96,4.43 4.43,8.34zm3.52 0c0.64,-6.01 -2.61,-10.38 -7.88,-10.97 -2.98,-0.33 -5.6,0.66 -7.26,2.12 -1.57,1.38 -2.77,3.32 -3.12,6.27 -0.7,5.92 2.63,10.42 7.78,11.03 5.4,0.63 9.87,-2.76 10.48,-8.45z"/>
   <path class="fil0" d="M224.53 55.91c0.3,-2.81 2.12,-5.35 5.02,-5.47 3.31,-0.13 4.91,2.27 4.95,5.51l-9.97 -0.04zm-0.04 2.49c3.46,-0.09 7.56,-0.01 11.14,-0.01 2.24,0 2.07,0.22 2.14,-0.65 0.35,-4.84 -1.89,-9.14 -6.65,-9.7 -4.84,-0.57 -8.07,2.4 -9.26,5.94 -1.57,4.67 -0.27,9.37 2.51,11.58 1.46,1.17 3.36,1.92 5.78,1.96 2.12,0.03 4.85,-0.29 6.51,-1.15 0.02,-0.38 -0.37,-1.99 -0.52,-2.4 -0.38,0.02 -1.7,0.54 -2.34,0.66 -4.67,0.9 -9.12,-0.35 -9.31,-6.23z"/>
   <path class="fil0" d="M177.24 48.33c-0.14,0.16 0.36,0.18 -0.73,0.17l-2.17 0 0 2.43c0.36,0 2.71,-0.11 2.83,0.1 0.12,0.61 0.03,2.37 0.03,3.11 0,1.02 0,2.05 0,3.08 0,3.5 -0.69,8.34 2.63,9.85 1.27,0.57 4.11,0.65 5.4,-0.02l-0.16 -2.55c-4.09,0.65 -4.53,-0.5 -4.53,-4.37 0,-1.77 -0.09,-7.88 0.02,-9.14l4.87 -0.01 0 -2.61 -4.88 -0.01 -0.02 -5.39 -3.33 0.9 0.04 4.46z"/>
   <path class="fil0" d="M78.7 30.19l0 -12.66c0.25,-0.34 1.21,-0.29 1.68,-0.32 4.18,-0.25 7.62,1.57 7.43,6.57 -0.18,4.87 -3.07,6.69 -7.29,6.65 -0.47,0 -1.56,0.12 -1.82,-0.24zm-2.08 -14.33c-0.14,1.21 -0.08,15.8 0.04,16.07 0.74,0.27 4.19,0.25 5.16,0.16 4.62,-0.41 8.08,-2.78 8.2,-8.23 0.08,-3.57 -1.31,-6.1 -3.67,-7.28 -2.52,-1.27 -6.71,-1.31 -9.73,-0.72z"/>
   <path class="fil0" d="M210.15 48.38c0.08,3.14 0.14,6.19 0.14,9.35 0,2.29 -0.1,7.47 0.01,9.4l3.36 0c0.12,-1.69 0.02,-3.73 0.02,-5.46 0,-3.24 -0.53,-6.97 1.71,-9.2 1.15,-1.14 2.13,-1.34 4.19,-1.17l-0.04 -3.23c-1.83,-0.58 -4.21,0.73 -5.33,2.36 -0.67,0.99 -0.58,1.44 -0.95,1.63l-0.11 -3.68 -3 0z"/>
   <path class="fil0" d="M165.36 26.94c-0.52,-4.8 3.39,-6.34 5.58,-4.44 0.69,0.6 1.08,1.53 1.09,2.81 0.01,1.85 0.21,4.58 -2.6,5.17 -2.42,0.51 -3.85,-1.46 -4.07,-3.54zm6.67 -5.16c-0.26,-0.16 -0.3,-0.49 -1,-0.99 -0.38,-0.27 -0.95,-0.52 -1.5,-0.63 -6.73,-1.45 -8.61,9.3 -3.32,11.69 1.98,0.9 4.49,0.35 5.73,-1.43l0.3 -0.36 0.09 1.92 1.92 0.03c-0.08,-2.88 -0.09,-5.7 -0.09,-8.57 0,-2.8 0.12,-5.84 -0.01,-8.6l-2.1 -0.04 -0.02 6.98z"/>
   <path class="fil0" d="M107.13 32.01c2.31,0 1.66,0.46 2.59,-2.22l1.53 -4.62c0.23,-0.75 0.44,-1.87 0.68,-2.49 0.16,0.27 0.52,1.95 0.65,2.4 0.24,0.81 0.48,1.55 0.73,2.35l1.31 4.08c0.2,0.66 0.03,0.5 2.09,0.49l3.8 -11.67 -2.07 -0.03c-0.45,0.75 -2.56,9.46 -2.67,9.63 -0.21,-0.92 -2.42,-8.58 -2.88,-9.61l-1.77 -0.01c-0.59,1.42 -2.9,9.44 -3.04,9.62 -0.39,-2.11 -1.21,-5 -1.78,-7.2 -0.18,-0.68 -0.4,-1.82 -0.66,-2.42l-2.14 0c0.04,0.49 2.65,8.83 3.07,10.27 0.12,0.4 0.21,1.21 0.56,1.43z"/>
   <path class="fil0" d="M223.63 31.99c0.04,-2.19 0.01,-4.4 0.01,-6.59 0,-1.2 0.17,-1.77 0.75,-2.51 1.01,-1.32 4.94,-2.35 5.01,2.6 0.03,2.16 -0.02,4.34 0,6.52l2.13 0c0.02,-1.83 0,-3.67 0,-5.5 0,-1.69 0.06,-3.34 -0.76,-4.64 -1.61,-2.55 -5.03,-2.12 -6.53,-0.5 -0.24,0.25 -0.31,0.5 -0.6,0.72l-0.02 -7.28 -2.11 0.01 0 17.19 2.12 -0.02z"/>
   <path class="fil0" d="M93.64 26.86c-0.56,-6.38 6.47,-6.99 7.07,-1.45 0.26,2.48 -0.87,4.74 -2.85,5.18 -2.44,0.53 -4.03,-1.64 -4.22,-3.73zm2.91 -6.78c-3.34,0.44 -5.34,2.99 -5.09,6.78 0.22,3.31 2.79,5.86 6.48,5.36 7.43,-1.01 6.34,-13.15 -1.39,-12.14z"/>
   <path class="fil0" d="M141.45 27.03c-0.35,-2.49 0.75,-4.84 2.74,-5.29 2.52,-0.56 4,1.38 4.29,3.53 0.85,6.15 -6.22,7.42 -7.03,1.76zm2.51 -6.9c-3.15,0.54 -5.16,3.37 -4.66,7.15 0.41,3.16 3.04,5.59 6.75,4.89 7.16,-1.35 5.94,-13.42 -2.09,-12.04z"/>
   <path class="fil0" d="M191.22 27.11c-0.95,5.69 -8.03,4.18 -6.98,-2.03 0.35,-2.08 1.91,-4 4.45,-3.3 1.87,0.51 2.94,2.91 2.53,5.33zm-4.21 -7.01c-3.3,0.5 -5.31,2.99 -5,6.82 0.26,3.29 2.81,5.84 6.52,5.29 3.23,-0.47 5.28,-3.12 4.93,-6.9 -0.3,-3.24 -2.83,-5.75 -6.45,-5.21z"/>
   <path class="fil0" d="M159.09 25.99c0.04,1.76 0.17,2.94 -0.91,3.93 -0.82,0.75 -2.5,1.17 -3.47,0.26 -1.06,-0.98 -0.58,-2.73 0.36,-3.37 1.05,-0.72 2.56,-0.81 4.02,-0.82zm-5.76 -3.54c1.16,-0.44 2.22,-1.1 3.86,-0.74 1.24,0.26 2.02,1.31 1.82,2.79 -2.03,0.18 -3.29,0.09 -4.99,1 -3.07,1.66 -2.67,6.3 0.95,6.74 2.67,0.32 3.59,-1.21 4.27,-1.67l0.15 1.44 1.94 0c-0.15,-1.84 -0.18,-3.38 -0.18,-5.24 0,-1.65 0.15,-3.44 -0.58,-4.76 -1.54,-2.77 -5.74,-2.2 -7.75,-0.93l0.51 1.37z"/>
   <path class="fil0" d="M235.69 24.98c0.32,-4.44 6.33,-4.65 6.18,0l-6.18 0zm7.23 5.05c-0.89,0.21 -1.34,0.47 -2.42,0.55 -2.68,0.2 -4.81,-0.86 -4.85,-4.06l8.23 -0.05c0.42,-2.79 -0.82,-5.14 -2.64,-5.99 -1.06,-0.5 -2.52,-0.55 -3.67,-0.24 -5.43,1.5 -5.83,12.01 1.82,12.03 1.71,0 2.46,-0.26 3.89,-0.69l-0.36 -1.55z"/>
   <path class="fil0" d="M195.55 20.32c-0.07,0.51 0.08,2.11 0.08,2.77l0.01 8.92 2.12 0c0.06,-2.18 0.01,-4.42 0.01,-6.61 0,-1.07 0.16,-1.84 0.73,-2.47 1.57,-1.74 4.98,-1.92 5.02,2.55 0.03,2.17 -0.03,4.36 0.01,6.53l2.12 -0.03c0.02,-1.85 0.01,-3.7 0.01,-5.55 0,-1.8 0.05,-3.31 -0.81,-4.65 -1.88,-2.94 -6.38,-1.68 -7.2,0.4 -0.22,-0.33 -0.13,-1.23 -0.23,-1.87l-1.87 0.01z"/>
   <path class="fil0" d="M122.04 20.31c-0.09,0.54 0.05,2.19 0.06,2.87l0 8.83 2.13 -0.02c0.03,-2.19 0,-4.4 0,-6.59 0.01,-1.13 0.2,-1.79 0.76,-2.5 1.09,-1.39 4.95,-2.3 5,2.59 0.03,2.16 -0.01,4.33 0.01,6.51l2.12 0.01c0.04,-1.84 0.01,-3.73 0.01,-5.58 0,-1.82 0.05,-3.38 -0.86,-4.72 -1.22,-1.77 -3.98,-2.25 -5.94,-0.86 -1.02,0.71 -1.08,1.22 -1.3,1.34l-0.16 -1.88 -1.83 0z"/>
   <path class="fil0" d="M212.92 21.93l1.77 0.01c-0.01,1.35 -0.08,6.73 0.09,7.7 0.47,2.77 2.8,3.02 4.94,2.35l-0.09 -1.58c-1.83,0.07 -2.85,0.55 -2.85,-2.7 0,-1.92 0.01,-3.85 0,-5.78l3.06 -0.02 -0.01 -1.6 -3.05 -0.01 -0.02 -3.36 -2.07 0.56 0 2.81 -1.82 0.01 0.05 1.61z"/>
   <polygon class="fil0" points="134.97,31.99 136.99,32.03 137.01,14.83 134.97,14.84 "/>
   <g>
    <path class="fil0" d="M30.35 17.9c3.59,0.03 6.36,-0.76 8.75,-3.03l1.04 -0.93c0.2,-0.26 0.17,-0.28 0.41,-0.53 2.01,-2.01 3.78,-5.43 4.23,-8.53 0.06,-0.43 0.38,-3.4 0.02,-3.65 -0.39,-0.27 -2.83,0.4 -3.22,0.55 -1.63,0.58 -3.8,1.65 -5.15,2.72 -0.42,0.33 -0.7,0.62 -1.06,0.91 -1.44,1.21 -3.17,3.76 -4.02,5.73 -1.1,2.55 -1.08,4.18 -1,6.76z"/>
    <path class="fil0" d="M59.88 54.23c-0.47,-0.32 -1.21,-0.61 -1.88,-1.01 -1.72,-1.02 -3.31,-2.48 -4.54,-4.02 -3.83,-4.79 -4.28,-12.6 -1.21,-17.67 1.42,-2.34 3.45,-4.36 5.78,-5.68 -0.16,-0.52 -1.78,-2.36 -2.24,-2.75 -3.01,-2.6 -6.06,-4.04 -10.26,-4.46 -4.09,-0.41 -7.13,0.78 -10.78,2.14 -0.8,0.3 -1.6,0.57 -2.43,0.83 -1.15,0.37 -1.54,0.41 -2.73,0.06 -0.88,-0.26 -1.62,-0.52 -2.44,-0.81 -1.75,-0.64 -2.99,-1.19 -4.86,-1.65 -2.91,-0.74 -5.58,-0.57 -8.47,0.4 -2.2,0.75 -4.5,2.15 -6.18,3.66 -2.98,2.68 -4.97,6.5 -5.92,10.42 -0.43,1.8 -0.68,3.75 -0.68,5.82 0,2.31 0.04,4.09 0.34,6.18 1.06,7.44 4.12,14.79 8.69,20.72 1.96,2.55 5.31,7.02 9.37,7.02 4.45,-0.01 6.2,-2.08 10.36,-2.7 4.88,-0.73 6.97,1.03 10.63,2.1 7.26,2.13 10.58,-2.86 14.11,-7.71 0.47,-0.65 0.85,-1.26 1.3,-1.96 0.64,-1.03 1.76,-3.09 2.27,-4.23 0.36,-0.79 1.74,-3.99 1.77,-4.7z"/>
   </g>
   <path class="fil0" d="M134.97 31.99l0 -17.15 2.04 -0.01 -0.02 17.2c0.2,-0.32 0.11,-1.72 0.11,-2.09 0,-0.72 0,-1.43 0,-2.14 0,-2.22 0.09,-11.59 -0.02,-13.02 -0.48,-0.1 -1.69,-0.11 -2.15,0 -0.14,0.42 -0.05,13.71 -0.06,16.7 0,0.52 0,0.39 0.1,0.51z"/>
   <path class="fil0" d="M177.17 51.03c-0.12,-0.21 -2.47,-0.1 -2.83,-0.1l0 -2.43 2.17 0c1.09,0.01 0.59,-0.01 0.73,-0.17l-2.92 0.03c-0.13,0.46 -0.07,2.09 -0.04,2.66l2.89 0.01z"/>
  </g>
 </g>
</svg>
