<?xml version="1.0" encoding="UTF-8"?>
<!DOCTYPE svg PUBLIC "-//W3C//DTD SVG 1.1//EN" "http://www.w3.org/Graphics/SVG/1.1/DTD/svg11.dtd">
<!-- Creator: CorelDRAW 2017 -->
<svg xmlns="http://www.w3.org/2000/svg" xml:space="preserve" width="190px" height="190px" version="1.1" style="shape-rendering:geometricPrecision; text-rendering:geometricPrecision; image-rendering:optimizeQuality; fill-rule:evenodd; clip-rule:evenodd"
viewBox="0 0 190 190"
 xmlns:xlink="http://www.w3.org/1999/xlink">
 <defs>
  <style type="text/css">
   <![CDATA[
    .fil1 {fill:black}
    .fil0 {fill:#E49B0E}
   ]]>
  </style>
 </defs>
 <g id="Layer_x0020_1">
  <metadata id="CorelCorpID_0Corel-Layer"/>
  <g id="_1806330741168">
   <g>
    <path class="fil0" d="M185.06 74.65c-0.61,-1.24 -1.21,-5.6 -2.14,-6.93 -3.63,13.43 -0.42,13.37 4.13,21.43 0.43,-2 -1.04,-5.43 -0.26,-8.25 0.41,-1.5 2.46,-8.49 2.42,-9.38 -1.12,0.79 -3.1,2.69 -4.15,3.13z"/>
    <path class="fil0" d="M14.04 143.66c-1.09,0.28 -4.91,-0.67 -5.99,-0.55 -0.45,0.04 -0.27,0.03 -0.44,0.1 1.95,1.58 6.92,3.95 9.35,5.41 1.64,0.99 3.86,5.4 5.71,6.91 -0.08,-2.09 -1.85,-8.88 -2.61,-10.44 -1.09,-2.25 -6.45,-6.41 -9.38,-7.89 0.32,1.02 1.04,2.22 1.57,3.18 0.47,0.87 1.52,2.42 1.79,3.28z"/>
    <path class="fil0" d="M8.79 46.26l5.36 1.07c-0.75,1.64 -2.28,3.69 -2.71,5.25 5.33,-4.44 8.99,-3.7 11.04,-12.16 0.34,-1.4 1.32,-5 1.24,-6.11 -1.09,1.34 -2.19,2.58 -3.25,3.97 -4.34,5.62 -1.33,2.7 -7.55,5.97 -1.16,0.6 -3.21,1.32 -4.13,2.01z"/>
    <path class="fil0" d="M135.71 178.92c0.84,-0.11 0.78,-0.26 1.86,-0.81l5.25 -2.87c0.38,0.76 0.91,5.87 1.18,7.25 0.88,-1.98 2.04,-9.03 3.1,-10.13 0.73,-0.76 5.32,-3.57 6.92,-5.35 -2.39,0.25 -8.3,1.54 -10.42,2.59 -2.56,1.27 -6.12,6.28 -7.89,9.32z"/>
    <path class="fil0" d="M106.67 5.73c2.59,2.13 5.87,3.19 8.83,2.85 0.75,-0.09 7.12,-1.03 8,-1.44 -2.86,-1.27 -6.37,-1.58 -8.92,-2.65l2.17 -3.34c-0.97,-0.06 -5.5,1.43 -6.87,1.85 -2.72,0.82 -5,-0.56 -7.8,-0.26l4.59 2.99z"/>
    <path class="fil0" d="M34.18 24.15c1.31,-0.06 3.94,-0.7 5.37,-0.99 1.87,-0.38 3.66,-0.83 5.12,-1.62 2.51,-1.34 6.12,-6.33 7.83,-9.33 -1.51,0.31 -7.66,4.11 -9.45,5.31 -2.45,1.65 -6.79,4.42 -8.87,6.63z"/>
    <path class="fil0" d="M1.14 87.6c1.39,-1.4 5.64,-8.08 5.93,-10.95 0.28,-2.72 -0.83,-8.1 -1.39,-10.6 -2.4,4.92 -4.08,16.44 -4.54,21.55z"/>
    <path class="fil0" d="M5.19 123.63c0.96,-2.81 1.97,-9.66 1.38,-11.93 -0.52,-1.98 -4.05,-8.01 -5.43,-9.43 -0.47,2.97 2.44,17.8 4.05,21.36z"/>
    <path class="fil0" d="M64.47 183.95c3.98,2.22 17.25,4.25 21.65,4.59 -2.52,-1.94 -7.93,-5.65 -11.08,-5.95 -3.58,-0.35 -7.26,1.06 -10.57,1.36z"/>
    <path class="fil0" d="M100.6 188.6c3.57,0.28 19.42,-2.79 21.46,-4.15 -3.43,-0.93 -9.32,-2.09 -12.12,-1.24 -2.25,0.68 -4.99,2.46 -7.1,3.89 -0.75,0.51 -1.57,0.93 -2.24,1.5z"/>
    <path class="fil0" d="M65.95 6.65c1.65,0.75 9.31,2.11 12.11,1.38 1.99,-0.51 8.03,-4.06 9.54,-5.48 -3.73,0.2 -7.54,0.74 -11.02,1.43 -1.83,0.36 -3.75,0.77 -5.46,1.19 -0.98,0.24 -1.64,0.42 -2.6,0.71 -0.45,0.13 -2.2,0.75 -2.57,0.77z"/>
    <path class="fil0" d="M164.4 156.88c2.55,-2.59 11.37,-14.67 12.36,-18.33 -0.62,0.8 -6.16,3.72 -8.38,6.21 -2.12,2.38 -3.64,8.98 -3.98,12.12z"/>
    <path class="fil0" d="M165.55 35.66c-0.04,1.56 1.59,8.73 2.58,10.56 1.32,2.43 6.46,6.11 9.41,7.86 -0.81,-2.18 -3.92,-7.29 -5.36,-9.49 -2.01,-3.11 -4.17,-5.96 -6.63,-8.93z"/>
    <path class="fil0" d="M185.42 105.97c-6.73,8.79 -4.01,11.39 -2.94,19.25 1.6,-3.57 3.32,-11.87 3.9,-16.07 0.2,-1.42 0.3,-4.18 0.8,-5.31 -0.61,0.19 0.03,-0.24 -0.63,0.37 -0.06,0.06 -0.37,0.51 -0.43,0.61 -0.22,0.33 -0.49,0.77 -0.7,1.15z"/>
    <path class="fil0" d="M32.78 165.87c2.32,2.37 14.99,11.65 18.34,12.38 -0.9,-0.71 -3.6,-5.97 -6.22,-8.37 -2.65,-2.42 -8.64,-3.3 -12.12,-4.01z"/>
    <path class="fil0" d="M137.66 13.76c0.09,0.16 0.22,0.31 0.36,0.5 6.51,9.06 3.8,7.92 17.33,11.1 -4.01,-3.79 -12.36,-9.89 -18.03,-12.37l0.34 0.77z"/>
   </g>
   <path class="fil1" d="M151.31 82.98c0.03,0 9.58,12.11 13.4,12.02l0.47 -4.05c1.13,1.23 0.6,1.59 3.91,4.62 1.5,1.37 2.93,2.53 4.26,4.1 0.95,1.12 3.26,3.64 3.74,4.89 0.54,1.38 0.49,3.83 0.74,5.91 0.12,0.97 -0.14,1.33 -1.17,0.31 -1.31,-1.3 -2.16,-3 -6.12,-4.74 -3.31,-1.47 -5.58,-2.37 -8.36,-4.83 -3.76,-3.32 -11.01,-13.27 -10.87,-18.23zm-53.48 -80.12c-3.38,-1.12 -5.83,-0.27 -7.91,0.78 -10.16,5.17 -7.82,8.26 -22.19,5.42 -10.15,-2.01 -11.58,1.51 -16.7,8.72 -0.78,1.1 -2.08,2.44 -2.67,3.35 -0.59,0.92 -1.04,6.96 -1.46,8.67 -1.2,-1.31 -2.65,-3.88 -3.68,-5.43l-6.65 1.35c-11.63,2.5 -9.66,6.65 -12.65,16.84 -3.47,11.86 -18.39,9.1 -16.21,23.58 0.64,4.28 2.56,9.47 0.16,14.53 -2.19,4.63 -7.49,9.54 -7.05,14.9 0.42,5.1 5.58,9.68 7.45,15.12 0.52,1.49 0.62,1.52 1.6,3.05 0.91,1.41 3.05,4.48 3.62,5.84l-5.02 -1.21c-0.88,1.1 -1.59,7.85 -1.5,9.22 0.19,2.94 1.37,5.02 3.97,7.21 6.45,5.43 10.3,5.55 12.13,12.92 0.67,2.68 1.08,5.41 1.76,8.12 3.12,12.39 16.28,5.41 23.37,14.79 2.97,3.92 5.85,11.21 12.85,11.55 5.62,0.28 11.7,-3.16 17.6,-0.61 6.86,2.97 10.44,9.16 17.94,6.74 2.77,-0.89 7.1,-4.37 10.82,-6.2 2.05,-1.01 2.52,-0.77 4.02,-1.23l0.25 -6.1c1.06,0.76 3.87,4.38 4.75,5.51 1.26,1.63 1.35,1.32 3.46,1.74 8.56,1.7 10.82,0.67 16.13,-7 4.11,-5.95 5.91,-7.59 11.53,-8.76 4.33,-0.9 10.09,-1.26 12.94,-5.33 3.23,-4.61 2.3,-11.99 5.78,-16.7 2.73,-3.69 8.03,-5.72 11.43,-9.02 3.99,-3.86 3.07,-8.87 2.27,-12.95 -0.72,-2.45 -1.73,-5.3 -7.27,-3.14 0.52,-4.87 3.67,-3.62 -3.59,-7.16 -7.14,-3.48 -9.41,0.47 -10.44,0.29 -0.62,-1.2 2.55,-5.17 3.99,-5.84 2.55,-1.19 5.48,-0.37 7.78,0.97 2.06,1.19 4.02,2.85 5.67,4.55 0.66,0.67 1.45,1.79 2.17,2.97 0.74,1.2 1.02,-1.58 1.07,-1.8 1.29,-5.51 7.27,-10.28 7.91,-15.94 0.53,-4.74 -2.66,-7.93 -5.6,-12.92 -4.34,-7.35 -1.31,-9.42 -0.52,-18.42 0.68,-7.77 -4.26,-9.47 -10.64,-14.31 -6,-4.55 -5.29,-8.73 -7.02,-15.61 -2.11,-8.35 -6.57,-7.84 -15.61,-10.27 -8.4,-2.25 -9.08,-7.98 -13.38,-12.84 -5.39,-6.09 -12.06,-3.21 -17.62,-2.42 -9.25,1.31 -12.39,-5.35 -19.04,-7.52zm48.74 101.99c-0.33,-0.18 -4.91,-0.29 -5.77,-0.37 -1.9,-0.18 -5.86,1.3 -6.63,1.07 -0.61,-0.85 2.7,-1.92 0.5,-3.1 -4.28,-2.3 -6.78,-4.62 -9.47,-8.89 0.77,0.02 5.05,2.51 6.13,3.01 2.28,1.06 4.67,1.51 6.69,2.28l-0.66 -4.5c1.19,-0.19 1.38,2.51 4.7,3.04 5.93,0.94 13.47,-3.58 17.56,3.33 -2.79,-0.07 -5.93,-1.15 -8.78,-0.18 1.33,0.91 9.37,0.75 13.33,3.82 -3.09,1.93 -6.35,-1.07 -10.25,-0.36 -1.93,0.36 -3.5,1.17 -5.14,2.2 -4.08,2.54 -1.27,-0.03 -2.21,-1.35zm7.36 -30.34c-9.64,-8.76 -22.54,-13.84 -37.07,-15.17l0.82 -2.65c18.06,1.83 31.38,8.79 36.95,15.61l-0.7 2.21zm-50.66 -15.34c-9.14,0.57 -18.69,2.48 -28.28,5.75 -6.4,0.94 -3.6,4.15 -6.81,6.53 -0.14,-0.12 -0.91,-4.72 -1.19,-5.54 -0.63,-1.82 -3.06,-4.6 -3.2,-5.11 1.09,-0.21 5.26,2.33 6.89,2.5 12.18,-4.53 23.68,-6.62 34.08,-7.01l-1.49 2.88zm-38.02 11.54c-2.14,0.95 -4.95,4.56 -5.76,6.7 -0.43,1.13 -2.11,7.14 -1.2,7.9 0.6,-0.54 1.62,-2.67 2.58,-3.71 0.9,-0.97 2.07,-2.17 2.73,-3.3 0.93,-1.58 2.3,-5.83 1.65,-7.59zm-13.02 12l0.06 3.62c0.22,-0.05 3.88,-2.26 4,-2.44 0.69,-1.06 -3.45,-1.24 -4.06,-1.18zm5.32 -5.54l-4.25 -0.47c-1.19,2.89 -1.76,4.22 1.33,4.63 1.65,0.22 1.8,0.52 2.18,-1.06 0.17,-0.68 0.75,-2.55 0.74,-3.1zm5.97 -12.3l-5.9 4.35c0.53,0.65 4.68,-0.06 5.58,-0.2 1.11,-0.17 2.07,-0.1 1.52,-1.54 -0.24,-0.62 -0.82,-2.12 -1.2,-2.61zm-1.78 6.25l-5.64 0.02 -2.23 3.88c0.84,0.24 4.01,0.64 4.52,0.26 0.22,-0.16 3.11,-3.79 3.35,-4.16zm-11.31 11.18l-4.15 -1.32c-0.8,1.99 0.54,2.44 2.09,2.98 1.98,0.67 2.43,0.69 2.06,-1.66zm1.1 -5.98l-3.92 -1.36c-0.4,0.46 -0.87,2.45 -1,3.11 -0.29,1.52 0.77,1.58 2.05,1.92 1.7,0.45 1.98,1.11 2.25,-0.61 0.13,-0.83 0.62,-2.36 0.62,-3.06zm-9.69 2.6l2.44 2.91c1.05,-1.69 -1.04,-2.36 -2.44,-2.91zm12.38 -8.11l-4.12 -1.19 -1.98 3.69c0.21,0.12 3.79,1.34 3.94,1.34 0.63,0.01 1.86,-3.03 2.16,-3.84zm5.14 -5.54c-0.99,-0.31 -3.39,-0.4 -4.6,-0.59 -1.39,-0.21 -3.02,2.12 -3.73,3.3 0.86,0.42 4.04,1.48 4.69,0.94 0.49,-0.4 3.35,-3.2 3.64,-3.65zm-12.58 -7.67c-0.14,2.91 12.85,7.77 15.13,5.58 1.31,-1.25 -6.06,-4.14 -7.26,-4.4 -1.28,-0.28 -2.59,-0.23 -3.9,-0.33 -0.99,-0.08 -3.61,-0.89 -3.97,-0.85zm-1.91 9l-2.03 3.71 3.61 2.38c2.73,-4.54 2.44,-3.67 -1.58,-6.09zm7.32 -2.73l-3.8 -2.09 -2.66 3.29c3.87,2.34 3.05,3.53 6.46,-1.2zm-7.52 14.64l1.24 -4.25 -3.65 -2.06c-0.18,0.45 -1.22,3.49 -1.26,3.82 -0.09,0.81 2.82,2.16 3.67,2.49zm-2.73 -17.4c2.22,3.31 2.41,3.38 4.47,0.27 1.33,-1.99 -0.57,-1.21 -1.5,-0.85 -1.49,0.56 -1.83,0.29 -2.97,0.58zm-2.29 12.97l1.06 -3.13 -1.19 -0.99 0.13 4.12zm2.3 -10.11l-2.11 3.79 1.47 1.55c0.41,-0.55 1.31,-2.28 1.7,-2.97 0.73,-1.3 -0.3,-1.26 -1.06,-2.37zm-10.09 9.51l-6.71 1.84 0.27 1.74 6.86 -0.46 -6.32 2.81 0.59 1.77 6.63 -1.36 -5.67 3.48 0.82 1.78 6.35 -2.46 -5.19 4.43 1.06 1.43 6.23 -3.43 -4.69 5.13 1.2 1.28 9.53 -7.24c-0.31,-0.84 -5.55,-4.42 -5.93,-10.45 -0.05,-0.83 0.29,-3.54 -0.02,-4.05l-11.79 1.72c-1.74,2.95 5.2,1.51 6.78,2.04zm53.82 -9.38l-0.08 0.02c-2.97,0.72 -5.97,1.58 -9,2.59l8.02 25.96c0.94,-1.63 1.88,-3.36 2.82,-5.19l5.18 -9.99 -6.94 -13.39zm-11.26 -4.45c2.64,-0.87 5.23,-1.62 7.78,-2.27l-15.48 -29.87 -0.74 1.9c-0.14,0.37 -0.26,0.7 -0.3,1.12 -0.04,0.41 0.01,0.87 0.19,1.46l8.55 27.66zm-8.45 84.01c-0.16,0.19 -0.33,0.37 -0.51,0.54 -2.18,2.19 -4.94,3.38 -7.63,3.53 -2.66,0.15 -5.25,-0.71 -7.15,-2.61 -1.9,-1.9 -2.76,-4.49 -2.61,-7.15 0.15,-2.69 1.34,-5.45 3.53,-7.63 2.18,-2.19 4.94,-3.37 7.63,-3.53 2.66,-0.15 5.25,0.71 7.15,2.61 0.71,0.7 1.27,1.5 1.69,2.37l0 0c0.71,1.46 1.02,3.11 0.92,4.78 -0.14,2.47 -1.16,5 -3.02,7.09zm28.47 -49.72c-1.82,0 -3.29,1.47 -3.29,3.28 0,1.82 1.47,3.29 3.29,3.29 1.82,0 3.29,-1.47 3.29,-3.29 0,-1.81 -1.47,-3.28 -3.29,-3.28zm44.1 37.85l0 0c-0.38,-0.51 -0.79,-0.99 -1.25,-1.45 -2.19,-2.19 -4.94,-3.37 -7.64,-3.53 -2.65,-0.15 -5.25,0.71 -7.15,2.61 -1.9,1.9 -2.76,4.49 -2.6,7.15 0.15,2.69 1.34,5.45 3.52,7.63 2.18,2.19 4.94,3.38 7.64,3.53 2.65,0.15 5.25,-0.71 7.15,-2.61 0.45,-0.45 0.84,-0.94 1.17,-1.46l0 0 0 0c1.08,-1.67 1.55,-3.66 1.43,-5.69 -0.12,-2.12 -0.88,-4.29 -2.27,-6.18zm6.04 0c0.2,0.41 0.38,0.84 0.54,1.26 1.22,3.21 1.59,7.31 0.37,10.61 -0.66,2.01 -1.76,3.86 -3.32,5.42 -2.66,2.67 -6.19,4 -9.86,4.06 -3.44,0.05 -7.01,-1.02 -10.1,-3.19l-0.31 0.31c0,0.11 -0.01,0.21 -0.03,0.31 -0.05,0.34 -0.19,0.63 -0.43,0.86 -0.52,0.52 -1.31,0.58 -2.17,0.24 -0.63,-0.24 -1.33,-0.71 -1.97,-1.35l0 0c-0.63,-0.63 -1.1,-1.34 -1.35,-1.96 -0.33,-0.86 -0.28,-1.66 0.24,-2.18l0 0c0.24,-0.23 0.53,-0.37 0.86,-0.43 0.1,-0.01 0.21,-0.02 0.31,-0.02l0.32 -0.32c-2.17,-3.09 -3.25,-6.66 -3.2,-10.1 0.06,-3.67 1.4,-7.19 4.06,-9.85l0.01 0c0.09,-0.1 0.19,-0.2 0.3,-0.3 -5.76,-7.57 -14.37,-13.51 -21.01,-17.35 2.51,-1.27 4.12,-1.94 4.18,-1.97l0.09 -0.04 1.71 -0.73 0.57 -1.84 0.87 -2.81c1.57,2.36 3.2,4.55 4.92,6.66 4.14,5.05 8.86,9.61 14.9,14.74 2.62,-0.64 5.44,-0.55 8.16,0.24 2.78,0.81 5.47,2.35 7.72,4.6 1.55,1.55 2.75,3.29 3.62,5.13l0 0zm-43.28 -29.51l21.71 -70.29c0.19,-0.59 0.23,-1.05 0.19,-1.46 -0.04,-0.42 -0.15,-0.75 -0.3,-1.12l-0.73 -1.9 -31.85 61.45c-3.79,7.31 -7.4,12.97 -11.62,18.12 -4.13,5.05 -8.86,9.61 -14.89,14.74 -2.62,-0.64 -5.44,-0.55 -8.17,0.24 -2.78,0.81 -5.46,2.35 -7.72,4.6 -1.89,1.9 -3.28,4.09 -4.16,6.39 -0.91,2.39 -1.26,4.91 -1.04,7.33l0.02 0.21c0.34,3.75 0.5,5.52 -6.1,11.02l-0.68 0.57 0.05 0.06c-0.06,0.09 -0.11,0.17 -0.17,0.27 -0.21,0.39 -0.33,0.85 -0.33,1.48 0,0.69 0.3,1.38 0.75,1.88 0.48,0.53 1.15,0.89 1.83,0.89 0.52,0 0.85,-0.05 1.1,-0.15l0.05 0.07 0.73 -0.56c0.68,-0.54 1.31,-1.07 1.95,-1.62 2.66,-2.27 5.37,-4.57 7.57,-3.28 3,1.74 6.57,2.3 10.09,1.69 3.42,-0.59 6.8,-2.28 9.56,-5.03 1.28,-1.29 2.34,-2.71 3.15,-4.22l0 0c1.45,-2.65 2.16,-5.54 2.11,-8.35 -0.02,-1.2 -0.17,-2.38 -0.47,-3.52l0 0c-0.6,-2.36 -1.79,-4.54 -3.59,-6.33 -0.08,-0.09 -0.18,-0.18 -0.31,-0.3 10.57,-13.88 30.69,-22.28 30.75,-22.31l0.39 -0.16 0.13 -0.41z"/>
  </g>
 </g>
</svg>
