<?xml version="1.0" encoding="UTF-8"?>
<!DOCTYPE svg PUBLIC "-//W3C//DTD SVG 1.1//EN" "http://www.w3.org/Graphics/SVG/1.1/DTD/svg11.dtd">
<!-- Creator: CorelDRAW 2017 -->
<svg xmlns="http://www.w3.org/2000/svg" xml:space="preserve" width="270px" height="64px" version="1.1" style="shape-rendering:geometricPrecision; text-rendering:geometricPrecision; image-rendering:optimizeQuality; fill-rule:evenodd; clip-rule:evenodd"
viewBox="0 0 270 64"
 xmlns:xlink="http://www.w3.org/1999/xlink">
 <defs>
  <style type="text/css">
   <![CDATA[
    .fil0 {fill:white}
    .fil1 {fill:white;fill-rule:nonzero}
   ]]>
  </style>
 </defs>
 <g id="Layer_x0020_1">
  <metadata id="CorelCorpID_0Corel-Layer"/>
  <g id="_1806319813824">
   <path class="fil0" d="M173.31 25.42c-0.2,-0.32 -0.38,-0.2 -0.92,-0.2 -0.36,0 -0.73,0.01 -1.1,0.01 -0.76,0 -1.54,-0.06 -2.29,0.05 -0.2,0.98 -0.17,27.86 0.01,28.59 0.53,0.07 3.86,0.3 4.29,-0.15l0.01 -28.3zm-74.94 -12.2c-0.23,-0.22 0.43,-0.23 -1.36,-0.22l-4.8 0 0 -3.79 5.55 -0.03 0 -1.93c-0.47,-0.51 -1.97,-0.25 -2.64,-0.25 -0.99,0 -1.98,0 -2.97,0l0 -3.8 6.23 0.03 0.02 -2.17 -8.59 -0.04 -0.01 13.83c0.05,0.26 0.08,0.25 0.15,0.37l8.43 -0.01 -0.01 -1.99zm3.9 24.79l-13.99 -0.03 -0.04 4.12 9.97 0.02c-1.24,10.95 -17.39,10.83 -20.46,0.47 -1.7,-5.74 1.3,-10.4 4.53,-12.47 4.41,-2.82 10.36,-1.86 13.47,1.14l2.93 -2.86c-2.22,-1.97 -4.94,-3.84 -9.21,-4.1 -12.25,-0.77 -20.32,11.42 -15.21,21.62 5.27,10.51 20.01,11.25 25.87,2.83 1.72,-2.48 3.12,-6.93 2.14,-10.74zm53.54 1c3.44,-0.88 5.85,1.8 6.3,4.62 0.56,3.48 -1.37,6.36 -4.14,6.9 -6.9,1.36 -9.37,-9.67 -2.16,-11.52zm6.04 13.25c0.83,6.87 -4.72,8.15 -7.71,6.44 -1.48,-0.84 -1.86,-1.91 -2.48,-2.73 -0.6,0.14 -3.33,1.24 -3.71,1.57 3.78,7.69 13.04,6.79 16.29,2.09 2.17,-3.14 1.77,-7 1.77,-11.18 0,-4.04 0.24,-8.91 -0.03,-12.85l-4.06 0 -0.02 1.57c-0.85,-0.35 -1.44,-1.81 -4.58,-2.12 -8.92,-0.85 -14.87,12.05 -5.36,18.12 1.33,0.85 3.43,1.45 5.36,1.26 2.61,-0.26 3.15,-1.22 4.53,-2.17zm45.5 -23l5.71 0c7.42,0 7.11,9.8 0.15,9.8l-5.86 0 0 -9.8zm0.07 13.8c4.49,-0.21 11.55,1.14 14.61,-5.1 2.34,-4.76 -0.17,-10.84 -6.08,-12.34 -2.4,-0.6 -10,-0.43 -12.85,-0.32l-0.05 28.36c0.19,0.47 0.78,0.26 2,0.26 0.76,0 1.53,0.05 2.28,-0.04 0.35,-1.36 0.09,-8.84 0.09,-10.82zm37.38 2.99c-0.68,5.06 -6.73,5.48 -8.14,3.3 -1.28,-1.97 0.72,-3.57 2.37,-3.98 2.63,-0.65 3.72,0.03 5.77,0.68zm-12.27 -6.67l3.79 1.54c2.72,-4.12 8.93,-1.61 8.43,1.82 -5.21,-2.64 -13.5,-0.08 -12.72,6.19 0.36,2.85 2.61,4.67 5.27,5.28 2.24,0.52 4.48,0.13 6.17,-1.25 0.58,-0.47 0.74,-0.9 1.31,-1.33l0.04 2.16 4.17 0.03c0,-3.33 -0.01,-6.63 0,-9.92 0,-3.51 -0.81,-5.54 -2.77,-7.09 -4.25,-3.35 -12.04,-1.98 -13.69,2.57zm-124.18 5.93c-0.58,-8.05 10.56,-8.68 11.06,-1.06 0.53,8.01 -10.52,8.5 -11.06,1.06zm3.5 -10.07c-12.9,2.87 -8.63,21.68 4.14,19.02 4.77,-0.99 8.86,-5.54 7.55,-11.62 -1.2,-5.58 -6.68,-8.51 -11.69,-7.4zm18.15 10.7c-1.37,-8.12 9.69,-9.66 10.91,-2.3 1.31,7.97 -9.7,9.5 -10.91,2.3zm3.47 -10.72c-4.85,0.93 -8.91,5.43 -7.72,11.5 0.93,4.75 5.8,8.8 11.77,7.54 4.75,-1 8.73,-5.4 7.64,-11.4 -0.89,-4.86 -5.71,-8.8 -11.69,-7.64zm46.23 9.16c0.03,-2.6 1.34,-4.3 3.12,-5.12 2.16,-0.99 4.82,-0.36 5.61,1.5 -0.54,0.44 -7.69,3.35 -8.73,3.62zm13.6 5.8c-0.41,-0.39 -2.77,-1.99 -3.36,-2.2 -0.3,0.57 -1.19,1.48 -1.86,1.87 -0.81,0.47 -1.85,0.8 -2.97,0.78 -2.62,-0.04 -3.78,-1.31 -4.66,-2.93l13.1 -5.39c-3.47,-10.91 -16.71,-8.78 -18.04,0.92 -1.27,9.31 8.92,14.32 15.76,9.19 0.63,-0.48 1.69,-1.54 2.03,-2.24zm75.65 -14.6c-5.39,0 -4.63,-0.46 -5.38,1.51l-3.14 7.86c-0.25,0.62 -0.85,2.62 -1.37,3.02l-5.09 -12.39 -4.66 0c0.36,1.11 1.01,2.31 1.48,3.42 0.5,1.15 1,2.27 1.5,3.36l4.52 10.11c0.26,0.81 -0.85,2.72 -1.22,3.49 -0.47,0.98 -2.8,5.86 -2.92,6.58l4.45 -0.04 11.83 -26.92zm-43.69 18.29l4.32 0 0.01 -28.59 -4.33 0 0 28.59zm-72.83 -38.66l2.24 0 -0.01 -10.54 3.36 5.23c3.91,6.04 2.54,5.31 5.58,5.31l0 -14.16 -2.22 0 -0.01 10.02 -4.77 -7.45c-0.53,-0.82 -1.22,-1.81 -1.62,-2.57l-2.52 0 -0.03 14.16zm-64.85 -7.78l-7.16 0 0 2.03 4.98 0.08c-0.41,4.97 -8.43,5.22 -9.73,0.1 -1.02,-4.05 2.09,-7.25 5.91,-6.68 1.53,0.23 2.01,1 2.86,1.57 0.58,-0.29 1.18,-0.88 1.47,-1.46 -1.19,-2.17 -6.19,-3.33 -9.47,-1.09 -2.32,1.59 -4.44,5.32 -2.57,9.3 3.23,6.84 14.89,5.35 13.71,-3.85zm54.25 -4.39c3.18,-0.78 5.63,1.35 6.15,3.85 0.66,3.23 -1.24,5.77 -3.74,6.35 -6.71,1.56 -8.92,-8.6 -2.41,-10.2zm0.02 -2.2c-3.79,0.54 -6.82,4.05 -6.1,8.55 1.5,9.45 16.16,7.41 14.53,-2.57 -0.6,-3.69 -4,-6.61 -8.43,-5.98zm-21.58 2.34l3.89 0.02 0 12.02 2.23 0 0 -12.01 3.86 -0.02 0.03 -2.13 -9.99 -0.01 -0.02 2.13zm-14.38 11.82l0.02 -11.81 3.83 0 0.05 -2.14 -9.98 0 -0.02 2.14 3.8 0.01c0,1.79 -0.2,11.07 0.11,12.02 0.54,0.06 1.88,0.27 2.19,-0.22zm12.41 -13.96l-1.87 0.01c-0.23,1.05 -0.09,11.96 -0.09,14l2.06 0c0.01,-2.03 0.15,-12.97 -0.1,-14.01z"/>
   <g>
    <path class="fil1" d="M38.19 43.08l-9.16 5.29 -22.86 13.19c-0.64,0.37 -1.35,0.51 -2.02,0.44l26.48 -26.48 7.56 7.56z"/>
    <path class="fil1" d="M51.89 35.17l-9.3 5.36 -8.49 -8.49 8.27 -8.26 9.52 5.49c1.62,0.93 2.19,3.02 1.25,4.64 -0.31,0.55 -0.75,0.97 -1.25,1.26z"/>
    <path class="fil1" d="M4.46 2.4l0.01 0c0.74,0 1.42,0.24 1.98,0.64l22.58 13.03 8.94 5.16 -7.34 7.34 -26.17 -26.17z"/>
    <polygon class="fil1" points="1.05,58.15 1.05,32.22 1.05,5.94 27.15,32.04 "/>
   </g>
  </g>
 </g>
</svg>
