<?xml version="1.0" encoding="UTF-8"?>
<!DOCTYPE svg PUBLIC "-//W3C//DTD SVG 1.1//EN" "http://www.w3.org/Graphics/SVG/1.1/DTD/svg11.dtd">
<!-- Creator: CorelDRAW 2017 -->
<svg xmlns="http://www.w3.org/2000/svg" xml:space="preserve" width="500px" height="340px" version="1.1" style="shape-rendering:geometricPrecision; text-rendering:geometricPrecision; image-rendering:optimizeQuality; fill-rule:evenodd; clip-rule:evenodd"
viewBox="0 0 500 340"
 xmlns:xlink="http://www.w3.org/1999/xlink">
 <defs>
  <style type="text/css">
   <![CDATA[
    .fil2 {fill:#E49B0E}
    .fil1 {fill:black}
    .fil4 {fill:#E49B0E}
    .fil0 {fill:white}
    .fil3 {fill:white}
   ]]>
  </style>
 </defs>
 <g id="Layer_x0020_1">
  <metadata id="CorelCorpID_0Corel-Layer"/>
  <g id="_1806330717040">
   <path class="fil0" d="M294.81 9.64c8.22,3.73 14.27,10.68 21.13,15.96 6.85,5.28 15.37,8.85 20.74,15.37 5.38,6.53 7.29,15.37 11.07,22.84 3.78,7.47 9.18,14.39 11.25,22.51 2.07,8.11 1.82,16.75 2.08,25.2 0.25,8.45 0.36,17.08 -1.32,25.56 -1.68,8.49 -6.3,16.15 -10.03,24.37 -3.73,8.22 -5.33,17.61 -10.61,24.46 -5.28,6.85 -14.02,10.31 -20.55,15.69 -6.53,5.37 -12.26,11.67 -19.73,15.45 -7.48,3.78 -15.83,5.02 -23.94,7.09 -8.11,2.08 -16.03,5.85 -24.48,6.1 -8.45,0.25 -16.77,-2.84 -25.25,-4.52 -8.49,-1.68 -17.3,-2.75 -25.51,-6.48 -8.22,-3.73 -15.02,-9.4 -21.88,-14.68 -6.85,-5.28 -14.77,-9.46 -20.15,-15.98 -5.37,-6.53 -7.25,-15.37 -11.03,-22.85 -3.78,-7.47 -8.89,-14.37 -10.97,-22.49 -2.07,-8.11 -1.97,-16.64 -2.22,-25.09 -0.25,-8.45 -1,-17.11 0.68,-25.6 1.68,-8.48 5.93,-16.38 9.66,-24.6 3.73,-8.22 7.14,-16.41 12.42,-23.26 5.28,-6.85 11.82,-12.46 18.34,-17.83 6.53,-5.37 13.34,-10.31 20.82,-14.09 7.47,-3.78 15.74,-5.16 23.85,-7.24 8.12,-2.07 16.08,-5.05 24.53,-5.3 8.45,-0.26 16.81,1.59 25.3,3.27 8.49,1.69 17.59,2.41 25.8,6.14z"/>
   <g>
    <path class="fil1" d="M279.64 76.65c-3.45,0.88 -1.97,4.32 0.58,3.93 3.37,-0.53 1.97,-4.59 -0.58,-3.93zm71.82 37.48l0 1.1c-0.11,2.06 -0.83,4.37 -2.45,7.18 -0.55,0.96 -5.93,9.94 -6,10 -0.02,-0.01 -3.63,-7.26 -4.18,-8.18 -2.07,-3.46 -3.58,-4.06 -4.22,-8.12 -1.62,0.95 -2.69,2.43 -3.91,2.87 -0.6,0.21 1.76,0.64 2.92,1.73 3.12,2.92 2.79,3.28 4.78,6.69 3.06,5.22 4.15,11.27 5.26,17.14 3.65,19.41 -11.36,14.7 -16.61,26.6 -2.28,5.18 -1.49,12.17 -5.47,16.91 -3.74,4.44 -11.52,5.75 -16.57,3.24 -2.67,-1.33 -4.6,-3.32 -3.65,0.61 1.02,4.24 -0.12,4.22 -2.88,6.64 -3.5,3.08 -5.34,9.52 -10.15,12.27 -5.31,3.04 -13.31,-0.46 -19.22,-0.53 -6.35,-0.08 -10.11,4.02 -15.3,6.93 -2.16,1.22 -4.06,1.8 -5.8,1.94l-1.61 0c-8.19,-0.65 -12.99,-10.97 -25.76,-8.4 -6.3,1.27 -12.38,3.09 -17.35,-2.33 -3.5,-3.81 -5.75,-9.4 -9.98,-12.39 -4.67,-3.3 -11.7,-2.81 -16.99,-5.39 -2.72,-1.32 -4.21,-3.16 -5.3,-5.95 -0.62,-1.57 -2.28,-7.57 -2.15,-9l5.77 -0.98c-3.93,-3.02 -8.08,-6.56 -12.16,-9.53 -2.06,-1.51 -11.82,-7.57 -11.38,-10.1 1.51,-1.11 25.28,-1.4 29.14,-1.8 9.67,-1 19.54,0.22 29.14,1.19l-0.01 5.07 -15.48 5.73 2.46 15.8 37 -0.08c0.76,-0.67 0.32,-2.35 2.11,-2.57 1.44,-0.18 3.1,0.13 4.55,0.11 3.77,-0.06 1.94,-3.79 1.31,-6.02 -0.73,-2.61 -5.17,-12.52 -5.22,-13.35l5.06 0.72c0.02,0.03 1.6,6.62 2.1,7.91 0.93,2.39 1.87,4.59 3.05,6.86 1.77,3.4 1.05,4.51 5.69,4.17 1.4,-0.1 3.27,-0.52 4.59,-0.43 1.98,0.14 1.54,1.8 2.35,2.56l5.57 0.03c1.72,-1.53 -0.78,-2.21 4.01,-2.15 2.2,0.03 3.24,-1.17 2.15,-3.26 -1.46,-2.77 -3.16,-4.93 -5.17,-7.3 -1.75,-2.06 -4.2,-4.49 -6.15,-6.43 -0.99,-0.99 -2.13,-2.26 -2.68,-3.56 -0.4,-0.97 -1.1,-4.06 -2.19,-4.02l0.07 5.18c-2.82,1.37 -22.54,-1.89 -26.65,-2.78 -8.51,-1.85 -16.11,-3.86 -24.84,-4.89 -9.45,-1.12 -19.15,-0.65 -28.63,-0.18 -4.74,0.23 -9.45,0.29 -14.18,0.74 -2.96,0.28 -10.52,1.85 -11.62,-1.95 1.72,-0.83 10.85,-1.06 10.98,-2.26l-0.02 -0.37 -9.69 0.48c1.18,-3.64 18.11,-4.34 21.69,-4.61 7.44,-0.56 15.23,-1.71 22.42,-3.74 6.48,-1.83 12.42,-4.56 18.2,-7.96 2.67,-1.58 14.33,-8.72 15.43,-10.74l-0.19 -0.32 -21.56 12.76 -0.18 -0.31c4.5,-6.16 12.17,-12.26 18.07,-17.21 6.39,-5.37 12.79,-10.74 19.13,-16.18 6.1,-5.24 13.08,-10.93 18.13,-17.16 5.82,-7.18 12.02,-14.19 22.35,-11.64 2.16,0.53 4.55,1.44 6.63,2.28 1.52,0.61 5.42,1.83 3.48,4.03 -1.43,1.62 -4.97,2.71 -0.56,3.75 2.76,0.65 0.59,3.87 -0.16,5.59 -2.76,6.26 -3.87,6.71 -2.75,14.01 2.48,16.22 3.08,27.89 -8.26,41.57 -2.68,3.23 -5.52,6.15 -8.76,8.83 -1.62,1.34 -3.31,2.58 -5.1,3.69 -1.83,1.14 -4.02,1.82 -5.53,3.27 0.62,2.43 8.96,11.48 11.08,14.09 1.52,1.87 3.66,6.41 6.09,6.47 1.79,0.04 4.11,-0.21 5.93,-0.36 2.98,-0.23 2.65,-0.45 4.23,1.61 1.17,-0.48 -0.2,-2.37 0.36,-3.67 0.33,-0.76 2.74,-1.62 3.57,-2.14 7.17,-4.6 12.72,-10.99 15.63,-19.11 4.38,-12.23 1.88,-25.88 -6.03,-36.07 -1.7,-2.19 -3.58,-4.1 -5.66,-5.92 -3.65,-3.21 -3.97,-1.24 -4.71,-6.83 -0.86,-6.43 -0.69,-3.6 2.05,-8.49 1.54,-2.73 2.62,-5.14 3.4,-8.19 0.84,-3.29 0.01,-7.26 3.09,-8.49 2.73,-1.09 5.3,-2.51 8.06,-3.51 4.13,-1.5 2.57,-4.59 -1.04,-5.62 -3.75,-1.07 -9.26,0.12 -10.47,-0.23 -0.87,-1.17 -2.48,-5.38 -3.69,-7.32 -5.86,-9.33 -17.17,-15.25 -28.1,-15.54 -1.82,-0.05 -3.51,-0.12 -5.34,-0.12 -2.39,0.02 -2.55,-0.5 -3.97,1.49 -4.37,6.09 -1.02,9.96 1.85,15.66 -0.89,-0.02 -5.51,-2.6 -6.6,-3.2 -1.02,-0.56 -5.13,-4.19 -5.38,-4.23 -2.07,1.59 -2.18,7.49 -1.35,9.85 0.59,1.67 2.65,8.03 3.17,9.11l-5.29 -1.62c-0.66,3.58 -1.59,4.03 -1.59,8.57 0,1.5 0.13,9.1 -0.38,9.84l-4.74 -5.19c-3.48,2.93 -4.86,4.78 -9.24,6.93 -3.82,1.88 -7.87,2.92 -11.8,4.34 0.64,-2.34 11.61,-12.54 12.59,-16.41l-7.13 -2.71c1.9,-2.12 7.59,-2.03 8.63,-6.75 0.48,-2.15 0.61,-4.63 0.86,-6.82 0.29,-2.47 0.94,-4.23 1.3,-6.39 -3.35,1.21 -7.18,2.49 -10.72,2.86 -1.45,0.15 -11.53,-0.23 -11.93,-1.4 0.43,-0.75 21.28,-9.36 21.15,-12.54 -2.09,-2.04 -13.15,-1.39 -16.31,-1.39 -5.91,0 -11.81,0 -17.78,-0.01l-2.38 15.84 15.59 5.99 0.01 49.88c-0.01,8.65 -0.23,5.33 -5.07,11.53 -3.39,4.34 -5.54,4.49 -10.69,6.01 -4.58,1.35 -9.05,2.17 -13.78,2.81 -9.07,1.24 -20.58,0.9 -29.04,4.14 1.54,-9.04 2.56,-16.41 8.46,-23.6 3.67,-4.46 4.84,-0.84 8.13,-2.2 -0.03,-0.17 -3.19,-2.87 -3.69,-3.46 -1.1,-1.33 -2.11,-4.46 -2.43,-4.8 -0.67,0.73 -0.64,5.09 -1.26,6.41 -0.48,1.02 -2.55,3.26 -3.36,4.33 -1.07,1.45 -2.09,3.17 -2.92,4.76 -0.26,0.49 -2.34,5.34 -2.37,5.34l-0.04 0.02c-2.08,-3.27 -6.4,-9.46 -7.63,-12.79 -2.19,-5.95 0.77,-10 3.91,-14.73 3.78,-5.71 5.13,-8.37 3.88,-15.49 -0.99,-5.65 -3.08,-11.29 1.05,-16.33 1.37,-1.67 9.67,-8.34 11.49,-8.1 1.48,0.2 5.01,3.63 5.3,2.39 0.25,-1.12 -1.58,-5.59 -1.37,-8.23 0.29,-3.66 2.36,-12.88 4.43,-15.86 3.21,-4.64 9.14,-4.94 14.18,-6.08 14.1,-3.2 12.55,-16.12 22.19,-18.39 5.59,-1.32 11.88,1.9 17.88,1.47 5.44,-0.38 9.11,-3.99 13.6,-6.66 12.85,-7.66 17.47,6.95 29.23,6.75 5.84,-0.1 11.73,-3.31 17.54,-1.04 4.46,1.74 7.43,6.65 9.67,10.62 -9.78,-5.13 -13.54,-8.04 -25.32,-5.38 -4.32,0.97 -8.27,2.44 -12.44,3.81 -1.99,0.65 -4.53,1.62 -6.63,1.21 -1.61,-0.32 -4.61,-2.64 -5.46,-2.63l1.4 3.98c-4.32,1.35 -11.15,-1.24 -15.47,-1.21 3.04,3.2 16.04,5.89 20.53,6.42 4.2,0.49 8.56,0.7 12.78,0.49 4.73,-0.22 7.48,-1.51 11.48,-1.99l1.86 7.78c2.01,-1.28 2.79,-7.43 8.85,-9.53 4.7,-1.63 10.12,1.39 14.59,2.79 11.59,3.64 18.43,0.97 22,14.75 1.33,5.12 1.14,9.33 5.2,13.16 3.23,3.04 7.29,5.02 10.46,7.92 3.68,3.37 5.85,8.03 1.3,11.79 -0.62,0.52 -5.36,3.37 -5.39,3.5 -0.13,0.77 5.16,-0.97 6.91,0.25 0.02,5.39 -2.23,7.83 0.97,13.62 3.2,5.76 6.9,9.33 7.16,14.18zm-80.92 81.37c-1.26,7.18 -9.04,4.61 -8.19,-1.53 0.95,-6.78 9.31,-4.84 8.19,1.53zm-32.91 4l-0.04 -9.54c1.35,-0.38 4.54,-0.11 5.73,0.53 3.85,2.07 3.74,10.7 -5.69,9.01zm47.96 -5.15c4.39,4.65 -3.56,7.57 -5.41,3.66 -0.94,-2 0.26,-2.55 1.05,-3.65 -0.6,-1.1 -1.37,-1.41 -0.58,-3.05 0.97,-2.03 4.31,-2.17 5.46,-0.1 0.95,1.69 0.04,2.06 -0.52,3.14zm-75.02 -0.52l3.99 0.09 0.03 1.84 -3.95 0.05 -0.1 1.68 4.89 0.04 0.03 2.02 -7.08 0 0 -9.68 6.94 0 -0.01 2.13 -4.73 0.04 -0.01 1.79zm21.69 -1.77l-0.03 7.49 -2.16 0 -0.01 -7.49 -2.89 -0.03 0 -2.16 7.86 0.01c0.91,2.88 -1,2.04 -2.77,2.18zm40.44 -0.64c1.32,-0.85 2.38,-1.7 4.02,-1.52l0.04 9.65 -2.03 0 0 -6.9 -1.26 0.27 -0.77 -1.5zm-48.72 0.77c-1.02,-0.28 -3.25,-1.03 -3.88,0.15 -0.06,2.1 5.91,1 4.93,5.21 -0.8,3.43 -5.27,2 -7.24,1.41l0.75 -1.87c1.08,0.66 3.45,1.27 4.45,0.02 -0.33,-1.28 -2.42,-1.27 -3.6,-1.92 -1.41,-0.79 -1.98,-2.4 -1.2,-3.89 0.77,-1.46 2.54,-1.71 4.04,-1.55 1.64,0.17 3.52,0.6 1.75,2.44zm29.13 -1.69c1.88,-1.15 5.55,-1.24 6.2,1.35 0.89,3.57 -2.62,4.5 -3.18,5.8l3.65 0.19 0.07 1.71 -6.77 0c-0.04,-2.49 0.32,-1.87 2.03,-3.58 1.15,-1.15 2.35,-1.84 2.09,-3.59 -0.74,-0.87 -1.41,-0.81 -2.47,-0.53 -1.5,0.4 -1.23,-0.2 -1.62,-1.35zm13.24 1.25c-2.98,0.81 -2.03,6.45 0.39,6.04 2.2,-0.37 2.16,-4.94 0.47,-5.91 -0.48,-0.27 -0.59,-0.21 -0.86,-0.13zm-26.46 5.76c2.31,0.1 3.47,-0.25 3.48,-2.73 0.02,-2.56 -1.14,-2.81 -3.47,-2.73l-0.01 5.46zm42.94 -1.86c-0.35,0.11 -0.51,-0.05 -0.83,0.48 -0.25,0.4 -0.26,0.69 -0.05,1.11 0.7,1.4 3.67,0.64 2.9,-1 -0.37,-0.77 -1.26,-0.83 -2.02,-0.59zm-0.58 -2.89c0.36,1.35 2.37,1.05 2.31,-0.28 -0.06,-1.16 -2.28,-1.42 -2.31,0.28zm-114.07 -76.26c1.72,-1.2 5.77,-1.68 7.79,-1.32 1.05,0.19 6.43,1.67 6.59,2.71 -0.69,0.21 -2.79,0.02 -4.03,0.27 -1.15,0.24 -2.61,0.58 -3.77,0.57 -1.64,-0.01 -5.52,-0.92 -6.58,-2.23zm149.15 -2.38c1.9,-0.92 10.61,1.97 10.28,3.28 -0.21,0.84 -4.53,-0.06 -5.63,-0.82 -0.69,-0.48 -1.33,-1.05 -2.05,-1.51 -0.79,-0.49 -2.21,-0.59 -2.6,-0.95zm-133.97 -2.05l2.74 1.71c-0.14,0.14 -3.52,1.92 -3.71,1.93 -1.12,0.04 0.64,-3.21 0.97,-3.64zm-6.7 1.51l1.61 -3.46c2.75,0.42 4.03,0.59 2.93,3.14 -0.6,1.37 -0.43,1.62 -1.82,1.19 -0.59,-0.19 -2.29,-0.6 -2.72,-0.87zm150.36 -2.91l5.55 3.63 -0.15 0.22c-0.29,0.89 -2.44,3.37 -3.56,1.09 -1.04,-2.09 -1.13,-3.16 -1.84,-4.94zm-162.5 1.82l6.04 -2.51c0.25,0.71 -2.2,3.56 -2.72,4.18 -0.64,0.76 -1.04,1.53 -1.88,0.45 -0.37,-0.46 -1.24,-1.61 -1.44,-2.12zm5.59 1.52l2.61 -4.31 4 0.08c-0.2,0.75 -1.36,3.36 -1.88,3.58 -0.23,0.09 -4.33,0.64 -4.73,0.65zm151.06 -5.19l3.88 1.03 1.52 4.86c-3.9,-1.89 -5.4,-1.07 -5.4,-5.89zm-3.21 -0.09l1.64 -0.02 0.58 3.87c-1.45,0.03 -1.75,0.16 -1.89,-1.1 -0.08,-0.73 -0.38,-2.1 -0.33,-2.75zm-134.09 1.76l0.9 -3.77c1.89,0.3 1.63,1.53 1.31,2.97 -0.39,1.82 -0.58,2.18 -2.21,0.8zm135.43 -5.47l0.16 2.11 -1.05 0.02 0.89 -2.13zm-140.51 3.57l0.77 -3.63c0.53,-0.09 2.27,0.46 2.84,0.67 1.29,0.47 0.85,1.31 0.52,2.45 -0.44,1.51 -0.06,2.02 -1.5,1.44 -0.7,-0.28 -2.09,-0.61 -2.63,-0.93zm153.61 -6.52c0.15,0.22 0.16,1.97 0.45,2.76 0.3,0.8 0.77,1.46 1.03,2.3 0.3,0.96 0.62,5.34 -0.38,5.57 -1.35,0.32 -2.44,-9.39 -1.1,-10.63zm-7.58 5.82l-3.72 -0.64 -0.04 -3.86c0.25,0 3.49,0.54 3.61,0.6 0.64,0.36 0.25,3.11 0.15,3.9zm1.54 -3.23l3.79 1.4 0.72 4.94c-0.41,-0.02 -2.92,-1.62 -3.48,-1.93 -2.15,-1.21 -0.27,-2.95 -1.03,-4.41zm-141.12 -2.29l1.1 3.21c-1.77,0.02 -1.33,-1.89 -1.1,-3.21zm-11.9 5.75l0.99 -3.71 3.73 0.18c-0.01,0.22 -0.72,3.52 -0.79,3.63 -0.29,0.49 -3.18,0.03 -3.93,-0.1zm-6.6 1.37c0.21,-0.9 1.25,-2.77 1.66,-3.79 0.48,-1.16 3.01,-1.33 4.24,-1.33 -0.08,0.85 -0.73,3.77 -1.44,4.02 -0.53,0.19 -3.99,1.09 -4.46,1.1zm114.79 -6.01c3.18,0.87 1.31,7.46 0.31,9.65 -6.64,14.39 -38.33,23.53 -52.99,27.4 -2.2,0.59 -9.13,2.73 -10.84,2.81 -2.72,0.12 1.28,-1.44 1.71,-1.56 1.8,-0.48 3.5,-0.86 5.32,-1.39 10.31,-2.98 20.1,-5.95 30.05,-10.13 10.73,-4.51 28.26,-12.72 26.44,-26.78zm-114.87 -7.14c2.28,1.23 0.03,13.4 -2.7,14.14 -1.56,0.43 -0.38,-6.54 -0.03,-7.58 0.38,-1.11 1.02,-2.08 1.55,-3.13 0.39,-0.79 0.98,-3.18 1.18,-3.43zm163.84 6.39l-0.22 1.73c-0.84,-0.16 -3.73,-1.25 -3.57,-2.1 0.23,-1.23 0.67,-0.91 1.74,-0.59 0.62,0.18 1.6,0.5 2.05,0.96zm-156.08 -3.71l3.77 0.15 0.16 3.86c-4.73,0 -3.93,0.18 -3.93,-4.01zm148.65 3.01l2.19 -0.6c0.13,1.56 -1.52,1.03 -2.19,0.6zm-154.11 1.34l0.15 -3.87 3.74 -0.53c0.01,4.04 1.3,3.96 -3.89,4.4zm14.66 0.98l-3.82 -1.01 0.11 -3.74c0.42,0.07 3.22,0.67 3.49,0.79 0.66,0.31 0.36,3.16 0.22,3.96zm-1.07 -5.88l0 0zm-10.98 -4.22c1.51,3.22 1.47,3.4 -1.85,3.55 -2.14,0.1 -0.66,-1 0.03,-1.55 1.12,-0.87 1.07,-1.26 1.82,-2zm10.98 4.22l-2.89 -0.63 -0.21 -1.36 3.1 1.99zm-8.8 -2.9l3.87 0.14 0.51 1.83c-0.61,0.06 -2.34,-0.04 -3.06,-0.06 -1.33,-0.04 -0.82,-0.82 -1.32,-1.91zm145.51 -4.29l5.11 8.09c-0.54,0.47 -3.29,0.76 -4.84,2.24 -0.9,0.86 -2.77,3.92 -3.05,4.21l-7 -6.69 0.99 -1.26 5.16 3.25 -3.7 -4.64 1.22 -1.28 4.48 3.91 -2.88 -5.14c0.26,-0.2 1.13,-0.95 1.38,-0.95l3.7 4.46c0.29,-1.52 -3.54,-6.01 -0.57,-6.2zm-133.6 0.95l4.51 -4.28 1.2 1 -3.51 5.04 5.06 -3.54 1.08 1.26 -4.09 4.45 5.27 -2.74 0.98 1.45 -4.8 3.73 5.78 -1.94 0.6 1.47 -5.49 3.19 6.09 -1.23 0.42 1.51 -9.92 3.96c-0.5,-0.63 -0.82,-6.28 -5.27,-9.34 -0.6,-0.43 -2.84,-1.41 -3.08,-1.89l6.74 -8.23c3.05,0.04 -1.24,4.68 -1.57,6.13zm98.1 -13.47c-0.92,4.6 -7.83,3.31 -7.41,-0.5 0.54,-4.81 8.02,-2.57 7.41,0.5zm-42.28 -5.91c-0.3,0.34 -1.58,5.73 -1.89,6.72 -0.7,2.2 0.05,7.26 -0.41,8.1 -1.16,0.51 -1.59,-3.67 -3.55,-1.36 -3.79,4.47 -7.17,6.84 -12.89,8.93 0.23,-0.9 4.24,-5.32 5.11,-6.47 1.83,-2.43 2.96,-5.15 4.38,-7.33l-5.48 -0.36c0.08,-1.45 3.31,-0.99 4.77,-4.78 2.62,-6.77 -0.83,-16.83 8.37,-19.92 -0.79,3.28 -2.86,6.72 -2.43,10.33 1.41,-1.33 3.25,-10.88 7.89,-14.78 1.49,4.14 -2.87,7.23 -3.02,12.03 -0.07,2.37 0.5,4.42 1.29,6.62 1.98,5.45 -0.35,1.49 -2.14,2.27zm23.46 -27.26c-5.62,-1.85 -3.35,-5.25 -9.36,2.43 -5.92,7.55 -1.82,11.23 -2.3,12.4 -1.57,0.43 -5.46,-4.32 -5.89,-6.19 -0.76,-3.31 0.95,-6.56 3.11,-8.95 1.92,-2.12 4.39,-4.02 6.81,-5.54 2.27,-1.43 7.6,-3.41 9.87,-2.04 -3.15,4.09 -2.24,2.29 -2.24,7.89zm-48.1 16.14c0.01,-0.04 16.72,-8.26 17.58,-12.8l-4.67 -1.57c1.74,-1.04 2.04,-0.31 6.45,-3.46 2,-1.42 3.73,-2.83 5.91,-4 1.57,-0.83 5.13,-2.92 6.73,-3.18 2.13,-0.35 6.77,0.81 9.2,0.74 -1.54,1.58 -5.48,2.35 -9.11,7.37 -2.57,3.55 -4.2,5.99 -7.81,8.66 -4.88,3.6 -18.46,9.66 -24.28,8.24z"/>
    <g>
     <path class="fil2" d="M326.3 182.74l5.87 -7.07 4.43 7.3c0.5,-3.66 -0.18,-8.03 0.27,-12.04 0.49,-4.49 2.55,-5.79 3.46,-9.01 -1.7,0.56 -8.57,5.96 -9.94,7.44 -1.84,1.97 -4.12,10.77 -4.09,13.38z"/>
     <path class="fil2" d="M340.22 67.85c-0.6,-2.36 -2.96,-5.91 -3.78,-8.58 -0.63,-2.05 -1.28,-9.81 -1.8,-10.7 -0.36,0.63 -2.71,4.82 -2.97,5l-5.19 -6.55 -0.3 0.24c0.95,3.99 1.61,9.91 4.12,13.14 1.03,1.31 8.41,6.97 9.92,7.45z"/>
     <path class="fil2" d="M185.74 199.27l-7.09 2.17c0.4,0.37 9.89,1.35 11.99,2.05 2.14,0.71 8.69,4.3 9.5,4.41 -0.56,-1.75 -5.91,-8.59 -7.44,-9.93 -2.24,-1.96 -10.22,-3.67 -13.27,-4.09l6.31 5.39z"/>
     <path class="fil2" d="M143.78 100.42l-0.56 6.39c0.97,0.09 5.98,-9.17 6.3,-10.19 0.8,-2.52 0.5,-4.74 0.07,-7.28 -0.2,-1.15 -0.79,-6.38 -1.34,-6.9 -0.84,0.86 -3.13,10.47 -5.03,13.34 -1.24,1.86 -2.7,3.29 -4.42,4.71 -2.96,2.44 3.98,-0.4 4.98,-0.07z"/>
     <path class="fil2" d="M214.87 16.01c1.37,1.01 12.03,2.02 14.2,1.17 1.22,-0.48 10.16,-5.2 10.02,-6.34l-10.28 1.29c-0.93,-2.72 4.06,-7.45 -4.39,-0.6 -1.82,1.48 -9.4,4.22 -9.55,4.48z"/>
     <path class="fil2" d="M148.21 147.41c1.25,-1.6 1.97,-11.45 1.49,-13.54 -0.6,-2.65 -3.98,-7.71 -5.59,-10.11 -1.26,-1.88 -0.91,-0.07 -0.79,1.13 0.11,1.14 0.24,2.32 0.42,3.48 0.51,3.29 3.01,17.79 4.47,19.04z"/>
     <path class="fil2" d="M279.72 213.88c-1.54,-1.04 -11.44,-1.98 -13.49,-1.46 -2.51,0.63 -7.74,4.09 -10.09,5.61 -2.67,1.74 3.67,0.53 4.62,0.39 3.01,-0.44 18.24,-3.12 18.96,-4.54z"/>
     <path class="fil2" d="M351.24 122.96c-1.14,0.42 -5.3,8.09 -6.02,9.57 -1.65,3.43 -0.1,9.81 0.63,13.52 0.4,2.06 0.46,1.77 1.13,0.04 1.6,-4.18 4.37,-19.88 4.26,-23.13z"/>
     <path class="fil2" d="M279.75 15.86c-1.45,-1.62 -15.58,-3.82 -19.02,-4.36 -1.15,-0.18 -2.32,-0.31 -3.47,-0.43 -1.44,-0.14 -2.92,-0.56 -1.04,0.82 1.8,1.3 8.09,5.09 10.04,5.55 1.8,0.43 12.47,-0.4 13.49,-1.58z"/>
     <path class="fil2" d="M351.08 106.88c0.88,-1.15 -3.38,-23.34 -4.81,-24.42 -0.54,0.52 -1.22,5.79 -1.39,6.87 -0.4,2.72 -0.77,4.58 0.06,7.31 0.38,1.25 5.38,9.94 6.14,10.24z"/>
     <path class="fil2" d="M294.34 207.9c2.48,-0.45 20.24,-12.03 20.82,-14.02 -3.54,0.67 -10.65,1.81 -13.32,4.04 -1.49,1.24 -6.94,8.26 -7.5,9.98z"/>
     <path class="fil2" d="M168.29 182.86c-0.28,-3.24 -2.16,-10.8 -4.1,-13.38 -1.45,-1.95 -7.68,-6.37 -9.93,-7.56 0.34,2.5 11.97,20.07 14.03,20.94z"/>
     <path class="fil2" d="M154.26 67.85c1.71,-0.54 8.78,-5.96 9.98,-7.5 1.72,-2.22 3.96,-10.68 4.05,-13.43 -2.67,2.04 -13.31,17.75 -14.03,20.93z"/>
     <path class="fil2" d="M214.77 213.96c1,1.75 21.53,4.88 24.45,4.97 -0.4,-1.06 -8.75,-5.77 -10.19,-6.29 -2.04,-0.76 -12.71,-0.06 -14.26,1.32z"/>
     <path class="fil2" d="M315.16 36.01c-0.91,-2.15 -18.42,-13.83 -20.82,-14.03 1,2.04 5.75,8.58 7.46,9.92 3.21,2.51 9.41,3.11 13.36,4.11z"/>
     <path class="fil2" d="M179.32 36.01c3.72,-0.94 10.4,-1.67 13.31,-4.05 1.44,-1.17 7.04,-8.35 7.51,-9.98 -2.64,0.49 -19.88,11.81 -20.82,14.03z"/>
     <path class="fil2" d="M292.96 79.76c0.18,0.45 1.36,1.05 1.82,1.36 1.03,0.7 1,0.51 2.12,-0.02 3.01,-1.43 5.95,-3.06 8.88,-4.26 0.69,-0.29 4.54,-1.38 4.01,-2.25 -1.19,-1.96 -9.19,-1.29 -11.2,-0.93 -1.61,0.28 -4.61,0.31 -3.59,2.11 1.04,1.81 -1.92,2.76 -2.04,3.99z"/>
     <path class="fil2" d="M185.55 92.46c0.01,0.01 0.03,-0.05 0.03,-0.04 0,0.01 0.02,-0.01 0.02,-0.01 0,0 -0.2,-0.1 -0.05,0.05z"/>
    </g>
   </g>
   <g>
    <path class="fil3" d="M386.53 252.37c0.67,0.05 2.62,0.96 3.41,1.24 0.9,0.32 2.73,1.18 3.45,1.35l0 38.85c-0.43,0.04 -0.93,0.33 -1.63,0.57 -0.65,0.21 -1.05,0.42 -1.69,0.64 -0.67,0.24 -1.06,0.4 -1.69,0.64 -0.46,0.18 -1.31,0.51 -1.72,0.61 0.01,0.54 0.18,1.24 0.28,1.79 0.3,1.83 0.4,3.54 0.88,5.59 2.86,0 23.57,0.25 24.35,-0.13 0.15,-0.3 0.49,-2.92 0.6,-3.55 0.2,-1.23 0.31,-2.58 0.57,-3.7 -1.27,-0.3 -5.92,-2.37 -6.86,-2.59l0 -41.05 7.64 0c5.28,0 9.19,3.67 9.19,8.93 0,2.24 -0.01,2.69 -0.93,4.64 -0.53,1.14 -1.08,1.71 -1.95,2.58 -3.04,3.07 -7.15,2.5 -11.75,2.5l0 6.99c0,0.54 0.5,1.16 0.73,1.6 0.17,0.31 0.23,0.47 0.41,0.76 1.35,2.15 3.55,6.44 4.69,8.13 0.31,0.47 0.61,1.06 0.9,1.56 0.29,0.51 0.52,0.95 0.83,1.49l2.59 4.54c0.32,0.53 0.56,0.96 0.87,1.47 0.36,0.6 0.43,0.42 0.12,1.69 -0.24,1 -0.65,2.99 -0.65,4.14l19.17 0c0.52,0 0.5,-0.92 0.59,-1.48l0.83 -5.77c0,-0.2 -2.87,-1.19 -3.24,-1.29 -0.63,-0.19 -0.99,-0.36 -1.6,-0.6 -0.62,-0.24 -1.14,-0.37 -1.74,-0.59 -1.04,-0.37 -1.1,-0.71 -2.05,-2.48l-6.64 -11.76c-0.49,-0.78 -1.78,-1.06 -2.56,-1.58 -0.02,-0.02 -0.06,-0.04 -0.08,-0.05 -0.24,-0.18 -0.07,-0.04 -0.22,-0.17 5.54,-1.29 10.44,-4.39 13.02,-9.52 2.01,-4.01 1.85,-9.87 -0.02,-13.71 -0.52,-1.07 -0.97,-1.97 -1.65,-2.88 -2.07,-2.74 -4.79,-4.47 -8.16,-5.57 -2.18,-0.72 -5.15,-1.22 -7.98,-1.22l-29.15 0c-0.01,0.75 -1.16,6.25 -1.16,7.39z"/>
    <path class="fil3" d="M323.7 267.39l-3.36 0 0 8.16c3.34,0 7.84,-0.41 10.49,0.9 0.96,0.48 2.16,1.29 2.85,2.08 2.7,3.1 3.48,7.28 2.05,11.25 -1.33,3.73 -3.75,6.23 -7.88,6.23l-9.72 0 0 -43.38c4.13,0 8.29,-0.6 10.92,1.9 2.11,2.01 2.67,6.5 1.35,8.93 -0.18,0.33 -0.43,0.77 -0.65,1.04 -1.51,1.94 -3.43,2.89 -6.05,2.89zm-25.51 -15.15l6.99 2.72 0 38.72 -6.86 2.59 0.86 5.74c0.16,1.04 0.04,1.64 0.56,1.64l29.53 0c8.34,0 15.19,-2.62 18.91,-9.07 3.23,-5.61 2.69,-13.37 -1.27,-18.4 -2.4,-3.06 -3.88,-3.89 -7.01,-5.55 0.53,-0.8 3.16,-2.27 4.68,-7.37 0.91,-3.07 0.46,-7.16 -0.91,-9.75 -2.69,-5.08 -7.75,-8.56 -14.14,-8.53 -10.05,0.05 -20.12,0 -30.18,0l-1.16 7.26z"/>
    <path class="fil3" d="M22.15 267.91l0 7.38c3.14,0 8.02,-0.37 10.54,0.86 4.16,2.03 5.91,5.39 5.91,9.89 0,4.26 -3.05,10.1 -7.64,10.1l-11.01 0 0 -43.77c2.38,0 6.88,-0.23 8.89,0.57 0.95,0.37 2.09,1.04 2.64,1.75 1.54,2.01 2.13,4.02 1.79,6.72 -0.28,2.3 -1.74,4.09 -3.6,5.21 -3.09,1.87 -7.52,0.13 -7.52,1.29zm-21.63 -15.8l3.42 1.37c0.96,0.34 2.62,1.15 3.45,1.35l0 39.11c-0.59,0.14 -1.18,0.36 -1.74,0.59l-3.4 1.27c-0.64,0.22 -1.2,0.45 -1.73,0.73l0.87 5.35c0.08,0.57 0.03,1.51 0.56,1.51l30.31 0c1.46,0 2.75,-0.12 4.1,-0.29 4.06,-0.54 7.67,-2.2 10.69,-4.86 0.76,-0.66 2.45,-2.84 2.95,-3.78 1.89,-3.52 2.07,-5.2 2.07,-9.07 0,-1.99 -0.82,-4.61 -1.57,-6.19 -0.16,-0.33 -0.34,-0.62 -0.54,-1.02 -1.15,-2.32 -3.94,-5.11 -6.22,-6.34 -0.41,-0.23 -0.62,-0.37 -0.99,-0.57 -0.39,-0.2 -0.77,-0.32 -1.17,-0.51 0.17,-0.61 0.18,-0.25 0.94,-1 0.97,-0.97 2.01,-2.36 2.66,-3.56 1.92,-3.51 2.16,-7.34 0.89,-11.2 -0.92,-2.78 -3.22,-5.54 -5.68,-7.14 -0.97,-0.64 -2.6,-1.5 -3.76,-1.81 -0.55,-0.15 -0.89,-0.29 -1.39,-0.42 -0.8,-0.21 -2.37,-0.39 -3.37,-0.39l-30.05 0c-0.54,0 -0.41,0.91 -0.5,1.45 -0.22,1.3 -0.8,4.38 -0.8,5.42z"/>
    <path class="fil3" d="M468 296.01l-4.4 0c-0.3,0 -0.39,-0.09 -0.39,-0.39l0 -42.99c4.95,0 9.74,-0.52 13.84,1.96 3.79,2.3 6.62,6.46 7.54,10.84 0.68,3.23 1.03,4.71 1.03,8.31 0,8.07 -2.61,16.91 -9.37,20.55 -2.33,1.25 -4.73,1.72 -8.25,1.72zm-17.87 -41.05l0 38.85c-1.18,0.27 -5.64,2.2 -6.74,2.46 0,1.14 0.36,2.72 0.53,3.88 0.08,0.63 0.17,1.29 0.26,1.94 0.08,0.61 0,1.56 0.64,1.56l22.41 0c4.06,0 9.53,-0.41 13.37,-1.77 2.7,-0.96 5.31,-2.07 7.63,-3.78 1.9,-1.4 2,-1.74 3.09,-2.6 0.38,-0.31 0.54,-0.63 0.94,-1.01 0.63,-0.63 1.18,-1.3 1.7,-2.05 4.39,-6.39 5.52,-11.53 5.52,-19.74 0,-2.57 -0.44,-5.59 -1.06,-7.88 -0.12,-0.44 -0.29,-0.85 -0.44,-1.37 -0.66,-2.32 -2.15,-5.35 -3.53,-7.22 -0.28,-0.37 -0.48,-0.69 -0.77,-1.05 -0.58,-0.7 -1.93,-2.3 -2.6,-2.83 -3.27,-2.61 -3,-2.48 -6.5,-4.26 -2.27,-1.15 -5.66,-2.13 -8.21,-2.54 -2.04,-0.32 -4.44,-0.57 -6.68,-0.57l-25.39 0c-0.02,0.59 -0.19,1.32 -0.26,1.95 -0.16,1.44 -0.61,3.69 -0.68,4.91 -0.06,0.83 0.05,0.37 1.93,1.22 0.56,0.25 1.07,0.37 1.6,0.6 1.02,0.45 2.25,0.82 3.24,1.3z"/>
    <path class="fil3" d="M130.83 261.82l0.26 0c0.08,0.99 5.22,13.76 5.7,15.8l-12.05 0c0.05,-0.55 0.52,-1.48 0.73,-2l1.1 -2.9c0.13,-0.35 0.26,-0.58 0.43,-1l0.77 -1.95c0.3,-0.85 3.02,-7.4 3.06,-7.95zm-27.59 34.19l0 7.38 21.5 0 0.91 -7.12c-0.62,-0.14 -1.12,-0.36 -1.79,-0.54 -1.09,-0.3 -4.83,-1.73 -5.59,-1.79 0.13,-0.6 0.57,-1.51 0.83,-2.15 0.3,-0.76 0.56,-1.41 0.85,-2.12 0.28,-0.7 1.64,-3.92 1.68,-4.41l18.14 0 3.11 8.68 -6.22 2.46 0.81 5.4c0.08,0.46 0.08,1.59 0.61,1.59l24.1 0c0.52,0 0.68,-2.26 0.85,-3.29l0.57 -3.7 -7.14 -2.57c-0.52,-0.29 -0.6,-1.05 -0.77,-1.56 -1.29,-3.85 -3.2,-8.49 -4.57,-12.53l-3.26 -8.91c-0.27,-0.65 -0.39,-1.16 -0.65,-1.81 -0.27,-0.67 -0.41,-1.11 -0.66,-1.81l-5.89 -16.12c-0.21,-0.62 -0.45,-1.12 -0.68,-1.78 -0.24,-0.69 -0.42,-1.16 -0.65,-1.82 -0.22,-0.62 -1.2,-3.1 -1.25,-3.67l-9.48 1.4c-0.55,0.13 -0.57,0.23 -1.06,1.66 -1.28,3.72 -3.29,8.17 -4.53,11.78 -0.27,0.79 -0.5,1.24 -0.74,1.98 -0.23,0.68 -0.53,1.24 -0.78,1.94 -0.11,0.29 -0.19,0.63 -0.34,0.96l-7.21 18.7c-0.95,2.83 -2.73,6.84 -3.79,9.81 -0.14,0.41 -0.2,0.52 -0.36,0.93 -0.45,1.18 -0.73,0.93 -2.55,1.59l-4 1.44z"/>
    <path class="fil3" d="M162.18 272.83c0,3.2 0.02,6.34 0.8,9.43 1.15,4.6 2.78,8.69 5.77,12.36l1.68 1.95c1.14,1.19 3.69,3.03 5.11,3.95 0.4,0.26 0.76,0.4 1.17,0.65 0.49,0.3 0.69,0.33 1.23,0.58 0.48,0.23 0.71,0.36 1.24,0.57 4.95,1.96 8.33,2.37 14.21,2.37 4.17,0 7.46,-0.83 10.76,-1.68 0.85,-0.22 1.5,-0.54 2.33,-0.78 1.22,-0.37 5.96,-2.58 5.96,-3.37l0 -13.86 -3.43 -0.46c-0.66,-0.09 -1.07,-0.13 -1.72,-0.22 -0.59,-0.09 -1.07,-0.22 -1.85,-0.22l-4.14 11.39c-0.55,0.55 -7.8,1.04 -9.2,1.04 -5.26,0 -9.59,-2.24 -12.41,-6.37 -2.36,-3.44 -3.91,-9.08 -3.91,-14.87 0,-6.65 0.32,-12.08 3.65,-17.07 0.15,-0.22 0.24,-0.4 0.42,-0.62 1.74,-2.29 4.5,-4.2 7.3,-4.87 4.23,-1.02 7.71,-0.72 12,-0.03 2.78,0.44 2.39,0.18 3.2,2.63l2.3 6.51c0.25,0.74 0.48,1.53 0.79,2.18 0.85,0 3.88,-0.59 5.19,-0.77 0.59,-0.08 1.26,-0.22 1.81,-0.26l0 -13.73 -8.74 -3.83 -5.18 -1.17c-1.37,-0.23 -2.69,-0.37 -3.98,-0.44l-3.5 0c-3.19,0.17 -6.26,0.8 -9.51,1.74 -3.53,1.02 -8.01,3.94 -10.45,6.39 -2.2,2.2 -3.18,3.57 -4.81,6.32l-1.84 3.73c-1.16,2.89 -2.25,7.73 -2.25,10.83z"/>
    <path class="fil3" d="M54.92 252.11l6.87 2.72 0 38.98 -4.22 1.61c-0.79,0.32 -1.75,0.77 -2.65,0.98 0,0.62 0.18,1.24 0.26,1.82l0.5 3.64c0.08,0.56 0.02,1.53 0.54,1.53l44.04 0 0 -18.13c0,-0.56 -2.34,-0.64 -3.36,-0.78l-3.63 -0.51c-0.27,1.14 -2.73,7.45 -3.32,9.24 -0.2,0.6 -0.36,0.99 -0.57,1.51 -0.17,0.42 -0.32,1.42 -0.78,1.42l-14.25 0 0 -41.31 7 -2.72 -0.77 -5.06c-0.08,-0.59 -0.26,-1.25 -0.27,-1.81l-24.48 0c0,1.16 -0.88,5.96 -0.91,6.87z"/>
    <path class="fil3" d="M353.89 252.37l6.86 2.59 0 38.85 -6.86 2.46c0,1.33 0.66,4.1 0.88,5.72 0.09,0.65 0.03,1.66 0.67,1.66l23.83 0c0.53,0 0.54,-1.13 0.61,-1.59l0.95 -5.79c-1.21,-0.28 -6.28,-2.4 -7,-2.46l0 -38.85c0.64,-0.15 1.1,-0.42 1.68,-0.65 0.6,-0.24 1.16,-0.44 1.78,-0.69 0.65,-0.25 1.14,-0.44 1.78,-0.68 0.65,-0.25 1.21,-0.41 1.76,-0.7l-0.89 -5.33c-0.1,-0.62 -0.28,-1.3 -0.28,-1.93l-24.61 0 -0.93 5.42c-0.09,0.66 -0.23,1.16 -0.23,1.97z"/>
    <path class="fil3" d="M217.88 251.98l3.55 1.5c0.72,0.27 1.16,0.46 1.85,0.74 0.7,0.28 1.59,0.45 1.59,1l0 38.2c0,0.47 -0.72,0.58 -1.55,0.91l-3.61 1.44c-0.65,0.23 -1.24,0.45 -1.83,0.76l1.03 6.86c7.6,0 15.95,-0.12 23.46,0.01 1.36,0.02 0.98,-0.17 1.13,-1.45 0.2,-1.64 0.5,-3.12 0.66,-4.66 0.14,-1.22 0.16,-0.94 -0.95,-1.35l-5.77 -2.13 0 -38.98c0.51,-0.25 1.08,-0.46 1.66,-0.67l3.44 -1.36c0.58,-0.2 1.26,-0.45 1.76,-0.69 -0.15,-0.32 -0.18,-1.25 -0.26,-1.69 -0.1,-0.6 -0.17,-1.17 -0.28,-1.79l-0.35 -2.75c-0.05,-0.41 0.03,-0.64 -0.4,-0.64l-23.71 0c-0.53,0 -0.65,2.13 -0.83,3.19 -0.13,0.78 -0.37,3.08 -0.59,3.55z"/>
    <path class="fil3" d="M250.39 252.11c0.79,0.42 4.05,2.18 4.66,2.33 -0.52,0.78 -10.75,11.07 -11.69,12.01 -0.72,0.72 -1.27,1.29 -1.97,2.04 -2.42,2.6 -1.88,0.77 -1.88,6.67 0,0.62 3.3,5.28 3.7,5.88l11.58 17.43c0,0.7 -0.27,1.76 -0.39,2.46 -0.12,0.72 -0.33,1.78 -0.38,2.46l19.17 0c0.26,-0.54 0.49,-2.67 0.61,-3.4 0.19,-1.14 0.46,-2.49 0.55,-3.59l-6.85 -2.47c-0.84,-0.33 -0.77,-0.54 -1.49,-1.62l-7.54 -11.11c-0.44,-0.67 -0.78,-1.22 -1.25,-1.86 -0.88,-1.19 -2.92,-4.87 -3.93,-5.39l-4.33 -2.03 8.12 -8.33c0.01,-0.02 0.04,-0.05 0.06,-0.07 0.02,-0.02 0.04,-0.05 0.06,-0.07l2.61 -2.7c2.09,-2.08 3.32,-3.53 5.81,-5.2 1.57,-1.05 3.72,-2.13 5.55,-2.74 0.74,-0.24 1.56,-0.39 2.15,-0.7l-1.04 -6.87 -20.86 0c0,1.69 -1.03,5.18 -1.03,6.87z"/>
   </g>
   <path class="fil4" d="M125.33 335.94l-4.53 0 0 -4.3 4.31 0c3.31,0 3.11,4.3 0.22,4.3zm-0.66 -7.5l-3.87 0 0 -4.19c1.69,0 4.3,-0.3 5.17,0.57 1.28,1.28 0.68,3.62 -1.3,3.62zm-7.62 11.03l8.17 0c3.32,0 6.08,-1.7 6.08,-4.97 0,-1.36 -0.08,-2.23 -1.13,-3.28 -0.56,-0.55 -1.44,-1.27 -2.41,-1.35l0.52 -0.26c3.63,-1.82 2.84,-8.89 -3.94,-8.89 -2.25,0 -4.51,0 -6.76,0 -0.44,0 -0.53,0.03 -0.53,0.42l0 18.33z"/>
   <path class="fil4" d="M207.08 335.94l-4.53 0 0 -4.3 4.31 0c3.3,0 3.1,4.3 0.22,4.3zm-0.67 -7.5l-3.86 0 0 -4.19 3.75 0c1.19,0 2.1,1 2.1,2.21 0,1.14 -0.84,1.98 -1.99,1.98zm-7.62 11.03l8.18 0c1.74,0 3.24,-0.42 4.21,-1.2 2.13,-1.7 2.59,-5.2 0.73,-7.05 -0.56,-0.55 -1.44,-1.27 -2.4,-1.35 0.02,-0.01 0.06,-0.06 0.07,-0.04l0.44 -0.21c0.25,-0.12 0.36,-0.16 0.56,-0.33 3.16,-2.58 1.61,-8.57 -4.5,-8.57l-7.29 0 0 18.75z"/>
   <path class="fil4" d="M337.31 330.09c0,-3.24 2.17,-6.28 5.09,-6.28l0.88 0c3.11,0 5.3,2.81 5.3,5.95 0,1.96 -0.39,3.76 -1.57,4.94 -1.04,1.04 -2.47,1.9 -4.13,1.74 -2.05,-0.19 -3,-0.73 -4.05,-1.91 -0.84,-0.94 -1.52,-2.69 -1.52,-4.44zm5.18 -9.7l1.31 0c1.23,0.08 2.45,0.41 3.57,0.99 2.62,1.37 4.45,3.81 5.07,6.73 0.08,0.36 0.25,1.7 0.23,2.08 -0.1,1.46 -0.4,2.79 -0.89,3.87 -1.42,3.16 -4.68,5.74 -8.28,5.74l-0.99 0c-4.64,0 -9.17,-4.29 -9.17,-9.93 0,-2.03 0.73,-3.84 1.72,-5.33 1.63,-2.46 4.49,-3.95 7.43,-4.15z"/>
   <path class="fil4" d="M179.68 328.88l-4.42 0c0,-1.48 0,-2.86 0,-4.34 0,-0.24 -0.02,-0.29 0.23,-0.29 2.91,-0.03 6.4,-0.5 6.4,2.32 0,1.15 -1.01,2.31 -2.21,2.31zm-8.28 -7.83l0 18.08c0,0.26 0.07,0.34 0.33,0.34l3.2 0c0.26,0 0.33,-0.08 0.33,-0.34l0 -6.83 3.1 0 3.64 7.17 4.31 0c-0.09,-0.4 -0.27,-0.65 -0.46,-0.98 -0.22,-0.34 -0.34,-0.64 -0.56,-0.99l-3.18 -5.75c1.45,-0.12 4.9,-3.64 2.96,-7.7 -0.95,-2.01 -2.97,-3.33 -5.61,-3.33l-7.73 0c-0.26,0 -0.33,0.08 -0.33,0.33z"/>
   <path class="fil4" d="M260.32 328.88l-4.31 0 0 -4.63 3.32 0c1.66,0 3.16,0.36 3.32,1.87 0.16,1.42 -0.72,2.76 -2.33,2.76zm-8.06 10.59l3.75 0 0 -7.17c3.78,0 2.85,-0.46 3.94,1.69l0.96 1.8c0.38,0.77 1.71,3.13 1.84,3.68l4.31 0c-0.05,-0.59 -3.07,-5.76 -3.57,-6.69 -0.21,-0.39 -0.41,-0.58 -0.52,-1.03 0.85,-0.2 1.84,-1.15 2.31,-1.78 2.76,-3.7 0.29,-9.25 -4.85,-9.25l-8.17 0 0 18.75z"/>
   <polygon class="fil4" points="305.28,339.47 309.04,339.47 309.04,332.08 316.77,332.08 316.77,339.47 320.52,339.47 320.52,320.72 316.77,320.72 316.77,328.55 309.04,328.55 309.04,320.72 305.28,320.72 "/>
   <path class="fil4" d="M225.97 339.47l13.36 0 0 -3.53 -9.61 0 0 -3.97 8.07 0 0 -3.09c0,-0.25 -0.08,-0.33 -0.34,-0.33l-7.73 0 0 -4.3 9.39 0 0 -3.53 -13.14 0 0 18.75z"/>
   <path class="fil4" d="M150.99 324.54c0.21,0.95 1.4,4.31 1.67,5.29 0.16,0.55 0.83,1.81 0.37,1.81l-4.33 0c-0.22,0 -0.19,0.01 -0.13,-0.23 0.3,-1.18 1.9,-5.76 2.14,-6.88 0.06,-0.26 0.22,-0.26 0.28,0.01zm-8.98 14.93l3.98 0c0.06,-0.79 1.13,-3.21 1.49,-4.54 0.08,-0.27 0.04,-0.21 0.34,-0.21l6.08 0c0.32,0 0.26,-0.02 0.4,0.29 0.5,1.16 1.07,3.52 1.52,4.46l3.98 0 -4.79 -13.09c-0.16,-0.43 -0.3,-0.77 -0.45,-1.2 -0.29,-0.85 -0.56,-1.55 -0.85,-2.35 -0.15,-0.4 -0.29,-0.8 -0.44,-1.21 -0.15,-0.4 -0.33,-0.79 -0.43,-1.23l-3.98 0c-0.04,0.45 -0.63,1.85 -0.82,2.39l-5.19 14.21c-0.19,0.49 -0.8,2.06 -0.84,2.48z"/>
   <path class="fil4" d="M373.77 329.21l-4.53 0 0 -4.85c2.82,0 6.41,-0.59 6.41,2.32 0,1.11 -0.84,2.53 -1.88,2.53zm5.63 -2.99l0 0.77c-0.09,1.49 -0.72,2.95 -1.74,4.02 -2.15,2.25 -4.95,1.73 -8.42,1.73l0 6.73 -3.76 0 0 -18.75 7.74 0c2.6,0 4.46,1.24 5.56,3.27 0.37,0.69 0.57,1.45 0.62,2.23z"/>
   <path class="fil4" d="M278.77 325.35c0,1.69 -0.05,2.95 1.4,4.33 1.6,1.53 4.14,2.02 6.15,2.69 0.62,0.2 1.02,0.36 1.55,0.66 2.33,1.33 0.38,4.67 -5.47,3.03 -0.48,-0.13 -0.79,-0.22 -1.25,-0.41 -0.41,-0.16 -0.89,-0.39 -1.28,-0.48l-1.32 2.97c1.63,0.87 3.82,1.52 6,1.66l1.7 0c1.6,-0.11 3.12,-0.56 4.32,-1.45 2.58,-1.92 3.49,-7.01 -1.98,-9.23 -2.39,-0.97 -6.07,-1.35 -6.07,-3.44 0,-3.05 6.03,-1.85 8.07,-0.88 0.21,-0.9 1.15,-2.29 1.21,-3.09 -0.4,-0.09 -0.8,-0.31 -1.2,-0.45 -1.25,-0.45 -2.75,-0.79 -4.27,-0.87l-1.43 0c-1.56,0.09 -3.05,0.5 -4.21,1.37 -0.9,0.68 -1.92,2.08 -1.92,3.59z"/>
  </g>
 </g>
</svg>
