<?xml version="1.0" encoding="utf-8"?>
<!-- Generator: Adobe Illustrator 21.0.0, SVG Export Plug-In . SVG Version: 6.00 Build 0)  -->
<svg version="1.1" id="Layer_1" xmlns="http://www.w3.org/2000/svg" xmlns:xlink="http://www.w3.org/1999/xlink" x="0px" y="0px"
	 viewBox="0 0 228.2 230" style="enable-background:new 0 0 228.2 230;" xml:space="preserve">
<style type="text/css">
	.st0{fill:#FFFFFF;}
	.st1{stroke:#FFFFFF;stroke-miterlimit:10;}
	.st2{fill:#E49B0E;}
</style>
<path class="st0" d="M161.8,9.4c8.2,3.7,14.3,10.7,21.1,16c6.9,5.3,15.4,8.8,20.7,15.4c5.4,6.5,7.3,15.4,11.1,22.8
	S223.9,78,226,86.1c2.1,8.1,1.8,16.8,2.1,25.2c0.3,8.4,0.4,17.1-1.3,25.6c-1.7,8.5-6.3,16.1-10,24.4s-5.3,17.6-10.6,24.5
	s-14,10.3-20.5,15.7c-6.5,5.4-12.3,11.7-19.7,15.4c-7.5,3.8-15.8,5-23.9,7.1c-8.1,2.1-16,5.9-24.5,6.1s-16.8-2.8-25.3-4.5
	c-8.5-1.7-17.3-2.8-25.5-6.5c-8.2-3.7-15-9.4-21.9-14.7c-6.9-5.3-14.8-9.5-20.1-16c-5.4-6.5-7.3-15.4-11-22.9
	c-3.8-7.5-8.9-14.4-11-22.5c-2.1-8.1-2-16.6-2.2-25.1s-1-17.1,0.7-25.6C2.7,83.9,7,76,10.7,67.7c3.7-8.2,7.1-16.4,12.4-23.3
	S35,32,41.5,26.7c6.5-5.4,13.3-10.3,20.8-14.1C69.8,8.8,78,7.4,86.2,5.3c8.1-2.1,16.1-5.1,24.5-5.3c8.4-0.3,16.8,1.6,25.3,3.3
	C144.5,5,153.6,5.7,161.8,9.4L161.8,9.4z"/>
<g>
	<path class="st1" d="M146.6,76.4c-3.5,0.9-2,4.3,0.6,3.9C150.6,79.8,149.2,75.8,146.6,76.4z M218.4,113.9v1.1
		c-0.1,2.1-0.8,4.4-2.5,7.2c-0.5,1-5.9,9.9-6,10c0,0-3.6-7.3-4.2-8.2c-2.1-3.5-3.6-4.1-4.2-8.1c-1.6,0.9-2.7,2.4-3.9,2.9
		c-0.6,0.2,1.8,0.6,2.9,1.7c3.1,2.9,2.8,3.3,4.8,6.7c3.1,5.2,4.1,11.3,5.3,17.1c3.6,19.4-11.4,14.7-16.6,26.6
		c-2.3,5.2-1.5,12.2-5.5,16.9c-3.7,4.4-11.5,5.8-16.6,3.2c-2.7-1.3-4.6-3.3-3.6,0.6c1,4.2-0.1,4.2-2.9,6.6
		c-3.5,3.1-5.3,9.5-10.1,12.3c-5.3,3-13.3-0.5-19.2-0.5c-6.4-0.1-10.1,4-15.3,6.9c-2.2,1.2-4.1,1.8-5.8,1.9h-1.6
		c-8.2-0.6-13-11-25.8-8.4c-6.3,1.3-12.4,3.1-17.4-2.3c-3.5-3.8-5.8-9.4-10-12.4c-4.7-3.3-11.7-2.8-17-5.4c-2.7-1.3-4.2-3.2-5.3-5.9
		c-0.6-1.6-2.3-7.6-2.1-9l5.8-1c-3.9-3-8.1-6.6-12.2-9.5c-2.1-1.5-11.8-7.6-11.4-10.1c1.5-1.1,25.3-1.4,29.1-1.8
		c9.7-1,19.5,0.2,29.1,1.2l0,5.1l-15.5,5.7l2.5,15.8l37-0.1c0.8-0.7,0.3-2.4,2.1-2.6c1.4-0.2,3.1,0.1,4.6,0.1c3.8-0.1,1.9-3.8,1.3-6
		c-0.7-2.6-5.2-12.5-5.2-13.4l5.1,0.7c0,0,1.6,6.6,2.1,7.9c0.9,2.4,1.9,4.6,3.1,6.9c1.8,3.4,1.1,4.5,5.7,4.2
		c1.4-0.1,3.3-0.5,4.6-0.4c2,0.1,1.5,1.8,2.4,2.6l5.6,0c1.7-1.5-0.8-2.2,4-2.1c2.2,0,3.2-1.2,2.1-3.3c-1.5-2.8-3.2-4.9-5.2-7.3
		c-1.8-2.1-4.2-4.5-6.1-6.4c-1-1-2.1-2.3-2.7-3.6c-0.4-1-1.1-4.1-2.2-4l0.1,5.2c-2.8,1.4-22.5-1.9-26.6-2.8
		c-8.5-1.9-16.1-3.9-24.8-4.9c-9.4-1.1-19.1-0.6-28.6-0.2c-4.7,0.2-9.4,0.3-14.2,0.7c-3,0.3-10.5,1.9-11.6-1.9
		c1.7-0.8,10.9-1.1,11-2.3l0-0.4l-9.7,0.5c1.2-3.6,18.1-4.3,21.7-4.6c7.4-0.6,15.2-1.7,22.4-3.7c6.5-1.8,12.4-4.6,18.2-8
		c2.7-1.6,14.3-8.7,15.4-10.7l-0.2-0.3l-21.6,12.8l-0.2-0.3c4.5-6.2,12.2-12.3,18.1-17.2c6.4-5.4,12.8-10.7,19.1-16.2
		C116,94.5,123,88.8,128,82.6c5.8-7.2,12-14.2,22.4-11.6c2.2,0.5,4.5,1.4,6.6,2.3c1.5,0.6,5.4,1.8,3.5,4c-1.4,1.6-5,2.7-0.6,3.8
		c2.8,0.7,0.6,3.9-0.2,5.6c-2.8,6.3-3.9,6.7-2.8,14c2.5,16.2,3.1,27.9-8.3,41.6c-2.7,3.2-5.5,6.1-8.8,8.8c-1.6,1.3-3.3,2.6-5.1,3.7
		c-1.8,1.1-4,1.8-5.5,3.3c0.6,2.4,9,11.5,11.1,14.1c1.5,1.9,3.7,6.4,6.1,6.5c1.8,0,4.1-0.2,5.9-0.4c3-0.2,2.6-0.4,4.2,1.6
		c1.2-0.5-0.2-2.4,0.4-3.7c0.3-0.8,2.7-1.6,3.6-2.1c7.2-4.6,12.7-11,15.6-19.1c4.4-12.2,1.9-25.9-6-36.1c-1.7-2.2-3.6-4.1-5.7-5.9
		c-3.6-3.2-4-1.2-4.7-6.8c-0.9-6.4-0.7-3.6,2-8.5c1.5-2.7,2.6-5.1,3.4-8.2c0.8-3.3,0-7.3,3.1-8.5c2.7-1.1,5.3-2.5,8.1-3.5
		c4.1-1.5,2.6-4.6-1-5.6c-3.8-1.1-9.3,0.1-10.5-0.2c-0.9-1.2-2.5-5.4-3.7-7.3c-5.9-9.3-17.2-15.3-28.1-15.5c-1.8,0-3.5-0.1-5.3-0.1
		c-2.4,0-2.5-0.5-4,1.5c-4.4,6.1-1,10,1.9,15.7c-0.9,0-5.5-2.6-6.6-3.2c-1-0.6-5.1-4.2-5.4-4.2c-2.1,1.6-2.2,7.5-1.4,9.8
		c0.6,1.7,2.6,8,3.2,9.1l-5.3-1.6c-0.7,3.6-1.6,4-1.6,8.6c0,1.5,0.1,9.1-0.4,9.8l-4.7-5.2c-3.5,2.9-4.9,4.8-9.2,6.9
		c-3.8,1.9-7.9,2.9-11.8,4.3c0.6-2.3,11.6-12.5,12.6-16.4l-7.1-2.7c1.9-2.1,7.6-2,8.6-6.8c0.5-2.2,0.6-4.6,0.9-6.8
		c0.3-2.5,0.9-4.2,1.3-6.4c-3.4,1.2-7.2,2.5-10.7,2.9c-1.4,0.2-11.5-0.2-11.9-1.4c0.4-0.8,21.3-9.4,21.1-12.5
		c-2.1-2-13.1-1.4-16.3-1.4c-5.9,0-11.8,0-17.8,0l-2.4,15.8l15.6,6l0,49.9c0,8.7-0.2,5.3-5.1,11.5c-3.4,4.3-5.5,4.5-10.7,6
		c-4.6,1.4-9.1,2.2-13.8,2.8c-9.1,1.2-20.6,0.9-29,4.1c1.5-9,2.6-16.4,8.5-23.6c3.7-4.5,4.8-0.8,8.1-2.2c0-0.2-3.2-2.9-3.7-3.5
		c-1.1-1.3-2.1-4.5-2.4-4.8c-0.7,0.7-0.6,5.1-1.3,6.4c-0.5,1-2.6,3.3-3.4,4.3c-1.1,1.4-2.1,3.2-2.9,4.8c-0.3,0.5-2.3,5.3-2.4,5.3
		l0,0c-2.1-3.3-6.4-9.5-7.6-12.8c-2.2-5.9,0.8-10,3.9-14.7c3.8-5.7,5.1-8.4,3.9-15.5c-1-5.7-3.1-11.3,1.1-16.3
		c1.4-1.7,9.7-8.3,11.5-8.1c1.5,0.2,5,3.6,5.3,2.4c0.3-1.1-1.6-5.6-1.4-8.2c0.3-3.7,2.4-12.9,4.4-15.9c3.2-4.6,9.1-4.9,14.2-6.1
		c14.1-3.2,12.6-16.1,22.2-18.4c5.6-1.3,11.9,1.9,17.9,1.5c5.4-0.4,9.1-4,13.6-6.7c12.9-7.7,17.5,6.9,29.2,6.8
		c5.8-0.1,11.7-3.3,17.5-1c4.5,1.7,7.4,6.6,9.7,10.6c-9.8-5.1-13.5-8-25.3-5.4c-4.3,1-8.3,2.4-12.4,3.8c-2,0.6-4.5,1.6-6.6,1.2
		c-1.6-0.3-4.6-2.6-5.5-2.6l1.4,4c-4.3,1.4-11.1-1.2-15.5-1.2c3,3.2,16,5.9,20.5,6.4c4.2,0.5,8.6,0.7,12.8,0.5
		c4.7-0.2,7.5-1.5,11.5-2l1.9,7.8c2-1.3,2.8-7.4,8.9-9.5c4.7-1.6,10.1,1.4,14.6,2.8c11.6,3.6,18.4,1,22,14.8
		c1.3,5.1,1.1,9.3,5.2,13.2c3.2,3,7.3,5,10.5,7.9c3.7,3.4,5.9,8,1.3,11.8c-0.6,0.5-5.4,3.4-5.4,3.5c-0.1,0.8,5.2-1,6.9,0.3
		c0,5.4-2.2,7.8,1,13.6C214.5,105.5,218.2,109.1,218.4,113.9L218.4,113.9z M137.5,195.3c-1.3,7.2-9,4.6-8.2-1.5
		C130.3,187,138.6,188.9,137.5,195.3z M104.6,199.3l0-9.5c1.4-0.4,4.5-0.1,5.7,0.5C114.1,192.4,114,201,104.6,199.3z M152.6,194.1
		c4.4,4.6-3.6,7.6-5.4,3.7c-0.9-2,0.3-2.6,1-3.6c-0.6-1.1-1.4-1.4-0.6-3.1c1-2,4.3-2.2,5.5-0.1C154,192.7,153.1,193.1,152.6,194.1z
		 M77.5,193.6l4,0.1l0,1.8l-3.9,0.1l-0.1,1.7l4.9,0l0,2h-7.1v-9.7h6.9l0,2.1l-4.7,0L77.5,193.6L77.5,193.6z M99.2,191.9l0,7.5H97
		l0-7.5l-2.9,0v-2.2l7.9,0C102.9,192.6,101,191.7,99.2,191.9L99.2,191.9z M139.7,191.2c1.3-0.9,2.4-1.7,4-1.5l0,9.6h-2v-6.9
		l-1.3,0.3L139.7,191.2z M91,192c-1-0.3-3.3-1-3.9,0.1c-0.1,2.1,5.9,1,4.9,5.2c-0.8,3.4-5.3,2-7.2,1.4l0.8-1.9
		c1.1,0.7,3.4,1.3,4.4,0c-0.3-1.3-2.4-1.3-3.6-1.9c-1.4-0.8-2-2.4-1.2-3.9c0.8-1.5,2.5-1.7,4-1.6C90.8,189.7,92.7,190.1,91,192
		L91,192z M120.1,190.3c1.9-1.1,5.5-1.2,6.2,1.4c0.9,3.6-2.6,4.5-3.2,5.8l3.6,0.2l0.1,1.7h-6.8c0-2.5,0.3-1.9,2-3.6
		c1.2-1.1,2.3-1.8,2.1-3.6c-0.7-0.9-1.4-0.8-2.5-0.5C120.2,192,120.5,191.4,120.1,190.3L120.1,190.3z M133.3,191.5
		c-3,0.8-2,6.4,0.4,6c2.2-0.4,2.2-4.9,0.5-5.9C133.7,191.4,133.6,191.5,133.3,191.5L133.3,191.5z M106.9,197.3
		c2.3,0.1,3.5-0.3,3.5-2.7c0-2.6-1.1-2.8-3.5-2.7L106.9,197.3L106.9,197.3z M149.8,195.4c-0.4,0.1-0.5-0.1-0.8,0.5
		c-0.3,0.4-0.3,0.7,0,1.1c0.7,1.4,3.7,0.6,2.9-1C151.5,195.3,150.6,195.2,149.8,195.4L149.8,195.4z M149.2,192.6
		c0.4,1.4,2.4,1.1,2.3-0.3C151.5,191.1,149.3,190.9,149.2,192.6z M35.2,116.3c1.7-1.2,5.8-1.7,7.8-1.3c1.1,0.2,6.4,1.7,6.6,2.7
		c-0.7,0.2-2.8,0-4,0.3c-1.1,0.2-2.6,0.6-3.8,0.6C40.1,118.5,36.2,117.6,35.2,116.3L35.2,116.3z M184.3,113.9
		c1.9-0.9,10.6,2,10.3,3.3c-0.2,0.8-4.5-0.1-5.6-0.8c-0.7-0.5-1.3-1.1-2-1.5C186.1,114.4,184.7,114.3,184.3,113.9z M50.3,111.9
		l2.7,1.7c-0.1,0.1-3.5,1.9-3.7,1.9C48.2,115.5,50,112.3,50.3,111.9z M43.6,113.4l1.6-3.5c2.8,0.4,4,0.6,2.9,3.1
		c-0.6,1.4-0.4,1.6-1.8,1.2C45.8,114.1,44.1,113.6,43.6,113.4L43.6,113.4z M194,110.5l5.5,3.6l-0.1,0.2c-0.3,0.9-2.4,3.4-3.6,1.1
		C194.8,113.3,194.7,112.2,194,110.5z M31.5,112.3l6-2.5c0.3,0.7-2.2,3.6-2.7,4.2c-0.6,0.8-1,1.5-1.9,0.4
		C32.6,113.9,31.7,112.8,31.5,112.3L31.5,112.3z M37.1,113.8l2.6-4.3l4,0.1c-0.2,0.8-1.4,3.4-1.9,3.6
		C41.6,113.2,37.5,113.8,37.1,113.8z M188.1,108.6l3.9,1l1.5,4.9C189.6,112.6,188.1,113.4,188.1,108.6z M184.9,108.5l1.6,0l0.6,3.9
		c-1.5,0-1.8,0.2-1.9-1.1C185.2,110.5,184.9,109.2,184.9,108.5z M50.8,110.3l0.9-3.8c1.9,0.3,1.6,1.5,1.3,3
		C52.7,111.3,52.5,111.7,50.8,110.3L50.8,110.3z M186.3,104.8l0.2,2.1l-1,0L186.3,104.8L186.3,104.8z M45.8,108.4l0.8-3.6
		c0.5-0.1,2.3,0.5,2.8,0.7c1.3,0.5,0.9,1.3,0.5,2.4c-0.4,1.5-0.1,2-1.5,1.4C47.7,109,46.3,108.7,45.8,108.4z M199.4,101.9
		c0.1,0.2,0.2,2,0.5,2.8c0.3,0.8,0.8,1.5,1,2.3c0.3,1,0.6,5.3-0.4,5.6C199.1,112.8,198,103.1,199.4,101.9z M191.8,107.7l-3.7-0.6
		l0-3.9c0.3,0,3.5,0.5,3.6,0.6C192.3,104.1,191.9,106.9,191.8,107.7L191.8,107.7z M193.3,104.5l3.8,1.4l0.7,4.9
		c-0.4,0-2.9-1.6-3.5-1.9C192.2,107.7,194.1,105.9,193.3,104.5z M52.2,102.2l1.1,3.2C51.5,105.4,52,103.5,52.2,102.2z M40.3,107.9
		l1-3.7l3.7,0.2c0,0.2-0.7,3.5-0.8,3.6C44,108.5,41.1,108,40.3,107.9L40.3,107.9z M33.7,109.3c0.2-0.9,1.3-2.8,1.7-3.8
		c0.5-1.2,3-1.3,4.2-1.3c-0.1,0.8-0.7,3.8-1.4,4C37.6,108.4,34.2,109.3,33.7,109.3z M148.5,103.3c3.2,0.9,1.3,7.5,0.3,9.7
		c-6.6,14.4-38.3,23.5-53,27.4c-2.2,0.6-9.1,2.7-10.8,2.8c-2.7,0.1,1.3-1.4,1.7-1.6c1.8-0.5,3.5-0.9,5.3-1.4
		c10.3-3,20.1-5.9,30.1-10.1C132.8,125.5,150.3,117.3,148.5,103.3z M33.6,96.1c2.3,1.2,0,13.4-2.7,14.1c-1.6,0.4-0.4-6.5,0-7.6
		c0.4-1.1,1-2.1,1.6-3.1C32.8,98.8,33.4,96.4,33.6,96.1z M197.5,102.5l-0.2,1.7c-0.8-0.2-3.7-1.3-3.6-2.1c0.2-1.2,0.7-0.9,1.7-0.6
		C196,101.7,197,102.1,197.5,102.5L197.5,102.5z M41.4,98.8l3.8,0.2l0.2,3.9C40.6,102.8,41.4,103,41.4,98.8L41.4,98.8z M190,101.8
		l2.2-0.6C192.4,102.8,190.7,102.3,190,101.8z M35.9,103.2l0.1-3.9l3.7-0.5C39.8,102.8,41.1,102.7,35.9,103.2z M50.6,104.1l-3.8-1
		l0.1-3.7c0.4,0.1,3.2,0.7,3.5,0.8C51,100.5,50.7,103.3,50.6,104.1z M49.5,98.3L49.5,98.3z M38.5,94c1.5,3.2,1.5,3.4-1.9,3.6
		c-2.1,0.1-0.7-1,0-1.6C37.8,95.2,37.8,94.8,38.5,94z M49.5,98.3l-2.9-0.6l-0.2-1.4L49.5,98.3z M40.7,95.4l3.9,0.1l0.5,1.8
		c-0.6,0.1-2.3,0-3.1-0.1C40.7,97.2,41.2,96.5,40.7,95.4L40.7,95.4z M186.2,91.1l5.1,8.1c-0.5,0.5-3.3,0.8-4.8,2.2
		c-0.9,0.9-2.8,3.9-3,4.2l-7-6.7l1-1.3l5.2,3.3l-3.7-4.6l1.2-1.3l4.5,3.9l-2.9-5.1c0.3-0.2,1.1-0.9,1.4-0.9l3.7,4.5
		C187.1,95.8,183.3,91.3,186.2,91.1z M52.6,92l4.5-4.3l1.2,1l-3.5,5l5.1-3.5l1.1,1.3L56.9,96l5.3-2.7l1,1.4l-4.8,3.7l5.8-1.9
		l0.6,1.5l-5.5,3.2l6.1-1.2l0.4,1.5l-9.9,4c-0.5-0.6-0.8-6.3-5.3-9.3c-0.6-0.4-2.8-1.4-3.1-1.9l6.7-8.2C57.3,85.9,53,90.6,52.6,92
		L52.6,92z M150.7,78.6c-0.9,4.6-7.8,3.3-7.4-0.5C143.9,73.2,151.3,75.5,150.7,78.6z M108.5,72.6c-0.3,0.3-1.6,5.7-1.9,6.7
		c-0.7,2.2,0.1,7.3-0.4,8.1c-1.2,0.5-1.6-3.7-3.6-1.4c-3.8,4.5-7.2,6.8-12.9,8.9c0.2-0.9,4.2-5.3,5.1-6.5c1.8-2.4,3-5.2,4.4-7.3
		l-5.5-0.4c0.1-1.4,3.3-1,4.8-4.8c2.6-6.8-0.8-16.8,8.4-19.9c-0.8,3.3-2.9,6.7-2.4,10.3c1.4-1.3,3.3-10.9,7.9-14.8
		c1.5,4.1-2.9,7.2-3,12c-0.1,2.4,0.5,4.4,1.3,6.6C112.6,75.8,110.2,71.9,108.5,72.6z M131.9,45.4c-5.6-1.8-3.4-5.3-9.4,2.4
		c-5.9,7.5-1.8,11.2-2.3,12.4c-1.6,0.4-5.5-4.3-5.9-6.2c-0.8-3.3,0.9-6.6,3.1-9c1.9-2.1,4.4-4,6.8-5.5c2.3-1.4,7.6-3.4,9.9-2
		C131,41.6,131.9,39.8,131.9,45.4z M83.8,61.5c0,0,16.7-8.3,17.6-12.8l-4.7-1.6c1.7-1,2-0.3,6.4-3.5c2-1.4,3.7-2.8,5.9-4
		c1.6-0.8,5.1-2.9,6.7-3.2c2.1-0.3,6.8,0.8,9.2,0.7c-1.5,1.6-5.5,2.3-9.1,7.4c-2.6,3.5-4.2,6-7.8,8.7
		C103.2,56.9,89.6,62.9,83.8,61.5L83.8,61.5z"/>
	<g>
		<path class="st2" d="M193.3,182.5l5.9-7.1l4.4,7.3c0.5-3.7-0.2-8,0.3-12c0.5-4.5,2.5-5.8,3.5-9c-1.7,0.6-8.6,6-9.9,7.4
			C195.5,171.1,193.2,179.9,193.3,182.5L193.3,182.5z"/>
		<path class="st2" d="M207.2,67.6c-0.6-2.4-3-5.9-3.8-8.6c-0.6-2-1.3-9.8-1.8-10.7c-0.4,0.6-2.7,4.8-3,5l-5.2-6.5l-0.3,0.2
			c1,4,1.6,9.9,4.1,13.1C198.3,61.5,205.7,67.2,207.2,67.6L207.2,67.6z"/>
		<path class="st2" d="M52.7,199.1l-7.1,2.2c0.4,0.4,9.9,1.4,12,2.1c2.1,0.7,8.7,4.3,9.5,4.4c-0.6-1.8-5.9-8.6-7.4-9.9
			c-2.2-2-10.2-3.7-13.3-4.1L52.7,199.1z"/>
		<path class="st2" d="M10.8,100.2l-0.6,6.4c1,0.1,6-9.2,6.3-10.2c0.8-2.5,0.5-4.7,0.1-7.3c-0.2-1.2-0.8-6.4-1.3-6.9
			c-0.8,0.9-3.1,10.5-5,13.3c-1.2,1.9-2.7,3.3-4.4,4.7C2.8,102.7,9.8,99.9,10.8,100.2L10.8,100.2z"/>
		<path class="st2" d="M81.8,15.8c1.4,1,12,2,14.2,1.2c1.2-0.5,10.2-5.2,10-6.3l-10.3,1.3c-0.9-2.7,4.1-7.5-4.4-0.6
			C89.6,12.8,82,15.5,81.8,15.8z"/>
		<path class="st2" d="M15.2,147.2c1.3-1.6,2-11.4,1.5-13.5c-0.6-2.6-4-7.7-5.6-10.1c-1.3-1.9-0.9-0.1-0.8,1.1
			c0.1,1.1,0.2,2.3,0.4,3.5C11.2,131.5,13.7,146,15.2,147.2L15.2,147.2z"/>
		<path class="st2" d="M146.7,213.7c-1.5-1-11.4-2-13.5-1.5c-2.5,0.6-7.7,4.1-10.1,5.6c-2.7,1.7,3.7,0.5,4.6,0.4
			C130.7,217.8,146,215.1,146.7,213.7z"/>
		<path class="st2" d="M218.2,122.8c-1.1,0.4-5.3,8.1-6,9.6c-1.6,3.4-0.1,9.8,0.6,13.5c0.4,2.1,0.5,1.8,1.1,0
			C215.6,141.7,218.3,126,218.2,122.8L218.2,122.8z"/>
		<path class="st2" d="M146.7,15.7c-1.5-1.6-15.6-3.8-19-4.4c-1.1-0.2-2.3-0.3-3.5-0.4c-1.4-0.1-2.9-0.6-1,0.8
			c1.8,1.3,8.1,5.1,10,5.5C135,17.7,145.7,16.8,146.7,15.7z"/>
		<path class="st2" d="M218.1,106.7c0.9-1.2-3.4-23.3-4.8-24.4c-0.5,0.5-1.2,5.8-1.4,6.9c-0.4,2.7-0.8,4.6,0.1,7.3
			C212.3,97.7,217.3,106.4,218.1,106.7z"/>
		<path class="st2" d="M161.3,207.7c2.5-0.4,20.2-12,20.8-14c-3.5,0.7-10.6,1.8-13.3,4C167.3,199,161.9,206,161.3,207.7L161.3,207.7
			z"/>
		<path class="st2" d="M35.3,182.7c-0.3-3.2-2.2-10.8-4.1-13.4c-1.4-1.9-7.7-6.4-9.9-7.6C21.6,164.2,33.2,181.8,35.3,182.7
			L35.3,182.7z"/>
		<path class="st2" d="M21.2,67.6c1.7-0.5,8.8-6,10-7.5c1.7-2.2,4-10.7,4.1-13.4C32.6,48.8,22,64.5,21.2,67.6z"/>
		<path class="st2" d="M81.7,213.8c1,1.8,21.5,4.9,24.4,5c-0.4-1.1-8.8-5.8-10.2-6.3C94,211.7,83.3,212.4,81.7,213.8L81.7,213.8z"/>
		<path class="st2" d="M182.1,35.8c-0.9-2.2-18.4-13.8-20.8-14c1,2,5.8,8.6,7.5,9.9C172,34.2,178.2,34.8,182.1,35.8L182.1,35.8z"/>
		<path class="st2" d="M46.3,35.8c3.7-0.9,10.4-1.7,13.3-4c1.4-1.2,7-8.4,7.5-10C64.5,22.3,47.2,33.6,46.3,35.8z"/>
		<path class="st2" d="M159.9,79.6c0.2,0.4,1.4,1.1,1.8,1.4c1,0.7,1,0.5,2.1,0c3-1.4,6-3.1,8.9-4.3c0.7-0.3,4.5-1.4,4-2.3
			c-1.2-2-9.2-1.3-11.2-0.9c-1.6,0.3-4.6,0.3-3.6,2.1C163,77.4,160.1,78.3,159.9,79.6z"/>
		<path class="st2" d="M52.5,92.3C52.5,92.3,52.6,92.2,52.5,92.3C52.6,92.2,52.6,92.2,52.5,92.3C52.6,92.2,52.4,92.1,52.5,92.3z"/>
	</g>
</g>
</svg>
