<?xml version="1.0" encoding="UTF-8"?>
<!DOCTYPE svg PUBLIC "-//W3C//DTD SVG 1.1//EN" "http://www.w3.org/Graphics/SVG/1.1/DTD/svg11.dtd">
<!-- Creator: CorelDRAW 2017 -->
<svg xmlns="http://www.w3.org/2000/svg" xml:space="preserve" width="106px" height="7px" version="1.1" style="shape-rendering:geometricPrecision; text-rendering:geometricPrecision; image-rendering:optimizeQuality; fill-rule:evenodd; clip-rule:evenodd"
viewBox="0 0 106 7"
 xmlns:xlink="http://www.w3.org/1999/xlink">
 <defs>
  <style type="text/css">
   <![CDATA[
    .fil0 {fill:#E49B0E}
   ]]>
  </style>
 </defs>
 <g id="Layer_x0020_1">
  <metadata id="CorelCorpID_0Corel-Layer"/>
  <path class="fil0" d="M81.13 4.91l-1.55 0 0 -0.99c4.42,0 8.22,-2.4 13.4,-2.4 4.09,0 8.14,2.09 12.11,2.37l0 1.03c-1.53,-0.1 -3.22,-0.47 -5.76,-1.14 -5.72,-1.51 -7.83,-1.57 -13.56,0.13 -0.57,0.17 -1.66,0.36 -2.1,0.58 0.28,0.53 0.45,1.15 0.71,1.69 -0.99,-0.08 -2.43,-1.27 -3.25,-1.27zm-80.2 -0.99c1.95,-0.08 4.48,-0.73 6.08,-1.19 5.39,-1.53 7.23,-1.85 12.53,-0.52 1.43,0.36 3.78,1.43 5.3,1.43l0 -2.82c0.11,0.12 0.14,0.15 0.26,0.31l0.78 1.2c0.29,0.49 0.81,1.11 0.94,1.59 2.19,0 4.73,-0.69 6.55,-1.21 6.08,-1.73 7.18,-1.4 13.01,0.07 1.11,0.27 2,0.54 3.06,0.75 4.3,0.86 6.01,0.25 10.19,-0.79 5.94,-1.49 7.4,-1.77 13.54,-0.03 1.72,0.49 4.36,1.21 6.41,1.21l0 0.99c-5.64,0 -7.25,-2.23 -13.94,-2.23 -3.16,0 -8.14,2.23 -11.45,2.23 -3.74,0 -3.78,-0.14 -7.51,-1.1 -6.25,-1.6 -6.86,-1.56 -13.09,-0.03 -6,1.47 -7.16,1.62 -13.26,0 -5.79,-1.53 -7.33,-1.53 -13.12,0 -2.44,0.65 -3.59,1.1 -6.3,1.13l0 -0.99 0.02 0z"/>
 </g>
</svg>
