<?xml version="1.0" encoding="UTF-8"?>
<!DOCTYPE svg PUBLIC "-//W3C//DTD SVG 1.1//EN" "http://www.w3.org/Graphics/SVG/1.1/DTD/svg11.dtd">
<!-- Creator: CorelDRAW 2017 -->
<svg xmlns="http://www.w3.org/2000/svg" xml:space="preserve" width="200px" height="160px" version="1.1" style="shape-rendering:geometricPrecision; text-rendering:geometricPrecision; image-rendering:optimizeQuality; fill-rule:evenodd; clip-rule:evenodd"
viewBox="0 0 200 160"
 xmlns:xlink="http://www.w3.org/1999/xlink">
 <defs>
  <style type="text/css">
   <![CDATA[
    .fil0 {fill:#E49B0E}
   ]]>
  </style>
 </defs>
 <g id="Layer_x0020_1">
  <metadata id="CorelCorpID_0Corel-Layer"/>
  <path class="fil0" d="M200.07 0c0,6.47 -1.77,13.04 -3.55,19.61 -1.82,6.76 -3.65,13.53 -3.65,20.39 0,6.86 1.83,13.63 3.65,20.39 1.78,6.57 3.55,13.14 3.55,19.61 0,6.47 -1.77,13.04 -3.55,19.61 -0.53,1.97 -1.06,3.95 -1.55,5.92 -0.8,-2.64 -1.67,-5.17 -2.65,-7.33 -1.29,-2.84 -3.85,-8.62 -4.26,-9.37 -1.75,-3.26 -3.88,-6.77 -6.13,-9.72 -1.68,-2.21 -5.99,-6.76 -6.99,-8.84 -1.31,-2.71 -1.35,-11.7 -2.74,-13.19 -0.65,0.71 -2.66,7.18 -4.91,9.94 -1,1.23 -7.46,6.85 -7.51,7.2 6.81,2.73 9.13,-4.75 16.77,4.36 10.34,12.31 13.6,24.96 16.36,39.68 -0.02,0.47 -0.03,0.94 -0.04,1.41 -1.15,-1.26 -2.49,-2.57 -4.06,-3.95 -3.95,-3.48 -8.12,-6.26 -12.36,-9.33 -2.01,-1.45 -4.72,-3.23 -5.78,-5.53 -0.82,-1.78 -0.69,-6.28 -1.28,-7.09l-2.86 4.12c-4.31,-3.22 -6.59,-11.6 -9.63,-15.73 -0.96,5.16 5.52,19.55 8.15,24.24 2.45,4.39 5.3,8.73 8.44,12.65 3.51,4.39 6.68,6.14 9.93,9.66l-6.19 7.22c2.63,1.05 9.1,-2.5 15.35,1.87 3.56,2.49 4.98,7.1 6.18,11.46 0.78,3.6 1.31,7.19 1.31,10.74l-200.14 0 0 -160 200.14 0zm-41.96 68.92c-3.55,-2.45 -11.92,-3.35 -16.05,-2.56 -2.17,0.41 -13.2,3.58 -13.51,5.74 1.42,0.41 5.75,-0.04 8.3,0.46 2.37,0.47 5.39,1.14 7.78,1.09 3.37,-0.07 11.34,-2.02 13.48,-4.73zm-31.33 -8.8l-5.61 3.58c0.29,0.3 7.28,3.89 7.68,3.9 2.31,0.06 -1.39,-6.6 -2.07,-7.48zm13.81 2.98l-3.38 -7.1c-5.66,0.92 -8.29,1.31 -5.96,6.53 1.26,2.79 0.92,3.32 3.76,2.4 1.23,-0.4 4.71,-1.28 5.58,-1.83zm24.98 -2.52l-12.49 -5.03c-0.51,1.45 4.6,7.26 5.69,8.53 1.34,1.57 2.17,3.14 3.88,0.9 0.74,-0.97 2.52,-3.34 2.92,-4.4zm-11.49 3.24l-5.47 -8.81 -8.22 0.26c0.44,1.55 2.87,6.88 3.96,7.32 0.46,0.19 8.92,1.22 9.73,1.23zm-28.4 -6.93l-1.94 -7.75c-3.87,0.66 -3.3,3.18 -2.63,6.14 0.86,3.74 1.25,4.47 4.57,1.61zm10.42 -4.04l-1.65 -7.44c-1.11,-0.17 -4.67,1 -5.83,1.44 -2.65,1 -1.73,2.71 -1.03,5.05 0.94,3.1 0.17,4.16 3.13,2.93 1.42,-0.59 4.28,-1.3 5.38,-1.98zm-13.41 -12.66l-2.2 6.63c3.66,0.02 2.7,-3.91 2.2,-6.63zm24.62 11.58l-2.11 -7.61 -7.68 0.46c0.02,0.45 1.56,7.22 1.7,7.45 0.6,1 6.55,-0.01 8.09,-0.3zm13.63 2.68c-0.47,-1.85 -2.64,-5.69 -3.52,-7.76 -1,-2.38 -6.23,-2.68 -8.74,-2.65 0.17,1.75 1.57,7.74 3.04,8.24 1.1,0.39 8.24,2.16 9.22,2.17zm-0.13 -27.08c-4.68,2.6 0.23,27.6 5.85,29.06 3.23,0.84 0.65,-13.47 -0.1,-15.6 -0.8,-2.28 -2.13,-4.27 -3.24,-6.42 -0.84,-1.62 -2.1,-6.51 -2.51,-7.04zm-15.92 5.7l-7.76 0.39 -0.24 7.95c9.74,-0.1 8.1,0.29 8,-8.34zm11.33 8.82l-0.39 -7.96 -7.72 -0.99c0.07,8.3 -2.58,8.17 8.11,8.95zm-30.15 2.34l7.84 -2.15 -0.3 -7.7c-0.87,0.16 -6.63,1.45 -7.18,1.71 -1.35,0.64 -0.67,6.51 -0.36,8.14zm24.59 -21.05c-3.04,6.67 -2.96,7.04 3.88,7.27 4.4,0.15 1.34,-2.07 -0.11,-3.18 -2.31,-1.78 -2.22,-2.59 -3.77,-4.09zm-22.51 8.93l5.92 -1.36 0.41 -2.81 -6.33 4.17zm18.04 -6.16l-7.96 0.37 -1.01 3.79c1.26,0.11 4.83,-0.14 6.29,-0.2 2.74,-0.12 1.69,-1.7 2.68,-3.96zm-24.59 -6.61l-9.36 -8.72 -2.46 2.09 7.33 10.3 -10.49 -7.19 -2.21 2.64 8.53 9.06 -10.92 -5.52 -1.98 3 9.97 7.57 -11.94 -3.86 -1.21 3.04 11.37 6.44 -12.56 -2.39 -0.83 3.1 20.51 7.95c1.02,-1.31 1.55,-12.96 10.63,-19.36 1.25,-0.88 5.83,-2.96 6.31,-3.94l-14.05 -16.79c-6.29,0.13 2.66,9.6 3.36,12.58zm-0.83 101.81c-0.55,-0.05 -6.62,2.48 -7.8,2.87 -2.6,0.86 -6.95,5.12 -8.08,5.25 -1.31,-0.76 2.42,-4.08 -1.16,-4.36 -6.95,-0.53 -11.59,-2.13 -17.6,-6.18 1.03,-0.41 8.09,0.37 9.8,0.41 3.61,0.06 7.02,-0.74 10.11,-0.9l-3.48 -5.53c1.45,-0.94 3.27,2.49 7.94,1.26 8.33,-2.21 15.61,-12.54 25.01,-5.84 -3.71,1.53 -8.46,1.94 -11.64,4.87 2.26,0.42 12.74,-4.46 19.73,-2.72 -2.94,4.32 -8.96,2.28 -13.68,5.48 -2.33,1.59 -3.91,3.56 -5.48,5.87 -3.87,5.71 -1.67,0.7 -3.67,-0.48zm42.62 3.57c-2.15,-6.71 2.71,-6.89 -8.88,-7.32 -11.4,-0.43 -12.08,6.08 -13.54,6.44 -1.52,-1.21 0.34,-8.27 1.85,-9.99 2.65,-3.05 6.97,-3.66 10.78,-3.25 3.39,0.37 6.93,1.41 10.09,2.68 2.96,1.19 8.59,4.94 8.86,8.08 -6.15,-0.17 -3.78,-0.55 -9.16,3.36zm-49.11 -35.05c0.04,-0.02 19.62,10.33 24.59,7.99l-1.74 -5.59c2.2,0.95 1.71,1.74 7.82,3.8 2.77,0.93 5.33,1.61 7.98,2.9 1.9,0.93 6.39,2.89 7.76,4.25 1.82,1.81 3.94,7.09 5.71,9.38 -2.6,-0.38 -6.09,-3.64 -13.46,-3.63 -5.2,0 -8.7,0.14 -13.79,-1.48 -6.87,-2.17 -22.18,-11.04 -24.87,-17.62z"/>
 </g>
</svg>
