<?xml version="1.0" encoding="UTF-8"?>
<!DOCTYPE svg PUBLIC "-//W3C//DTD SVG 1.1//EN" "http://www.w3.org/Graphics/SVG/1.1/DTD/svg11.dtd">
<!-- Creator: CorelDRAW 2017 -->
<svg xmlns="http://www.w3.org/2000/svg" xml:space="preserve" width="160px" height="54px" version="1.1" style="shape-rendering:geometricPrecision; text-rendering:geometricPrecision; image-rendering:optimizeQuality; fill-rule:evenodd; clip-rule:evenodd"
viewBox="0 0 160 54"
 xmlns:xlink="http://www.w3.org/1999/xlink">
 <defs>
  <style type="text/css">
   <![CDATA[
    .fil0 {fill:black}
    .fil1 {fill:#E49B0E}
   ]]>
  </style>
 </defs>
 <g id="Layer_x0020_1">
  <metadata id="CorelCorpID_0Corel-Layer"/>
  <g id="_1806319810784">
   <path class="fil0" d="M0 47.39c6.86,0 13.63,-1.83 20.39,-3.65 6.57,-1.78 13.14,-3.55 19.61,-3.55 6.47,0 13.04,1.77 19.61,3.55 6.76,1.82 13.53,3.65 20.39,3.65 1.51,0 3.02,-0.09 4.52,-0.25l-3.63 -6.64 8.55 5.9c3.66,-0.69 7.31,-1.68 10.95,-2.66 6.57,-1.78 13.14,-3.55 19.61,-3.55 6.47,0 13.04,1.77 19.61,3.55 6.76,1.82 13.53,3.65 20.39,3.65l0 -47.2 -160 0 0 47.2z"/>
   <path class="fil1" d="M144.1 47.61c-16.07,1.12 -32.41,0.5 -47.19,0 23.5,-6.12 23.8,-5.95 47.19,0zm-81.5 0c-6.38,0 -11.02,0.18 -17.34,0.35 -1.33,0.04 -2.85,-0.16 -3.06,1.13l-0.68 4.72c-1.7,-1.44 -4.23,-5.65 -6.25,-5.63 -6.47,0.08 -13.02,-0.01 -19.73,-0.57 25.32,-5.33 20.93,-6.88 47.06,0z"/>
  </g>
 </g>
</svg>
