<?xml version="1.0" encoding="UTF-8"?>
<!DOCTYPE svg PUBLIC "-//W3C//DTD SVG 1.1//EN" "http://www.w3.org/Graphics/SVG/1.1/DTD/svg11.dtd">
<!-- Creator: CorelDRAW 2017 -->
<svg xmlns="http://www.w3.org/2000/svg" xml:space="preserve" width="160px" height="54px" version="1.1" style="shape-rendering:geometricPrecision; text-rendering:geometricPrecision; image-rendering:optimizeQuality; fill-rule:evenodd; clip-rule:evenodd"
viewBox="0 0 160 54"
 xmlns:xlink="http://www.w3.org/1999/xlink">
 <defs>
  <style type="text/css">
   <![CDATA[
    .fil0 {fill:black}
    .fil1 {fill:#E49B0E}
   ]]>
  </style>
 </defs>
 <g id="Layer_x0020_1">
  <metadata id="CorelCorpID_0Corel-Layer"/>
  <g id="_1806330737648">
   <path class="fil0" d="M160 47.39c-6.86,0 -13.63,-1.83 -20.39,-3.65 -6.57,-1.78 -13.14,-3.55 -19.61,-3.55 -6.47,0 -13.04,1.77 -19.61,3.55 -6.76,1.82 -13.53,3.65 -20.39,3.65 -6.86,0 -13.63,-1.83 -20.39,-3.65 -3.09,-0.84 -6.18,-1.67 -9.26,-2.32 1.55,-0.34 2.8,-0.61 3.22,-0.74 5.6,-1.59 7,-3.47 12.91,-2.85 -0.73,-2.62 -2.4,-4.66 -2.55,-6.53 -0.07,-0.91 -1.55,2.22 -3.5,3.43 -5.24,3.26 -5.62,2.67 -11.12,4.18 -3.42,0.94 -7.28,1.08 -10.96,1.32 -5.93,0.26 -11.95,1.88 -17.96,3.51 -6.76,1.82 -13.53,3.65 -20.39,3.65l0 -47.2 160 0 0 47.2zm-84.3 -32.91c0.56,2.99 -6.72,14.05 -8.41,13.11 -1.1,-0.61 1.77,-6.3 3.23,-7.54 0.93,-0.79 1.97,-1.47 2.87,-2.3 0.99,-0.91 1.66,-2.85 2.31,-3.27zm1.19 14.8l-7.14 6.39 -0.24 -0.3c-1.14,-0.74 -3.8,-4.66 -0.2,-5.38 3.31,-0.66 4.83,-0.39 7.58,-0.71zm4.75 -7.46l-2.88 5.01 -7.33 0.31c4.08,-4.72 3.5,-7.12 10.21,-5.32zm1.33 -4.44l-0.59 2.28 -5.6 -0.62c0.49,-2.04 0.42,-2.51 2.23,-2.24 1.05,0.16 3.08,0.26 3.96,0.58zm4.68 3.24l-3.01 -0.57 0.37 -1.46 2.64 2.03zm-0.78 19.37c-0.37,0.12 -2.8,-0.52 -4.02,-0.41 -1.23,0.12 -2.32,0.54 -3.6,0.59 -1.44,0.05 -7.66,-1.13 -7.61,-2.62 0.06,-2 14,0.1 15.23,2.44zm-5.3 -12.74l2.29 -4.96 5.4 1.4c-0.09,0.35 -2.06,4.65 -2.19,4.79 -0.74,0.77 -4.43,-0.8 -5.5,-1.23zm3.94 3.35l-3.36 4.76 -7.16 -0.84c0.18,-0.57 3.34,-3.47 3.99,-4.13 2.49,-2.55 4.21,0.72 6.53,0.21zm1.15 6.49l-2.33 -0.96c0.53,-1.1 3.13,-4.72 4.25,-4.19 1.63,0.78 1.03,1.28 0.19,2.65 -0.5,0.8 -1.31,2.05 -2.11,2.5zm3.75 -10.1l0.01 3.28c-2.23,-0.4 -0.87,-2.5 -0.01,-3.28zm16.4 -1.31l-13.19 4.11c-0.44,-0.91 0.17,-4.86 -1.31,-7.58 -0.86,-1.58 -4.42,-5.32 -4.73,-5.82l11.93 -7.27 1.39 1.85 -6.46 5.99 7.86 -3.43 1.32 2.18 -7.11 4.79 8.24 -2.1c0.17,0.43 0.9,1.92 0.8,2.28l-7.6 3.49c2.01,0.97 9.71,-2.69 8.86,1.51z"/>
   <path class="fil1" d="M17.47 47.72c15.26,0.9 20.44,-0.45 34.53,6.09 -1.3,-1.72 -4.67,-5.68 -2.28,-5.74 4.43,-0.11 8.9,-0.27 13.43,-0.46 -1.7,-0.43 -3.36,-0.89 -5.02,-1.35 -6.26,-1.72 -14.26,-3.35 -20.73,-3.35 -6.08,0 -10.08,1.57 -16.23,3.26 -1.15,0.31 -2.3,0.63 -3.47,0.94 -0.98,0.26 -2.27,0.49 -0.23,0.61zm77.87 -0.11c26.19,1.03 42.37,1.06 47.87,0 -6.79,-1.76 -17.61,-5.22 -23.74,-5.22 -6.13,0 -12.77,1.94 -19.32,3.85 -1.61,0.47 -3.21,0.93 -4.81,1.37z"/>
  </g>
 </g>
</svg>
