<?xml version="1.0" encoding="UTF-8"?>
<!DOCTYPE svg PUBLIC "-//W3C//DTD SVG 1.1//EN" "http://www.w3.org/Graphics/SVG/1.1/DTD/svg11.dtd">
<!-- Creator: CorelDRAW 2017 -->
<svg xmlns="http://www.w3.org/2000/svg" xml:space="preserve" width="320px" height="243px" version="1.1" style="shape-rendering:geometricPrecision; text-rendering:geometricPrecision; image-rendering:optimizeQuality; fill-rule:evenodd; clip-rule:evenodd"
viewBox="0 0 320 243"
 xmlns:xlink="http://www.w3.org/1999/xlink">
 <defs>
  <style type="text/css">
   <![CDATA[
    .fil2 {fill:#E49B0E}
    .fil1 {fill:black}
    .fil0 {fill:white;fill-rule:nonzero}
   ]]>
  </style>
 </defs>
 <g id="Layer_x0020_1">
  <metadata id="CorelCorpID_0Corel-Layer"/>
  <g id="_1806330704880">
   <path class="fil0" d="M0 42.88c6.86,0 13.63,1.83 20.39,3.66 6.57,1.77 13.14,3.54 19.61,3.54 14.93,0 22.96,-4.79 33.54,-15.02 22.38,-21.63 52.87,-34.95 86.46,-34.95l0 0 0 0c33.59,0 64.07,13.32 86.46,34.95 10.58,10.23 18.61,15.02 33.54,15.02 6.47,0 13.04,-1.77 19.61,-3.54 6.76,-1.83 13.53,-3.66 20.39,-3.66l0 0 0 200.01 -320 0 0 -200.01z"/>
   <g>
    <path class="fil1" d="M266.22 123.74l0 1.12c-0.11,2.1 -0.85,4.45 -2.49,7.31 -0.57,0.99 -6.05,10.14 -6.12,10.19 -0.02,-0.01 -3.7,-7.39 -4.26,-8.33 -2.1,-3.52 -3.65,-4.13 -4.3,-8.28 -3.21,1.9 -3.44,2.42 -1.01,4.69 3.18,2.99 2.85,3.35 4.88,6.82 3.11,5.32 4.22,11.49 5.35,17.47 3.72,19.77 -11.57,14.97 -16.92,27.1 -2.33,5.27 -1.52,12.39 -5.58,17.23 -3.8,4.52 -11.73,5.86 -16.88,3.3 -2.72,-1.35 -4.68,-3.38 -3.72,0.62 1.05,4.32 -0.12,4.29 -2.93,6.76 -3.57,3.14 -5.44,9.7 -10.34,12.51 -5.41,3.09 -13.56,-0.47 -19.59,-0.55 -6.46,-0.08 -10.29,4.1 -15.58,7.07 -2.2,1.24 -4.14,1.83 -5.91,1.97l-1.65 0c-8.34,-0.66 -13.23,-11.18 -26.24,-8.55 -6.42,1.29 -12.61,3.15 -17.68,-2.38 -3.56,-3.88 -5.86,-9.58 -10.16,-12.63 -4.76,-3.36 -11.92,-2.86 -17.32,-5.48 -2.77,-1.35 -4.28,-3.22 -5.39,-6.06 -0.63,-1.61 -2.32,-7.72 -2.2,-9.18l5.88 -0.99c-4,-3.08 -8.23,-6.69 -12.38,-9.72 -1.5,-1.09 -5.76,-3.13 -8.49,-6.09 -3.39,-3.69 -3.96,-11.27 -3.04,-16.73 1.39,-8.24 2.71,-15.15 8.26,-21.89 3.73,-4.55 4.92,-0.86 8.28,-2.25 -0.03,-0.17 -3.25,-2.92 -3.76,-3.52 -1.12,-1.35 -2.16,-4.55 -2.48,-4.9 -0.68,0.75 -0.65,5.2 -1.28,6.54 -0.49,1.04 -2.6,3.32 -3.42,4.42 -1.1,1.47 -2.13,3.22 -2.98,4.84 -0.26,0.5 -2.38,5.44 -2.42,5.44l-0.04 0.02c-2.11,-3.33 -6.52,-9.64 -7.77,-13.03 -2.23,-6.06 0.79,-10.19 3.98,-15.01 3.86,-5.81 5.23,-8.52 3.96,-15.78 -1.01,-5.75 -3.14,-11.51 1.07,-16.64 1.4,-1.7 9.85,-8.5 11.7,-8.25 1.51,0.2 5.11,3.7 5.4,2.44 0.26,-1.15 -1.6,-5.7 -1.39,-8.39 0.29,-3.73 2.4,-13.12 4.51,-16.16 3.28,-4.72 9.32,-5.03 14.45,-6.2 14.37,-3.26 12.78,-16.41 22.61,-18.73 5.7,-1.34 12.1,1.93 18.22,1.5 5.54,-0.39 9.28,-4.07 13.85,-6.79 13.09,-7.8 17.8,7.08 29.78,6.88 5.95,-0.11 11.96,-3.37 17.87,-1.06 4.54,1.77 7.57,6.77 9.85,10.82 -9.96,-5.22 -13.79,-8.19 -25.79,-5.49 -4.4,0.99 -8.42,2.49 -12.68,3.89 -2.02,0.66 -4.62,1.65 -6.75,1.23 -1.64,-0.32 -4.7,-2.68 -5.56,-2.68l1.42 4.06c-4.4,1.37 -11.36,-1.27 -15.76,-1.24 3.1,3.27 16.34,6.01 20.92,6.54 4.28,0.5 8.72,0.71 13.02,0.51 4.81,-0.23 7.62,-1.55 11.7,-2.04l1.89 7.93c2.05,-1.3 2.84,-7.57 9.02,-9.71 4.78,-1.66 10.31,1.42 14.86,2.85 11.81,3.7 18.78,0.98 22.42,15.02 1.35,5.22 1.16,9.52 5.3,13.42 3.28,3.09 7.42,5.11 10.65,8.06 3.75,3.44 5.96,8.19 1.33,12.02 -0.64,0.53 -5.47,3.43 -5.49,3.57 -0.14,0.78 5.25,-1 7.04,0.25 0.01,5.49 -2.28,7.97 0.99,13.87 3.25,5.87 7.02,9.51 7.29,14.45zm-83.81 -66.6c-1.03,-0.13 -2.07,-0.17 -3.1,-0.19 -1.84,-0.05 -3.58,-0.12 -5.44,-0.12 -0.27,0 -0.51,0 -0.73,-0.01l-1.6 0c-0.56,0.11 -0.96,0.48 -1.71,1.53 -4.45,6.2 -1.03,10.14 1.88,15.95 -0.9,-0.02 -5.61,-2.64 -6.72,-3.26 -1.04,-0.57 -5.23,-4.26 -5.48,-4.31 -2.11,1.63 -2.22,7.64 -1.38,10.03 0.6,1.71 2.71,8.19 3.23,9.29l-5.39 -1.65c-0.67,3.65 -1.61,4.11 -1.61,8.73 0,1.52 0.12,9.27 -0.4,10.03l-4.82 -5.29c-3.55,2.99 -4.96,4.86 -9.42,7.06 -3.88,1.91 -8.02,2.97 -12.02,4.42 0.66,-2.39 11.83,-12.78 12.83,-16.71l-7.26 -2.77c1.93,-2.16 7.72,-2.06 8.79,-6.88 0.48,-2.19 0.62,-4.71 0.88,-6.95 0.29,-2.51 0.95,-4.31 1.32,-6.5 -3.42,1.23 -7.32,2.53 -10.93,2.91 -1.47,0.16 -11.74,-0.24 -12.16,-1.43 0.45,-0.76 21.69,-9.53 21.56,-12.77 -0.91,-0.88 -3.46,-1.27 -6.34,-1.43 -9.46,0 -18.93,0.02 -28.39,0l-2.52 16.25 15.98 6.28 0 90.43 -15.79 5.9 0.02 0.16 -0.01 0 2.51 16.11 72 0c13.52,0 24.59,-4.17 32.41,-10.95 8.34,-7.22 12.97,-17.37 12.97,-28.61 0,-8.62 -2.86,-16.63 -7.68,-23.15 -4.3,-5.82 -10.15,-10.45 -16.91,-13.27 3.39,-2.78 6.26,-6.21 8.38,-10.12 2.53,-4.66 3.99,-9.98 3.99,-15.68 0,-9.22 -3.99,-17.64 -10.57,-23.71 -5.34,-4.93 -12.38,-8.31 -20.37,-9.32l0 0zm-39.92 -1.59l4.48 1.51c-0.88,4.63 -17.9,13.01 -17.91,13.04 5.92,1.45 19.77,-4.72 24.73,-8.39 3.68,-2.72 5.35,-5.21 7.96,-8.83 1.75,-2.41 3.56,-3.86 5.16,-4.88l0.36 0.02c1.63,-1.01 3,-1.6 3.77,-2.4 -2.48,0.07 -7.2,-1.11 -9.38,-0.75 -1.63,0.26 -5.25,2.39 -6.85,3.25 -2.22,1.19 -3.99,2.62 -6.02,4.07 -4.26,3.03 -4.76,2.53 -6.3,3.36zm17.69 6.91c0.44,1.91 4.4,6.75 6.01,6.31 0.48,-1.2 -3.69,-4.94 2.33,-12.63 6.13,-7.83 3.82,-4.36 9.55,-2.48 0,-0.25 0,-0.49 -0.01,-0.71l0 0 0 -0.03c-0.03,-1.46 -0.11,-2.3 -0.11,-2.91 -0.02,-0.53 0.01,-0.88 0.14,-1.24l0.11 0.01c0.3,-0.6 0.92,-1.32 2.15,-2.92 -2.31,-1.39 -7.75,0.63 -10.06,2.08 -2.47,1.56 -4.97,3.49 -6.93,5.66 -2.2,2.43 -3.97,5.43 -3.18,8.86zm-6.02 18.97c-0.31,0.35 -1.61,5.84 -1.93,6.85 -0.71,2.24 0.06,7.4 -0.42,8.25 -1.18,0.52 -1.61,-3.73 -3.61,-1.38 -3.86,4.55 -7.3,6.96 -13.13,9.1 0.23,-0.92 4.32,-5.43 5.2,-6.6 1.87,-2.47 3.02,-5.24 4.47,-7.47l-5.59 -0.36c0.08,-1.48 3.37,-1.01 4.86,-4.87 2.67,-6.9 -0.84,-17.14 8.53,-20.29 -0.8,3.34 -2.91,6.84 -2.47,10.52 1.43,-1.36 3.31,-11.08 8.03,-15.06 1.52,4.22 -2.92,7.37 -3.07,12.25 -0.07,2.42 0.5,4.51 1.32,6.75 2.01,5.56 -0.36,1.52 -2.19,2.31zm29.61 125.22c-1.28,7.31 -9.21,4.7 -8.34,-1.56 0.97,-6.91 9.48,-4.93 8.34,1.56zm-33.53 4.07l-0.04 -9.72c1.38,-0.38 4.63,-0.11 5.84,0.54 3.93,2.11 3.81,10.91 -5.8,9.18zm48.87 -5.25c4.47,4.75 -3.63,7.72 -5.52,3.73 -0.96,-2.03 0.27,-2.59 1.07,-3.72 -0.61,-1.12 -1.39,-1.43 -0.59,-3.11 0.99,-2.06 4.39,-2.21 5.57,-0.1 0.97,1.73 0.03,2.1 -0.53,3.2zm-76.44 -0.53l4.07 0.1 0.03 1.87 -4.03 0.05 -0.1 1.72 4.98 0.03 0.04 2.06 -7.22 0 0 -9.86 7.07 0 0 2.17 -4.83 0.04 -0.01 1.82zm22.1 -1.8l-0.03 7.63 -2.2 0 -0.01 -7.63 -2.94 -0.02 0 -2.21 8 0.01c0.93,2.93 -1.02,2.08 -2.82,2.22zm41.2 -0.65c1.34,-0.87 2.43,-1.73 4.1,-1.55l0.04 9.83 -2.07 0 0 -7.02 -1.28 0.27 -0.79 -1.53zm-49.64 0.78c-1.03,-0.28 -3.31,-1.04 -3.95,0.15 -0.06,2.14 6.03,1.03 5.03,5.31 -0.82,3.5 -5.38,2.04 -7.38,1.45l0.76 -1.91c1.1,0.67 3.52,1.29 4.54,0.02 -0.34,-1.3 -2.47,-1.3 -3.67,-1.96 -1.43,-0.8 -2.02,-2.45 -1.22,-3.97 0.78,-1.48 2.58,-1.74 4.12,-1.58 1.66,0.18 3.58,0.62 1.77,2.49zm29.68 -1.72c1.92,-1.17 5.66,-1.26 6.32,1.38 0.91,3.63 -2.66,4.59 -3.24,5.9l3.72 0.2 0.07 1.74 -6.89 0c-0.04,-2.53 0.32,-1.9 2.06,-3.64 1.17,-1.17 2.39,-1.87 2.13,-3.67 -0.75,-0.88 -1.44,-0.81 -2.51,-0.53 -1.53,0.41 -1.25,-0.21 -1.66,-1.38zm13.49 1.27c-3.04,0.83 -2.06,6.57 0.4,6.16 2.24,-0.38 2.2,-5.03 0.48,-6.02 -0.49,-0.28 -0.6,-0.21 -0.88,-0.14zm-26.95 5.87c2.35,0.11 3.53,-0.25 3.54,-2.78 0.02,-2.6 -1.16,-2.86 -3.53,-2.78l-0.01 5.56zm43.74 -1.89c-0.35,0.11 -0.51,-0.05 -0.84,0.49 -0.26,0.41 -0.27,0.7 -0.06,1.13 0.72,1.43 3.75,0.65 2.96,-1.02 -0.37,-0.79 -1.29,-0.84 -2.06,-0.6zm-0.59 -2.95c0.38,1.38 2.42,1.08 2.36,-0.28 -0.06,-1.19 -2.32,-1.45 -2.36,0.28zm-116.21 -77.69c1.74,-1.23 5.88,-1.72 7.92,-1.35 1.08,0.19 6.56,1.7 6.72,2.77 -0.7,0.21 -2.84,0.01 -4.1,0.27 -1.18,0.25 -2.66,0.59 -3.85,0.58 -1.66,-0.02 -5.62,-0.94 -6.69,-2.27zm151.95 -2.43c1.94,-0.94 10.81,2.01 10.48,3.34 -0.21,0.86 -4.62,-0.06 -5.73,-0.83 -0.71,-0.49 -1.36,-1.08 -2.09,-1.54 -0.81,-0.5 -2.25,-0.61 -2.66,-0.97zm-136.49 -2.09l2.79 1.74c-0.14,0.15 -3.58,1.96 -3.78,1.97 -1.14,0.04 0.65,-3.27 0.99,-3.71zm-6.82 1.55l1.63 -3.53c2.81,0.42 4.11,0.6 2.98,3.19 -0.6,1.4 -0.43,1.65 -1.84,1.21 -0.61,-0.19 -2.34,-0.6 -2.77,-0.87zm153.19 -2.98l5.66 3.71 -0.16 0.22c-0.3,0.91 -2.48,3.44 -3.63,1.11 -1.06,-2.13 -1.15,-3.22 -1.87,-5.04zm-165.57 1.86l6.15 -2.55c0.26,0.71 -2.24,3.62 -2.76,4.25 -0.66,0.78 -1.06,1.56 -1.92,0.46 -0.37,-0.47 -1.27,-1.64 -1.47,-2.16zm5.7 1.55l2.66 -4.39 4.07 0.08c-0.2,0.77 -1.38,3.42 -1.92,3.65 -0.22,0.09 -4.41,0.65 -4.81,0.66zm153.91 -5.29l3.95 1.06 1.55 4.94c-3.97,-1.93 -5.5,-1.09 -5.5,-6zm-3.27 -0.09l1.66 -0.02 0.6 3.94c-1.48,0.03 -1.79,0.16 -1.93,-1.11 -0.08,-0.75 -0.38,-2.15 -0.33,-2.81zm-136.62 1.8l0.92 -3.85c1.92,0.31 1.65,1.56 1.33,3.02 -0.4,1.86 -0.59,2.22 -2.25,0.83zm137.98 -5.58l0.16 2.15 -1.06 0.02 0.9 -2.17zm-143.16 3.63l0.78 -3.69c0.55,-0.09 2.32,0.47 2.9,0.68 1.31,0.48 0.86,1.34 0.53,2.5 -0.45,1.54 -0.06,2.06 -1.53,1.46 -0.71,-0.28 -2.13,-0.62 -2.68,-0.95zm156.51 -6.64c0.15,0.23 0.16,2.01 0.46,2.82 0.3,0.81 0.79,1.48 1.05,2.34 0.3,0.98 0.63,5.44 -0.39,5.67 -1.38,0.33 -2.49,-9.56 -1.12,-10.83zm-7.72 5.94l-3.8 -0.66 -0.03 -3.93c0.25,0 3.55,0.55 3.67,0.61 0.66,0.37 0.26,3.17 0.16,3.98zm1.57 -3.3l3.85 1.43 0.74 5.03c-0.42,-0.02 -2.97,-1.65 -3.55,-1.97 -2.19,-1.23 -0.27,-2.99 -1.04,-4.49zm-143.78 -2.33l1.12 3.26c-1.81,0.03 -1.36,-1.91 -1.12,-3.26zm-12.13 5.85l1 -3.77 3.81 0.18c-0.01,0.23 -0.74,3.59 -0.8,3.7 -0.3,0.5 -3.24,0.03 -4.01,-0.11zm-6.73 1.4c0.22,-0.91 1.28,-2.82 1.7,-3.86 0.48,-1.18 3.07,-1.35 4.31,-1.35 -0.08,0.86 -0.73,3.83 -1.46,4.09 -0.54,0.2 -4.07,1.11 -4.55,1.12zm-0.08 -13.4c2.33,1.26 0.03,13.66 -2.74,14.41 -1.6,0.44 -0.4,-6.66 -0.03,-7.72 0.38,-1.13 1.03,-2.12 1.57,-3.19 0.4,-0.81 1,-3.24 1.2,-3.5zm166.94 6.51l-0.23 1.77c-0.85,-0.16 -3.8,-1.27 -3.64,-2.14 0.24,-1.25 0.69,-0.93 1.78,-0.61 0.63,0.19 1.63,0.52 2.09,0.98zm-159.03 -3.77l3.84 0.15 0.16 3.93c-4.82,0 -4,0.19 -4,-4.08zm151.45 3.06l2.23 -0.61c0.14,1.6 -1.54,1.05 -2.23,0.61zm-157.01 1.36l0.15 -3.94 3.81 -0.53c0.02,4.11 1.33,4.03 -3.96,4.47zm14.93 1l-3.89 -1.02 0.11 -3.81c0.43,0.07 3.29,0.68 3.56,0.81 0.68,0.31 0.37,3.21 0.22,4.02zm-1.09 -5.99l0 0zm-11.19 -4.29c1.54,3.28 1.5,3.46 -1.88,3.61 -2.18,0.1 -0.67,-1.02 0.04,-1.57 1.13,-0.9 1.08,-1.29 1.84,-2.04zm11.19 4.29l-2.94 -0.64 -0.22 -1.39 3.16 2.03zm-8.96 -2.95l3.94 0.14 0.52 1.87c-0.62,0.06 -2.39,-0.04 -3.12,-0.06 -1.35,-0.05 -0.84,-0.83 -1.34,-1.95zm148.25 -4.37l5.21 8.25c-0.55,0.47 -3.35,0.77 -4.93,2.28 -0.92,0.87 -2.82,3.98 -3.11,4.28l-7.14 -6.81 1.01 -1.29 5.26 3.32 -3.77 -4.74 1.25 -1.29 4.56 3.97 -2.94 -5.23c0.27,-0.2 1.16,-0.97 1.42,-0.96l3.76 4.54c0.3,-1.55 -3.6,-6.13 -0.58,-6.32zm-136.11 0.97l4.58 -4.37 1.23 1.02 -3.58 5.14 5.16 -3.61 1.1 1.29 -4.17 4.53 5.38 -2.79 0.99 1.48 -4.89 3.8 5.89 -1.98 0.61 1.5 -5.59 3.25 6.2 -1.25 0.43 1.53 -10.11 4.04c-0.51,-0.64 -0.84,-6.4 -5.36,-9.52 -0.62,-0.43 -2.9,-1.44 -3.15,-1.92l6.87 -8.38c3.11,0.03 -1.26,4.76 -1.59,6.24z"/>
    <path class="fil2" d="M240.58 193.65l5.98 -7.21 4.52 7.44c0.51,-3.73 -0.18,-8.18 0.27,-12.26 0.51,-4.58 2.61,-5.91 3.53,-9.18 -1.73,0.56 -8.73,6.06 -10.13,7.57 -1.88,2.01 -4.2,10.98 -4.17,13.64z"/>
    <path class="fil2" d="M254.76 76.59c-0.6,-2.4 -3.01,-6.02 -3.84,-8.75 -0.64,-2.08 -1.3,-9.99 -1.83,-10.9 -0.38,0.65 -2.77,4.92 -3.04,5.1l-5.28 -6.67 -0.3 0.24c0.96,4.06 1.63,10.1 4.19,13.38 1.05,1.34 8.57,7.11 10.1,7.6z"/>
    <path class="fil2" d="M97.38 210.48l-7.23 2.22c0.41,0.37 10.08,1.38 12.21,2.09 2.18,0.72 8.86,4.38 9.68,4.49 -0.57,-1.79 -6.02,-8.76 -7.57,-10.12 -2.29,-2 -10.42,-3.73 -13.53,-4.17l6.44 5.49z"/>
    <path class="fil2" d="M54.62 109.77l-0.57 6.51c0.99,0.1 6.09,-9.34 6.42,-10.38 0.82,-2.56 0.51,-4.83 0.07,-7.42 -0.2,-1.16 -0.81,-6.49 -1.36,-7.03 -0.86,0.88 -3.19,10.67 -5.13,13.59 -1.26,1.9 -2.75,3.36 -4.5,4.8 -3.01,2.48 4.05,-0.4 5.07,-0.07z"/>
    <path class="fil2" d="M127.06 23.77c1.39,1.02 12.25,2.06 14.47,1.19 1.24,-0.48 10.34,-5.29 10.2,-6.46l-10.47 1.31c-0.96,-2.76 4.13,-7.59 -4.47,-0.6 -1.86,1.51 -9.59,4.29 -9.73,4.56z"/>
    <path class="fil2" d="M59.13 157.65c1.28,-1.63 2.01,-11.67 1.53,-13.8 -0.62,-2.7 -4.07,-7.85 -5.7,-10.3 -1.28,-1.91 -0.93,-0.07 -0.81,1.15 0.12,1.17 0.24,2.37 0.43,3.55 0.52,3.35 3.07,18.13 4.55,19.4z"/>
    <path class="fil2" d="M193.13 225.38c-1.57,-1.06 -11.66,-2.02 -13.75,-1.5 -2.56,0.65 -7.88,4.17 -10.28,5.72 -2.72,1.77 3.74,0.54 4.71,0.4 3.07,-0.44 18.59,-3.18 19.32,-4.62z"/>
    <path class="fil2" d="M265.99 132.74c-1.15,0.43 -5.4,8.24 -6.12,9.75 -1.69,3.49 -0.11,9.99 0.63,13.78 0.41,2.1 0.48,1.79 1.15,0.03 1.64,-4.26 4.45,-20.25 4.34,-23.56z"/>
    <path class="fil2" d="M193.16 23.62c-1.48,-1.65 -15.87,-3.89 -19.38,-4.44 -1.17,-0.19 -2.36,-0.32 -3.54,-0.44 -1.47,-0.15 -2.98,-0.57 -1.05,0.83 1.83,1.33 8.24,5.19 10.22,5.66 1.83,0.43 12.71,-0.41 13.75,-1.61z"/>
    <path class="fil2" d="M265.84 116.36c0.89,-1.18 -3.45,-23.78 -4.91,-24.89 -0.55,0.53 -1.25,5.9 -1.41,7 -0.41,2.77 -0.79,4.67 0.05,7.45 0.39,1.28 5.49,10.13 6.27,10.44z"/>
    <path class="fil2" d="M208.02 219.28c2.53,-0.45 20.62,-12.26 21.22,-14.29 -3.61,0.69 -10.86,1.85 -13.58,4.12 -1.52,1.27 -7.07,8.41 -7.64,10.17z"/>
    <path class="fil2" d="M79.6 193.76c-0.29,-3.29 -2.21,-10.99 -4.18,-13.63 -1.48,-1.98 -7.83,-6.49 -10.12,-7.69 0.34,2.54 12.19,20.44 14.3,21.32z"/>
    <path class="fil2" d="M65.3 76.59c1.74,-0.55 8.94,-6.08 10.17,-7.65 1.75,-2.25 4.03,-10.87 4.13,-13.67 -2.73,2.07 -13.57,18.07 -14.3,21.32z"/>
    <path class="fil2" d="M126.95 225.46c1.02,1.77 21.93,4.96 24.91,5.05 -0.41,-1.07 -8.91,-5.87 -10.38,-6.41 -2.08,-0.76 -12.95,-0.05 -14.53,1.36z"/>
    <path class="fil2" d="M229.24 44.15c-0.93,-2.19 -18.77,-14.09 -21.22,-14.29 1.02,2.07 5.86,8.74 7.6,10.1 3.27,2.55 9.59,3.17 13.62,4.19z"/>
    <path class="fil2" d="M90.83 44.15c3.79,-0.96 10.6,-1.71 13.57,-4.13 1.46,-1.19 7.17,-8.51 7.64,-10.16 -2.69,0.49 -20.25,12.02 -21.21,14.29z"/>
    <path class="fil2" d="M97.18 101.66c0.01,0.01 0.04,-0.05 0.04,-0.04 0,0.01 0.01,-0.01 0.01,-0.01 0,0 -0.2,-0.1 -0.05,0.05z"/>
   </g>
  </g>
 </g>
</svg>
