<?xml version="1.0" encoding="UTF-8"?>
<!DOCTYPE svg PUBLIC "-//W3C//DTD SVG 1.1//EN" "http://www.w3.org/Graphics/SVG/1.1/DTD/svg11.dtd">
<!-- Creator: CorelDRAW 2017 -->
<svg xmlns="http://www.w3.org/2000/svg" xml:space="preserve" width="190px" height="190px" version="1.1" style="shape-rendering:geometricPrecision; text-rendering:geometricPrecision; image-rendering:optimizeQuality; fill-rule:evenodd; clip-rule:evenodd"
viewBox="0 0 190 190"
 xmlns:xlink="http://www.w3.org/1999/xlink">
 <defs>
  <style type="text/css">
   <![CDATA[
    .fil1 {fill:black}
    .fil0 {fill:#E49B0E}
    .fil2 {fill:#E49B0E;fill-rule:nonzero}
   ]]>
  </style>
 </defs>
 <g id="Layer_x0020_1">
  <metadata id="CorelCorpID_0Corel-Layer"/>
  <g id="_1806320455616">
   <g>
    <path class="fil0" d="M5.02 116.13c0.63,1.24 1.27,5.59 2.21,6.91 3.51,-13.47 0.29,-13.37 -4.34,-21.39 -0.4,2 1.1,5.42 0.35,8.24 -0.4,1.51 -2.38,8.51 -2.33,9.41 1.11,-0.8 3.07,-2.72 4.11,-3.17z"/>
    <path class="fil0" d="M175.37 45.47c1.09,-0.3 4.92,0.61 5.99,0.49 0.45,-0.05 0.27,-0.04 0.45,-0.11 -1.98,-1.57 -6.96,-3.89 -9.41,-5.33 -1.65,-0.96 -3.92,-5.36 -5.78,-6.84 0.11,2.09 1.94,8.86 2.71,10.41 1.12,2.24 6.51,6.35 9.46,7.8 -0.33,-1.02 -1.07,-2.21 -1.6,-3.17 -0.48,-0.86 -1.54,-2.4 -1.82,-3.25z"/>
    <path class="fil0" d="M181.56 142.81l-5.37 -1.02c0.74,-1.65 2.25,-3.71 2.67,-5.28 -5.29,4.5 -8.96,3.79 -10.92,12.27 -0.33,1.4 -1.28,5.01 -1.19,6.12 1.08,-1.35 2.16,-2.61 3.21,-4 4.28,-5.66 1.3,-2.72 7.5,-6.04 1.15,-0.62 3.19,-1.35 4.1,-2.05z"/>
    <path class="fil0" d="M53.36 11.39c-0.84,0.11 -0.78,0.26 -1.85,0.82l-5.22 2.93c-0.39,-0.76 -0.97,-5.87 -1.26,-7.25 -0.85,2 -1.94,9.06 -2.99,10.16 -0.73,0.77 -5.29,3.62 -6.87,5.42 2.39,-0.28 8.28,-1.62 10.39,-2.69 2.55,-1.3 6.06,-6.34 7.8,-9.39z"/>
    <path class="fil0" d="M84.09 184.28c-2.62,-2.1 -5.91,-3.13 -8.86,-2.76 -0.75,0.1 -7.11,1.1 -7.99,1.52 2.88,1.24 6.38,1.52 8.95,2.56l-2.14 3.37c0.97,0.05 5.48,-1.5 6.85,-1.92 2.71,-0.85 5.01,0.51 7.81,0.18l-4.62 -2.95z"/>
    <path class="fil0" d="M156.39 165.16c-1.31,0.07 -3.93,0.74 -5.36,1.04 -1.86,0.4 -3.65,0.87 -5.11,1.67 -2.49,1.37 -6.05,6.4 -7.73,9.41 1.51,-0.33 7.62,-4.19 9.39,-5.41 2.44,-1.67 6.75,-4.48 8.81,-6.71z"/>
    <path class="fil0" d="M188.81 101.4c-1.37,1.41 -5.56,8.12 -5.82,11 -0.26,2.72 0.91,8.1 1.49,10.59 2.35,-4.94 3.92,-16.48 4.33,-21.59z"/>
    <path class="fil0" d="M184.41 65.41c-0.93,2.81 -1.87,9.67 -1.26,11.93 0.54,1.98 4.13,7.97 5.52,9.38 0.44,-2.97 -2.61,-17.77 -4.26,-21.31z"/>
    <path class="fil0" d="M124.55 5.67c-4.01,-2.18 -17.29,-4.09 -21.69,-4.39 2.54,1.92 7.99,5.58 11.13,5.85 3.58,0.31 7.25,-1.14 10.56,-1.46z"/>
    <path class="fil0" d="M88.38 1.37c-3.58,-0.25 -19.4,2.97 -21.42,4.35 3.44,0.9 9.34,2 12.13,1.13 2.24,-0.71 4.96,-2.51 7.06,-3.97 0.74,-0.51 1.56,-0.94 2.23,-1.51z"/>
    <path class="fil0" d="M124.79 182.97c-1.65,-0.73 -9.33,-2.02 -12.12,-1.27 -1.98,0.54 -7.99,4.14 -9.49,5.57 3.73,-0.22 7.53,-0.81 11.01,-1.53 1.83,-0.38 3.74,-0.8 5.44,-1.24 0.98,-0.25 1.65,-0.44 2.6,-0.73 0.45,-0.15 2.19,-0.78 2.56,-0.8z"/>
    <path class="fil0" d="M24.89 33.7c-2.52,2.62 -11.23,14.78 -12.19,18.45 0.62,-0.81 6.13,-3.78 8.32,-6.29 2.1,-2.4 3.56,-9.01 3.87,-12.16z"/>
    <path class="fil0" d="M24.91 154.93c0.03,-1.56 -1.67,-8.72 -2.68,-10.54 -1.34,-2.42 -6.51,-6.05 -9.49,-7.77 0.84,2.18 4,7.25 5.45,9.45 2.05,3.08 4.23,5.91 6.72,8.86z"/>
    <path class="fil0" d="M4.37 84.81c6.63,-8.85 3.89,-11.42 2.75,-19.27 -1.57,3.58 -3.2,11.89 -3.75,16.11 -0.19,1.42 -0.26,4.17 -0.75,5.31 0.62,-0.19 -0.02,0.24 0.63,-0.38 0.06,-0.06 0.37,-0.51 0.43,-0.61 0.21,-0.33 0.47,-0.78 0.69,-1.16z"/>
    <path class="fil0" d="M156.42 23.44c-2.35,-2.35 -15.11,-11.51 -18.47,-12.2 0.91,0.7 3.66,5.93 6.31,8.3 2.67,2.39 8.67,3.21 12.16,3.9z"/>
    <path class="fil0" d="M53.02 176.55c-0.1,-0.16 -0.22,-0.3 -0.36,-0.49 -6.6,-8.99 -3.88,-7.88 -17.45,-10.93 4.05,3.75 12.46,9.77 18.16,12.19l-0.35 -0.77z"/>
   </g>
   <path class="fil1" d="M33.82 87.49l-2.77 11.13c0.78,0.32 4.02,-0.37 6.34,0.72 1.35,0.64 4.63,3.41 5.06,3.64l5.45 -10.24 -1.6 -1.06 -4.65 5.64 2.46 -6.68 -1.87 -0.99 -3.62 6.13 1.34 -6.93c-0.37,-0.13 -1.64,-0.65 -1.93,-0.56l-2.53 6.47c-0.9,-1.62 1.76,-8.18 -1.68,-7.27zm68.23 24.26l-9.46 0 0 25.77 20.28 5.51 -2.34 15.07 -57.86 0 -2.32 -14.95 14.97 -5.53 0 -85.02 -15.33 -5.89 2.52 -14.93 59.4 0c13.33,0 23.52,3.85 30.49,10.67 7.3,7.14 11,17.45 11,29.93 0,13.57 -4.75,22.99 -12.39,29.23 -8.93,7.3 -21.75,10.14 -35.44,10.14l-3.52 0zm-9.1 75.32c3.39,1.08 5.83,0.22 7.9,-0.86 10.11,-5.27 7.74,-8.34 22.14,-5.63 10.16,1.91 11.56,-1.62 16.62,-8.89 0.76,-1.11 2.04,-2.46 2.63,-3.37 0.58,-0.93 0.97,-6.97 1.37,-8.69 1.22,1.3 2.69,3.86 3.74,5.4l6.63 -1.42c11.61,-2.61 9.6,-6.74 12.49,-16.96 3.36,-11.9 18.31,-9.28 15.98,-23.73 -0.44,-2.75 -1.41,-5.88 -1.42,-9.11 -1.23,2.26 -1.87,4.89 -2.42,6.18 -2.39,7.78 -2.82,11.26 -10.32,16.05 -2.75,1.75 -5.57,3.06 -8.46,4.53 -1.37,0.7 -3.2,1.54 -4.07,2.84 -0.67,1.01 -1.02,3.79 -1.46,4.23l-1.36 -2.8c-2.95,1.56 -5.14,6.48 -7.4,8.72 -0.1,-3.25 5.25,-11.45 7.3,-14.07 1.93,-2.46 4.08,-4.85 6.38,-6.95 2.57,-2.36 4.68,-3.13 7,-4.98l-3.1 -5.01c1.71,-0.39 5.33,2.4 9.58,0.31 3.29,-1.61 4.53,-6.02 6.11,-9.09 1.01,-1.94 3.15,-5.39 4.09,-6.84l0 0.01c2.42,-4.23 6.6,-8.72 6.15,-13.52 -0.47,-5.09 -5.66,-9.63 -7.6,-15.05 -0.53,-1.49 -0.63,-1.51 -1.62,-3.03 -0.92,-1.4 -3.09,-4.45 -3.68,-5.81l5.03 1.17c0.87,-1.11 1.52,-7.87 1.42,-9.24 -0.22,-2.94 -1.43,-5.01 -4.05,-7.17 -6.5,-5.37 -10.35,-5.45 -12.25,-12.8 -0.69,-2.68 -1.14,-5.4 -1.84,-8.1 -3.24,-12.37 -16.33,-5.25 -23.51,-14.56 -3,-3.89 -5.96,-11.16 -12.97,-11.43 -5.62,-0.22 -11.67,3.27 -17.58,0.78 -6.9,-2.91 -10.54,-9.05 -18.01,-6.57 -2.76,0.92 -7.06,4.44 -10.76,6.31 -2.04,1.03 -2.52,0.8 -4.01,1.27l-0.19 6.11c-1.06,-0.76 -3.91,-4.35 -4.8,-5.47 -1.28,-1.62 -1.37,-1.3 -3.48,-1.71 -8.58,-1.61 -10.82,-0.56 -16.06,7.16 -4.06,5.98 -5.84,7.64 -11.44,8.87 -4.32,0.94 -10.08,1.35 -12.89,5.45 -3.19,4.65 -2.18,12.01 -5.62,16.76 -2.7,3.72 -7.98,5.79 -11.35,9.13 -4.52,4.47 -2.59,10.39 -1.79,14.7 0.38,2.04 0.93,4.89 0.37,7.43 -0.76,3.38 -2.66,5.25 -4.08,7.96l0.67 0.21 5.89 1.79 -1.24 0.47c-0.4,0.08 -0.74,0.16 -1.18,0.26l-6.75 1.51c-3.13,7.13 0.94,10.5 4.66,16.68 4.41,7.3 1.4,9.4 0.7,18.41 -0.61,7.78 4.34,9.43 10.77,14.21 1.11,0.82 1.99,1.63 2.7,2.45 0.42,-2.8 1.23,-8.31 1.44,-9.23 1.05,-4.71 2.54,-5.97 1.74,-10.84 2.21,0.48 3.98,1.77 5.54,1.8 0.75,0.01 -1.77,1.4 -2.68,3.07 -2.45,4.5 -1.94,4.79 -2.92,9.41 -0.71,3.29 -0.86,6.62 -0.73,9.96 0.89,2.53 1.16,5.36 2.09,8.92 2.18,8.33 6.64,7.78 15.7,10.11 8.42,2.17 9.16,7.9 13.51,12.72 5.44,6.03 12.08,3.08 17.64,2.24 9.23,-1.4 12.44,5.23 19.11,7.34zm-48.35 -74.33c-2.51,-0.32 -11.32,6.24 -10.46,7.6 0.56,0.88 5.14,-1.77 6.09,-3.04 0.61,-0.81 1.13,-1.71 1.77,-2.49 0.71,-0.86 2.29,-1.51 2.6,-2.07zm-12.32 -0.27l-4.95 6.22 0.25 0.19c0.67,0.9 4.05,2.92 4.47,-0.1 0.39,-2.77 0.1,-4.02 0.23,-6.31zm5.96 -4.31l-4.02 2.64 0.1 6.09c3.71,-3.62 5.73,-3.25 3.92,-8.73zm3.61 -1.31l-1.86 0.6 0.78 4.61c1.67,-0.51 2.06,-0.47 1.75,-1.95 -0.18,-0.86 -0.37,-2.54 -0.67,-3.26zm-2.91 -3.72l0.61 2.47 1.2 -0.38 -1.81 -2.09zm-16.02 1.58c-0.08,0.31 0.57,2.29 0.53,3.31 -0.03,1.02 -0.33,1.95 -0.31,3.01 0.03,1.2 1.31,6.29 2.54,6.18 1.65,-0.15 -0.76,-11.6 -2.76,-12.5zm10.82 3.77l3.99 -2.13 -1.41 -4.41c-0.29,0.1 -3.76,1.93 -3.87,2.05 -0.61,0.65 0.88,3.63 1.29,4.49zm-2.97 -3.1l-3.78 3.02 1.04 5.89c0.46,-0.18 2.71,-2.94 3.23,-3.51 1.99,-2.18 -0.8,-3.45 -0.49,-5.4zm-5.44 -0.64l0.91 1.88c0.89,-0.49 3.76,-2.81 3.27,-3.72 -0.72,-1.32 -1.11,-0.79 -2.21,-0.02 -0.63,0.44 -1.63,1.17 -1.97,1.86zm8.2 -3.59l-2.72 0.14c0.44,1.83 2.11,0.61 2.72,-0.14zm93.58 25.08c-0.33,-0.02 -3.82,-2.14 -4.5,-2.49 -1.51,-0.78 -3.77,-3.8 -4.46,-4 -0.86,0.35 1.1,2.74 -1.12,2.57 -4.31,-0.34 -7.3,0.2 -11.37,2.11 0.59,0.35 4.99,0.54 6.04,0.68 2.22,0.31 4.23,1.12 6.11,1.52l-2.66 3.05c0.81,0.71 2.24,-1.22 4.99,-0.01 4.9,2.14 8.37,9.16 14.77,5.95 -2.13,-1.29 -5,-1.99 -6.67,-4.09 1.43,-0.04 7.38,3.95 11.83,3.55 -1.4,-2.93 -5.28,-2.25 -7.86,-4.67 -1.28,-1.19 -2.06,-2.55 -2.8,-4.11 -1.83,-3.87 -0.96,-0.59 -2.3,-0.06zm26.46 1.87c-1.96,3.91 1.01,4.48 -6.14,3.64 -7.02,-0.82 -6.82,-4.87 -7.68,-5.23 -1.05,0.6 -0.58,5.1 0.18,6.3 1.34,2.11 3.93,2.9 6.3,3.01 2.11,0.1 4.38,-0.21 6.44,-0.68 1.92,-0.45 5.73,-2.21 6.19,-4.11 -3.78,-0.48 -2.36,-0.02 -5.29,-2.93zm-33.43 16.81c0.02,0.01 13.01,-4.47 15.83,-2.56l-1.6 3.26c1.44,-0.38 1.22,-0.91 5.16,-1.58 1.78,-0.31 3.41,-0.49 5.16,-1.02 1.25,-0.39 4.19,-1.17 5.16,-1.87 1.29,-0.94 3.09,-3.97 4.39,-5.2 -1.63,-0.02 -4.08,1.65 -8.59,0.94 -3.19,-0.5 -5.32,-0.91 -8.59,-0.41 -4.42,0.68 -14.64,4.66 -16.92,8.44z"/>
   <path class="fil2" d="M73.91 80.72l0 -18.02 13.77 0 0 4.37 -9.23 0 0 3.32 7.89 0 0 4.3 -7.89 0 0 6.95 -4.54 0 0 -0.92zm17.75 0l0 -18.02 8.52 0c1.64,0 3.15,0.68 4.24,1.77 1.09,1.09 1.77,2.59 1.77,4.24 0,1.27 -0.41,2.49 -1.12,3.49 -0.49,0.7 -1.14,1.29 -1.9,1.72l4.33 7.72 -5.24 0 -3.7 -6.91 -2.36 0 0 6.91 -4.54 0 0 -0.92zm7.72 -13.65l-3.18 0 0 3.37 3.98 0c0.37,0 0.74,-0.2 1.01,-0.5 0.31,-0.34 0.51,-0.79 0.51,-1.23 0,-0.54 -0.2,-0.91 -0.5,-1.15 -0.44,-0.35 -1.13,-0.49 -1.82,-0.49zm11.57 13.65l0 -18.02 13.77 0 0 4.37 -9.23 0 0 3.17 7.88 0 0 4.27 -7.88 0 0 2.79 9.47 0 0 4.34 -14.01 0 0 -0.92zm18.45 0l0 -18.02 13.77 0 0 4.37 -9.23 0 0 3.17 7.89 0 0 4.27 -7.89 0 0 2.79 9.48 0 0 4.34 -14.02 0 0 -0.92z"/>
  </g>
 </g>
</svg>
