<?xml version="1.0" encoding="UTF-8"?>
<!DOCTYPE svg PUBLIC "-//W3C//DTD SVG 1.1//EN" "http://www.w3.org/Graphics/SVG/1.1/DTD/svg11.dtd">
<!-- Creator: CorelDRAW 2017 -->
<svg xmlns="http://www.w3.org/2000/svg" xml:space="preserve" width="1571px" height="1063px" version="1.1" style="shape-rendering:geometricPrecision; text-rendering:geometricPrecision; image-rendering:optimizeQuality; fill-rule:evenodd; clip-rule:evenodd"
viewBox="0 0 1571 1063.08"
 xmlns:xlink="http://www.w3.org/1999/xlink">
 <defs>
  <style type="text/css">
   <![CDATA[
    .fil1 {fill:black}
    .fil2 {fill:#E49B0E}
    .fil0 {fill:white}
    .fil3 {fill:white}
   ]]>
  </style>
 </defs>
 <g id="Layer_x0020_1">
  <metadata id="CorelCorpID_0Corel-Layer"/>
  <g id="_1617367563680">
   <path class="fil0" d="M925.54 30.37c25.69,11.66 44.6,33.38 66.04,49.88 21.41,16.5 48.03,27.66 64.82,48.04 16.81,20.41 22.78,48.03 34.59,71.38 11.82,23.34 28.69,44.97 35.16,70.35 6.47,25.35 5.69,52.35 6.5,78.76 0.79,26.4 1.13,53.38 -4.12,79.88 -5.25,26.53 -19.69,50.47 -31.35,76.16 -11.66,25.69 -16.66,55.04 -33.16,76.45 -16.5,21.4 -43.81,32.22 -64.22,49.03 -20.41,16.78 -38.32,36.47 -61.66,48.29 -23.38,11.81 -49.48,15.68 -74.82,22.15 -25.35,6.5 -50.1,18.29 -76.51,19.07 -26.41,0.78 -52.41,-8.88 -78.91,-14.13 -26.53,-5.25 -54.07,-8.59 -79.73,-20.25 -25.69,-11.66 -46.94,-29.38 -68.38,-45.88 -21.4,-16.5 -46.16,-29.56 -62.97,-49.94 -16.78,-20.41 -22.66,-48.03 -34.47,-71.41 -11.82,-23.35 -27.79,-44.91 -34.29,-70.29 -6.47,-25.35 -6.15,-52 -6.94,-78.41 -0.78,-26.41 -3.12,-53.48 2.13,-80.01 5.25,-26.5 18.53,-51.19 30.19,-76.88 11.66,-25.69 22.31,-51.29 38.81,-72.69 16.51,-21.41 36.95,-38.94 57.32,-55.73 20.41,-16.78 41.69,-32.22 65.07,-44.03 23.35,-11.82 49.19,-16.13 74.54,-22.63 25.37,-6.47 50.25,-15.78 76.66,-16.56 26.41,-0.82 52.54,4.97 79.07,10.22 26.53,5.28 54.97,7.53 80.63,19.18l0 0z"/>
   <path class="fil1" d="M1102.53 356.93l0 3.44c-0.34,6.44 -2.59,13.66 -7.65,22.44 -1.72,3 -18.53,31.06 -18.75,31.25 -0.07,-0.03 -11.35,-22.69 -13.07,-25.56 -6.47,-10.82 -11.19,-12.69 -13.19,-25.38 -5.06,2.97 -8.4,7.59 -12.22,8.97 -1.87,0.66 5.51,2 9.13,5.41 9.75,9.12 8.72,10.25 14.94,20.9 9.56,16.32 12.97,35.23 16.44,53.57 11.41,60.66 -35.51,45.94 -51.91,83.13 -7.13,16.19 -4.66,38.04 -17.1,52.85 -11.69,13.88 -36,17.97 -51.78,10.13 -8.35,-4.16 -14.38,-10.38 -11.41,1.9 3.19,13.26 -0.38,13.19 -9,20.76 -10.94,9.62 -16.69,29.75 -31.72,38.34 -16.6,9.5 -41.6,-1.43 -60.07,-1.65 -19.84,-0.25 -31.6,12.56 -47.82,21.66 -6.75,3.81 -12.68,5.62 -18.12,6.06l-5.03 0c-25.6,-2.03 -40.6,-34.29 -80.51,-26.25 -19.69,3.97 -38.69,9.65 -54.22,-7.29 -10.94,-11.9 -17.98,-29.37 -31.19,-38.72 -14.6,-10.31 -36.57,-8.78 -53.1,-16.84 -8.5,-4.13 -13.16,-9.88 -16.57,-18.6 -1.93,-4.91 -7.12,-23.66 -6.72,-28.13l18.04 -3.06c-12.29,-9.44 -25.26,-20.5 -38.01,-29.78 -6.43,-4.72 -36.94,-23.66 -35.56,-31.57 4.72,-3.47 79,-4.37 91.07,-5.63 30.22,-3.12 61.07,0.69 91.07,3.72l-0.03 15.85 -48.38 17.91 7.69 49.38 115.63 -0.25c2.38,-2.1 1,-7.35 6.6,-8.04 4.5,-0.56 9.68,0.41 14.22,0.35 11.78,-0.19 6.06,-11.85 4.09,-18.82 -2.28,-8.15 -16.16,-39.13 -16.31,-41.72l15.81 2.25c0.06,0.09 5,20.69 6.56,24.72 2.91,7.47 5.85,14.35 9.54,21.44 5.53,10.63 3.28,14.1 17.78,13.03 4.37,-0.31 10.22,-1.62 14.34,-1.34 6.19,0.44 4.82,5.63 7.35,8l17.41 0.09c5.37,-4.78 -2.44,-6.9 12.53,-6.72 6.87,0.1 10.12,-3.65 6.72,-10.18 -4.56,-8.66 -9.88,-15.41 -16.16,-22.82 -5.47,-6.44 -13.13,-14.03 -19.22,-20.1 -3.09,-3.09 -6.66,-7.06 -8.38,-11.12 -1.25,-3.03 -3.43,-12.69 -6.84,-12.56l0.22 16.18c-8.81,4.29 -70.44,-5.9 -83.29,-8.68 -26.6,-5.79 -50.35,-12.07 -77.63,-15.29 -29.54,-3.5 -59.85,-2.03 -89.48,-0.56 -14.81,0.72 -29.53,0.91 -44.31,2.31 -9.26,0.88 -32.88,5.79 -36.32,-6.09 5.38,-2.59 33.91,-3.31 34.32,-7.06l-0.07 -1.16 -30.28 1.5c3.69,-11.38 56.6,-13.56 67.79,-14.41 23.25,-1.75 47.59,-5.34 70.06,-11.68 20.26,-5.72 38.82,-14.26 56.88,-24.88 8.35,-4.94 44.79,-27.25 48.23,-33.57l-0.6 -1 -67.38 39.88 -0.56 -0.97c14.06,-19.25 38.03,-38.31 56.47,-53.78 19.97,-16.79 39.98,-33.57 59.79,-50.57 19.06,-16.38 40.88,-34.16 56.66,-53.63 18.19,-22.44 37.57,-44.35 69.85,-36.38 6.75,1.66 14.22,4.5 20.72,7.13 4.75,1.9 16.94,5.72 10.88,12.59 -4.47,5.06 -15.54,8.47 -1.75,11.72 8.62,2.03 1.84,12.1 -0.5,17.47 -8.63,19.57 -12.1,20.97 -8.6,43.79 7.75,50.69 9.63,87.16 -25.81,129.91 -8.38,10.1 -17.25,19.22 -27.38,27.6 -5.06,4.19 -10.35,8.06 -15.94,11.53 -5.72,3.56 -12.56,5.69 -17.28,10.22 1.94,7.6 28,35.88 34.63,44.04 4.75,5.84 11.44,20.03 19.03,20.22 5.59,0.12 12.84,-0.66 18.53,-1.13 9.32,-0.72 8.28,-1.4 13.22,5.03 3.66,-1.5 -0.62,-7.4 1.13,-11.47 1.03,-2.37 8.56,-5.06 11.16,-6.68 22.4,-14.38 39.75,-34.35 48.84,-59.73 13.69,-38.22 5.88,-80.88 -18.84,-112.73 -5.31,-6.84 -11.19,-12.81 -17.69,-18.5 -11.41,-10.03 -12.41,-3.87 -14.72,-21.34 -2.69,-20.1 -2.16,-11.25 6.41,-26.54 4.81,-8.53 8.18,-16.06 10.62,-25.59 2.63,-10.28 0.03,-22.69 9.66,-26.53 8.53,-3.41 16.56,-7.85 25.19,-10.97 12.91,-4.69 8.03,-14.35 -3.25,-17.57 -11.72,-3.34 -28.94,0.38 -32.72,-0.72 -2.72,-3.65 -7.75,-16.81 -11.54,-22.88 -18.31,-29.15 -53.66,-47.66 -87.82,-48.56 -5.68,-0.16 -10.97,-0.38 -16.68,-0.38 -7.47,0.07 -7.97,-1.56 -12.41,4.66 -13.66,19.03 -3.19,31.13 5.78,48.94 -2.78,-0.06 -17.22,-8.12 -20.63,-10 -3.19,-1.75 -16.03,-13.1 -16.81,-13.22 -6.47,4.97 -6.81,23.41 -4.22,30.78 1.84,5.22 8.28,25.1 9.91,28.47l-16.54 -5.06c-2.06,11.19 -4.97,12.6 -4.97,26.79 0,4.68 0.41,28.44 -1.18,30.75l-14.82 -16.22c-10.87,9.15 -15.19,14.94 -28.87,21.66 -11.94,5.87 -24.6,9.12 -36.88,13.56 2,-7.31 36.28,-39.19 39.34,-51.29l-22.28 -8.46c5.94,-6.63 23.72,-6.35 26.97,-21.1 1.5,-6.72 1.91,-14.47 2.69,-21.31 0.91,-7.72 2.94,-13.22 4.06,-19.97 -10.47,3.78 -22.44,7.78 -33.5,8.93 -4.53,0.47 -36.03,-0.72 -37.28,-4.37 1.34,-2.35 66.5,-29.25 66.09,-39.19 -6.53,-6.38 -41.09,-4.35 -50.97,-4.35 -18.47,0 -36.91,0 -55.57,-0.03l-7.43 49.51 48.72 18.72 0.03 155.88c-0.03,27.04 -0.72,16.66 -15.84,36.04 -10.6,13.56 -17.32,14.03 -33.41,18.78 -14.32,4.22 -28.29,6.78 -43.07,8.78 -28.35,3.88 -64.32,2.82 -90.76,12.94 4.82,-28.25 8,-51.28 26.44,-73.75 11.47,-13.94 15.13,-2.63 25.41,-6.88 -0.09,-0.53 -9.97,-8.97 -11.53,-10.81 -3.44,-4.16 -6.6,-13.94 -7.6,-15.01 -2.09,2.29 -1.99,15.91 -3.93,20.04 -1.5,3.19 -7.97,10.19 -10.5,13.53 -3.35,4.53 -6.54,9.91 -9.13,14.88 -0.81,1.53 -7.31,16.68 -7.41,16.68l-0.12 0.07c-6.5,-10.22 -20,-29.57 -23.85,-39.97 -6.84,-18.6 2.41,-31.26 12.22,-46.04 11.81,-17.85 16.03,-26.16 12.13,-48.41 -3.1,-17.66 -9.63,-35.28 3.28,-51.03 4.28,-5.22 30.22,-26.07 35.91,-25.32 4.62,0.63 15.66,11.35 16.56,7.47 0.78,-3.5 -4.94,-17.47 -4.28,-25.72 0.91,-11.44 7.38,-40.25 13.85,-49.57 10.03,-14.5 28.56,-15.44 44.31,-19 44.07,-10 39.22,-50.38 69.35,-57.47 17.47,-4.13 37.13,5.94 55.88,4.59 17,-1.19 28.47,-12.47 42.5,-20.81 40.16,-23.94 54.6,21.72 91.36,21.09 18.25,-0.31 36.66,-10.34 54.81,-3.25 13.94,5.44 23.23,20.78 30.22,33.19 -30.56,-16.03 -42.31,-25.13 -79.13,-16.81 -13.5,3.03 -25.84,7.62 -38.88,11.91 -6.21,2.03 -14.15,5.06 -20.72,3.78 -5.03,-1 -14.4,-8.25 -17.06,-8.22l4.38 12.43c-13.51,4.22 -34.85,-3.87 -48.35,-3.78 9.5,10 50.13,18.41 64.16,20.07 13.13,1.53 26.75,2.18 39.94,1.53 14.78,-0.69 23.38,-4.72 35.88,-6.22l5.81 24.31c6.28,-4 8.72,-23.22 27.66,-29.78 14.69,-5.09 31.63,4.34 45.6,8.72 36.22,11.38 57.6,3.03 68.75,46.1 4.16,16 3.57,29.16 16.25,41.13 10.1,9.5 22.79,15.68 32.69,24.75 11.51,10.53 18.29,25.09 4.07,36.84 -1.94,1.63 -16.75,10.54 -16.85,10.94 -0.4,2.41 16.13,-3.03 21.6,0.78 0.06,16.85 -6.97,24.47 3.03,42.57 10,18 21.56,29.16 22.38,44.32l-0.01 0z"/>
   <g>
    <path class="fil2" d="M1023.96 571.36l18.34 -22.1 13.85 22.82c1.56,-11.44 -0.56,-25.1 0.84,-37.63 1.53,-14.03 7.97,-18.1 10.82,-28.16 -5.32,1.75 -26.79,18.63 -31.07,23.25 -5.75,6.16 -12.88,33.66 -12.78,41.82z"/>
    <path class="fil2" d="M1067.46 212.3c-1.87,-7.38 -9.25,-18.48 -11.81,-26.82 -1.97,-6.41 -4,-30.66 -5.63,-33.44 -1.12,1.97 -8.47,15.06 -9.28,15.63l-16.22 -20.47 -0.94 0.75c2.97,12.47 5.03,30.97 12.88,41.06 3.22,4.1 26.28,21.79 31,23.29z"/>
    <path class="fil2" d="M584.67 623.02l-22.16 6.78c1.25,1.16 30.91,4.22 37.47,6.41 6.69,2.22 27.16,13.44 29.69,13.78 -1.75,-5.47 -18.47,-26.85 -23.25,-31.03 -7,-6.13 -31.94,-11.47 -41.47,-12.79l19.72 16.85z"/>
    <path class="fil2" d="M453.53 314.09l-1.75 19.97c3.04,0.28 18.69,-28.66 19.69,-31.85 2.5,-7.88 1.57,-14.81 0.22,-22.75 -0.62,-3.6 -2.47,-19.94 -4.19,-21.57 -2.62,2.69 -9.78,32.72 -15.72,41.69 -3.87,5.82 -8.43,10.29 -13.81,14.72 -9.25,7.63 12.44,-1.25 15.56,-0.21l0 0z"/>
    <path class="fil2" d="M675.71 50.28c4.28,3.16 37.6,6.31 44.38,3.66 3.81,-1.5 31.75,-16.25 31.31,-19.82l-32.12 4.04c-2.91,-8.51 12.68,-23.29 -13.72,-1.88 -5.69,4.63 -29.38,13.19 -29.85,14l0 0z"/>
    <path class="fil2" d="M467.38 460.94c3.91,-5 6.16,-35.78 4.66,-42.31 -1.88,-8.29 -12.44,-24.1 -17.47,-31.6 -3.94,-5.88 -2.85,-0.22 -2.47,3.53 0.34,3.56 0.75,7.25 1.31,10.88 1.59,10.28 9.41,55.6 13.97,59.5l0 0z"/>
    <path class="fil2" d="M878.38 668.68c-4.81,-3.25 -35.75,-6.19 -42.16,-4.57 -7.84,1.97 -24.19,12.79 -31.53,17.54 -8.34,5.44 11.47,1.65 14.44,1.22 9.41,-1.38 57,-9.75 59.25,-14.19l0 0z"/>
    <path class="fil2" d="M1101.9 384.53c-3.56,1.31 -16.56,25.28 -18.81,29.91 -5.16,10.72 -0.32,30.66 1.97,42.25 1.25,6.44 1.43,5.53 3.53,0.13 5,-13.07 13.66,-62.13 13.31,-72.29l0 0z"/>
    <path class="fil2" d="M878.48 49.81c-4.53,-5.06 -48.69,-11.94 -59.45,-13.62 -3.59,-0.57 -7.25,-0.97 -10.84,-1.35 -4.5,-0.44 -9.13,-1.75 -3.25,2.57 5.63,4.06 25.28,15.9 31.38,17.34 5.62,1.34 38.97,-1.25 42.16,-4.94l0 0z"/>
    <path class="fil2" d="M1101.4 334.27c2.75,-3.59 -10.56,-72.94 -15.03,-76.31 -1.69,1.62 -3.81,18.09 -4.34,21.47 -1.25,8.5 -2.41,14.31 0.18,22.84 1.19,3.91 16.82,31.07 19.19,32z"/>
    <path class="fil2" d="M924.07 649.99c7.76,-1.41 63.26,-37.6 65.07,-43.82 -11.06,2.1 -33.28,5.66 -41.63,12.63 -4.65,3.87 -21.69,25.81 -23.44,31.19l0 0z"/>
    <path class="fil2" d="M530.13 571.73c-0.87,-10.12 -6.75,-33.75 -12.81,-41.81 -4.53,-6.1 -24,-19.91 -31.03,-23.63 1.06,7.81 37.41,62.72 43.84,65.44z"/>
    <path class="fil2" d="M486.29 212.3c5.34,-1.69 27.44,-18.63 31.19,-23.44 5.37,-6.94 12.37,-33.38 12.65,-41.98 -8.34,6.38 -41.59,55.48 -43.84,65.41l0 0.01z"/>
    <path class="fil2" d="M675.4 668.93c3.12,5.47 67.28,15.25 76.41,15.53 -1.25,-3.31 -27.35,-18.03 -31.85,-19.66 -6.37,-2.37 -39.72,-0.18 -44.56,4.13l0 0z"/>
    <path class="fil2" d="M989.14 112.79c-2.84,-6.72 -57.56,-43.23 -65.06,-43.85 3.12,6.38 17.97,26.81 23.31,31 10.03,7.85 29.41,9.72 41.75,12.85z"/>
    <path class="fil2" d="M564.61 112.79c11.62,-2.94 32.5,-5.22 41.59,-12.66 4.5,-3.66 22.01,-26.1 23.47,-31.19 -8.25,1.53 -62.13,36.91 -65.06,43.85z"/>
    <path class="fil2" d="M919.76 249.52c0.56,1.4 4.25,3.28 5.69,4.25 3.22,2.18 3.12,1.59 6.62,-0.07 9.41,-4.46 18.6,-9.56 27.76,-13.31 2.15,-0.9 14.19,-4.31 12.53,-7.03 -3.72,-6.13 -28.72,-4.03 -35,-2.91 -5.04,0.88 -14.41,0.97 -11.22,6.6 3.25,5.65 -6,8.62 -6.38,12.47l0 0z"/>
    <path class="fil2" d="M584.08 289.21c0.03,0.03 0.09,-0.16 0.09,-0.13 0,0.03 0.06,-0.03 0.06,-0.03 0,0 -0.62,-0.31 -0.15,0.16z"/>
   </g>
   <g>
    <path class="fil0" d="M1212.19 788.97c2.1,0.16 8.19,3 10.66,3.87 2.81,1.01 8.53,3.69 10.78,4.22l0 121.42c-1.34,0.13 -2.91,1.03 -5.09,1.78 -2.03,0.66 -3.28,1.31 -5.28,2 -2.1,0.75 -3.32,1.25 -5.28,2 -1.44,0.56 -4.1,1.6 -5.38,1.91 0.03,1.69 0.56,3.87 0.87,5.59 0.94,5.72 1.25,11.07 2.75,17.47 8.94,0 73.67,0.78 76.1,-0.4 0.47,-0.94 1.54,-9.13 1.88,-11.1 0.63,-3.84 0.97,-8.06 1.78,-11.56 -3.97,-0.94 -18.5,-7.41 -21.44,-8.1l0 -128.29 23.88 0c16.5,0 28.72,11.47 28.72,27.91 0,7 -0.03,8.41 -2.91,14.5 -1.65,3.56 -3.37,5.34 -6.09,8.06 -9.5,9.6 -22.35,7.82 -36.72,7.82l0 21.84c0,1.69 1.56,3.63 2.28,5 0.53,0.97 0.72,1.47 1.28,2.38 4.22,6.72 11.1,20.12 14.66,25.41 0.97,1.47 1.9,3.31 2.81,4.87 0.91,1.6 1.63,2.97 2.59,4.66l8.1 14.19c1,1.65 1.75,3 2.72,4.59 1.12,1.88 1.34,1.31 0.37,5.28 -0.75,3.13 -2.03,9.35 -2.03,12.94l59.91 0c1.63,0 1.57,-2.87 1.85,-4.62l2.59 -18.04c0,-0.62 -8.97,-3.72 -10.13,-4.03 -1.96,-0.59 -3.09,-1.12 -5,-1.87 -1.93,-0.75 -3.56,-1.16 -5.43,-1.85 -3.25,-1.15 -3.44,-2.22 -6.41,-7.75l-20.75 -36.75c-1.53,-2.44 -5.57,-3.32 -8,-4.94 -0.06,-0.06 -0.19,-0.12 -0.25,-0.16 -0.75,-0.56 -0.22,-0.12 -0.69,-0.53 17.31,-4.03 32.63,-13.72 40.69,-29.75 6.28,-12.53 5.78,-30.84 -0.06,-42.85 -1.63,-3.34 -3.03,-6.15 -5.16,-9 -6.47,-8.56 -14.97,-13.97 -25.5,-17.4 -6.81,-2.25 -16.1,-3.82 -24.94,-3.82l-91.1 0c-0.03,2.35 -3.63,19.54 -3.63,23.1z"/>
    <path class="fil0" d="M1015.83 835.91l-10.5 0 0 25.5c10.44,0 24.5,-1.28 32.79,2.82 3,1.5 6.75,4.03 8.9,6.5 8.44,9.68 10.88,22.75 6.41,35.16 -4.16,11.65 -11.72,19.47 -24.63,19.47l-30.38 0 0 -135.58c12.91,0 25.91,-1.87 34.13,5.94 6.6,6.28 8.35,20.32 4.22,27.91 -0.56,1.03 -1.34,2.41 -2.03,3.25 -4.72,6.06 -10.72,9.03 -18.91,9.03l0 0zm-79.72 -47.35l21.84 8.5 0 121.01 -21.44 8.1 2.69 17.94c0.5,3.25 0.13,5.12 1.75,5.12l92.29 0c26.06,0 47.47,-8.18 59.1,-28.34 10.09,-17.54 8.41,-41.79 -3.97,-57.51 -7.5,-9.56 -12.13,-12.15 -21.91,-17.34 1.66,-2.5 9.88,-7.1 14.63,-23.04 2.84,-9.59 1.44,-22.37 -2.85,-30.47 -8.4,-15.87 -24.22,-26.75 -44.19,-26.66 -31.41,0.16 -62.88,0 -94.32,0l-3.62 22.69 0 0z"/>
    <path class="fil0" d="M73.41 837.54l0 23.06c9.81,0 25.06,-1.16 32.94,2.69 13,6.34 18.47,16.84 18.47,30.91 0,13.31 -9.53,31.56 -23.88,31.56l-34.41 0 0 -136.79c7.44,0 21.5,-0.72 27.79,1.78 2.97,1.16 6.53,3.25 8.25,5.47 4.81,6.28 6.65,12.56 5.59,21 -0.87,7.19 -5.44,12.78 -11.25,16.28 -9.66,5.85 -23.5,0.41 -23.5,4.04l0 0zm-67.6 -49.38l10.69 4.28c3,1.06 8.19,3.59 10.78,4.22l0 122.23c-1.84,0.43 -3.69,1.12 -5.44,1.84l-10.62 3.97c-2,0.69 -3.75,1.41 -5.41,2.28l2.72 16.72c0.25,1.78 0.09,4.72 1.75,4.72l94.73 0c4.56,0 8.59,-0.38 12.81,-0.91 12.69,-1.68 23.97,-6.87 33.41,-15.19 2.37,-2.06 7.65,-8.87 9.22,-11.81 5.9,-11 6.47,-16.25 6.47,-28.35 0,-6.21 -2.57,-14.4 -4.91,-19.34 -0.5,-1.03 -1.06,-1.94 -1.69,-3.19 -3.59,-7.25 -12.31,-15.97 -19.44,-19.81 -1.28,-0.72 -1.93,-1.16 -3.09,-1.78 -1.22,-0.63 -2.41,-1.01 -3.66,-1.6 0.53,-1.9 0.56,-0.78 2.94,-3.12 3.03,-3.03 6.28,-7.38 8.31,-11.13 6,-10.97 6.75,-22.94 2.79,-35 -2.88,-8.69 -10.07,-17.32 -17.76,-22.32 -3.03,-2 -8.12,-4.68 -11.75,-5.65 -1.71,-0.47 -2.78,-0.91 -4.34,-1.32 -2.5,-0.65 -7.41,-1.21 -10.53,-1.21l-93.92 0c-1.68,0 -1.28,2.84 -1.56,4.53 -0.69,4.06 -2.5,13.69 -2.5,16.94l0 0z"/>
    <path class="fil0" d="M1466.81 925.36l-13.75 0c-0.94,0 -1.22,-0.29 -1.22,-1.22l0 -134.36c15.47,0 30.44,-1.62 43.25,6.13 11.85,7.19 20.69,20.19 23.57,33.88 2.12,10.09 3.21,14.72 3.21,25.97 0,25.22 -8.15,52.84 -29.28,64.22 -7.28,3.91 -14.78,5.38 -25.78,5.38l0 0zm-55.85 -128.3l0 121.42c-3.69,0.84 -17.63,6.88 -21.06,7.69 0,3.56 1.12,8.5 1.65,12.13 0.25,1.96 0.53,4.03 0.81,6.06 0.25,1.91 0,4.87 2,4.87l70.04 0c12.69,0 29.79,-1.28 41.79,-5.53 8.43,-3 16.59,-6.47 23.84,-11.81 5.94,-4.38 6.25,-5.44 9.66,-8.13 1.19,-0.96 1.69,-1.96 2.94,-3.15 1.97,-1.97 3.69,-4.06 5.31,-6.41 13.72,-19.97 17.25,-36.03 17.25,-61.69 0,-8.03 -1.37,-17.47 -3.31,-24.63 -0.38,-1.37 -0.91,-2.65 -1.38,-4.28 -2.06,-7.25 -6.72,-16.72 -11.03,-22.56 -0.87,-1.16 -1.5,-2.16 -2.4,-3.29 -1.82,-2.18 -6.04,-7.18 -8.13,-8.84 -10.22,-8.16 -9.38,-7.75 -20.31,-13.31 -7.1,-3.6 -17.69,-6.66 -25.66,-7.94 -6.38,-1 -13.88,-1.78 -20.88,-1.78l-79.35 0c-0.06,1.84 -0.59,4.12 -0.81,6.09 -0.5,4.5 -1.91,11.53 -2.13,15.35 -0.19,2.59 0.16,1.15 6.03,3.81 1.75,0.78 3.35,1.15 5,1.87 3.19,1.41 7.04,2.57 10.13,4.07l0 -0.01z"/>
    <path class="fil0" d="M413.06 818.5l0.81 0c0.26,3.1 16.32,43.01 17.82,49.38l-37.66 0c0.16,-1.72 1.62,-4.62 2.28,-6.25l3.44 -9.06c0.4,-1.1 0.81,-1.82 1.34,-3.13l2.41 -6.09c0.94,-2.66 9.44,-23.13 9.56,-24.85l0 0zm-86.22 106.86l0 23.06 67.19 0 2.84 -22.25c-1.93,-0.44 -3.5,-1.13 -5.59,-1.69 -3.41,-0.94 -15.1,-5.41 -17.47,-5.59 0.41,-1.88 1.78,-4.72 2.59,-6.72 0.94,-2.38 1.75,-4.41 2.66,-6.63 0.88,-2.19 5.13,-12.25 5.25,-13.78l56.69 0 9.72 27.13 -19.44 7.68 2.53 16.88c0.25,1.44 0.25,4.97 1.91,4.97l75.32 0c1.63,0 2.13,-7.06 2.66,-10.28l1.78 -11.57 -22.32 -8.03c-1.62,-0.9 -1.87,-3.28 -2.4,-4.87 -4.03,-12.04 -10,-26.54 -14.28,-39.16l-10.19 -27.85c-0.85,-2.03 -1.22,-3.62 -2.03,-5.66 -0.85,-2.09 -1.29,-3.46 -2.07,-5.65l-18.4 -50.38c-0.66,-1.94 -1.41,-3.5 -2.13,-5.57 -0.75,-2.15 -1.31,-3.62 -2.03,-5.68 -0.69,-1.94 -3.75,-9.69 -3.91,-11.47l-29.62 4.37c-1.72,0.41 -1.79,0.72 -3.32,5.19 -4,11.63 -10.28,25.53 -14.16,36.82 -0.84,2.47 -1.56,3.87 -2.31,6.19 -0.72,2.12 -1.65,3.87 -2.44,6.06 -0.34,0.9 -0.59,1.97 -1.06,3l-22.53 58.44c-2.97,8.85 -8.53,21.38 -11.85,30.66 -0.43,1.28 -0.62,1.63 -1.12,2.91 -1.41,3.68 -2.28,2.9 -7.97,4.97l-12.5 4.5 0 0z"/>
    <path class="fil0" d="M511.04 852.91c0,10 0.06,19.82 2.5,29.47 3.59,14.38 8.69,27.16 18.03,38.63l5.25 6.1c3.57,3.72 11.53,9.47 15.97,12.34 1.25,0.81 2.38,1.25 3.66,2.03 1.53,0.94 2.16,1.03 3.84,1.82 1.5,0.72 2.22,1.12 3.88,1.78 15.47,6.12 26.03,7.4 44.41,7.4 13.03,0 23.31,-2.59 33.63,-5.25 2.65,-0.68 4.68,-1.68 7.28,-2.43 3.81,-1.16 18.62,-8.07 18.62,-10.54l0 -43.31 -10.72 -1.44c-2.06,-0.28 -3.34,-0.41 -5.37,-0.69 -1.84,-0.28 -3.34,-0.68 -5.78,-0.68l-12.94 35.59c-1.72,1.72 -24.38,3.25 -28.75,3.25 -16.44,0 -29.98,-7 -38.79,-19.9 -7.37,-10.76 -12.22,-28.38 -12.22,-46.48 0,-20.78 1,-37.75 11.41,-53.35 0.47,-0.68 0.75,-1.25 1.31,-1.93 5.44,-7.16 14.06,-13.13 22.82,-15.22 13.22,-3.19 24.09,-2.25 37.5,-0.1 8.69,1.38 7.47,0.57 10,8.22l7.19 20.35c0.78,2.31 1.5,4.78 2.47,6.81 2.65,0 12.12,-1.84 16.22,-2.4 1.84,-0.25 3.93,-0.69 5.65,-0.82l0 -42.91 -27.31 -11.97 -16.19 -3.65c-4.28,-0.72 -8.41,-1.16 -12.44,-1.38l-10.94 0c-9.97,0.53 -19.56,2.5 -29.72,5.44 -11.03,3.19 -25.03,12.31 -32.66,19.97 -6.87,6.88 -9.94,11.16 -15.03,19.75l-5.75 11.66c-3.62,9.03 -7.03,24.16 -7.03,33.85l0 -0.01z"/>
    <path class="fil0" d="M175.82 788.16l21.47 8.5 0 121.82 -13.18 5.03c-2.47,1 -5.47,2.41 -8.29,3.07 0,1.93 0.57,3.87 0.82,5.68l1.56 11.38c0.25,1.75 0.06,4.78 1.69,4.78l137.64 0 0 -56.66c0,-1.75 -7.32,-2 -10.51,-2.44l-11.34 -1.59c-0.84,3.56 -8.53,23.28 -10.38,28.88 -0.62,1.87 -1.12,3.09 -1.78,4.72 -0.53,1.31 -1,4.43 -2.44,4.43l-44.53 0 0 -129.1 21.88 -8.5 -2.41 -15.82c-0.25,-1.84 -0.81,-3.9 -0.84,-5.65l-76.51 0c0,3.62 -2.75,18.62 -2.84,21.47l-0.01 0z"/>
    <path class="fil0" d="M1110.18 788.97l21.44 8.09 0 121.42 -21.44 7.69c0,4.16 2.07,12.81 2.75,17.88 0.29,2.03 0.1,5.18 2.1,5.18l74.47 0c1.66,0 1.69,-3.53 1.91,-4.97l2.97 -18.09c-3.78,-0.88 -19.63,-7.5 -21.88,-7.69l0 -121.42c2,-0.46 3.44,-1.31 5.25,-2.03 1.88,-0.75 3.63,-1.37 5.57,-2.15 2.03,-0.79 3.56,-1.38 5.56,-2.13 2.03,-0.78 3.78,-1.28 5.5,-2.19l-2.78 -16.65c-0.31,-1.94 -0.88,-4.07 -0.88,-6.04l-76.91 0 -2.91 16.94c-0.28,2.07 -0.72,3.63 -0.72,6.16z"/>
    <path class="fil0" d="M685.12 787.75l11.09 4.69c2.25,0.84 3.63,1.44 5.78,2.31 2.19,0.88 4.97,1.41 4.97,3.13l0 119.38c0,1.47 -2.25,1.82 -4.84,2.85l-11.28 4.5c-2.03,0.72 -3.88,1.4 -5.72,2.37l3.22 21.44c23.75,0 49.84,-0.37 73.32,0.03 4.25,0.06 3.06,-0.53 3.53,-4.53 0.62,-5.12 1.56,-9.75 2.06,-14.56 0.44,-3.82 0.5,-2.94 -2.97,-4.22l-18.03 -6.66 0 -121.82c1.59,-0.78 3.37,-1.44 5.19,-2.1l10.75 -4.25c1.81,-0.62 3.93,-1.4 5.5,-2.15 -0.47,-1.01 -0.56,-3.91 -0.82,-5.29 -0.31,-1.87 -0.53,-3.65 -0.87,-5.59l-1.09 -8.59c-0.16,-1.29 0.09,-2 -1.25,-2l-74.1 0c-1.66,0 -2.04,6.65 -2.6,9.97 -0.4,2.43 -1.15,9.62 -1.84,11.09l0 0z"/>
    <path class="fil0" d="M786.72 788.16c2.47,1.31 12.66,6.81 14.56,7.28 -1.62,2.44 -33.59,34.59 -36.53,37.53 -2.25,2.25 -3.97,4.03 -6.16,6.38 -7.56,8.12 -5.87,2.4 -5.87,20.84 0,1.94 10.31,16.51 11.56,18.38l36.19 54.48c0,2.18 -0.84,5.5 -1.22,7.68 -0.37,2.25 -1.03,5.57 -1.18,7.69l59.91 0c0.81,-1.69 1.53,-8.34 1.9,-10.62 0.6,-3.57 1.44,-7.79 1.72,-11.22l-21.41 -7.72c-2.62,-1.03 -2.4,-1.69 -4.65,-5.07l-23.57 -34.72c-1.37,-2.09 -2.43,-3.81 -3.9,-5.81 -2.75,-3.72 -9.13,-15.22 -12.29,-16.85l-13.53 -6.34 25.38 -26.03c0.03,-0.07 0.13,-0.16 0.19,-0.22 0.06,-0.06 0.12,-0.16 0.19,-0.22l8.15 -8.44c6.53,-6.5 10.38,-11.03 18.16,-16.25 4.91,-3.28 11.63,-6.66 17.35,-8.56 2.31,-0.75 4.87,-1.22 6.71,-2.19l-3.25 -21.47 -65.19 0c0,5.28 -3.22,16.19 -3.22,21.47l0 0z"/>
   </g>
   <path class="fil2" d="M395.87 1050.15l-14.15 0 0 -13.44 13.47 0c10.34,0 9.72,13.44 0.68,13.44zm-2.06 -23.44l-12.09 0 0 -13.1c5.28,0 13.43,-0.93 16.15,1.79 4,4 2.13,11.31 -4.06,11.31zm-23.81 34.47l25.53 0c10.37,0 19,-5.31 19,-15.53 0,-4.25 -0.25,-6.97 -3.53,-10.25 -1.75,-1.72 -4.5,-3.97 -7.53,-4.22l1.62 -0.82c11.35,-5.68 8.88,-27.78 -12.31,-27.78 -7.03,0 -14.1,0 -21.13,0 -1.37,0 -1.65,0.09 -1.65,1.31l0 57.29z"/>
   <path class="fil2" d="M651.36 1050.15l-14.15 0 0 -13.44 13.47 0c10.31,0 9.68,13.44 0.68,13.44zm-2.09 -23.44l-12.06 0 0 -13.1 11.72 0c3.72,0 6.56,3.13 6.56,6.91 0,3.56 -2.63,6.19 -6.22,6.19zm-23.81 34.47l25.56 0c5.44,0 10.13,-1.31 13.16,-3.75 6.65,-5.31 8.09,-16.25 2.28,-22.03 -1.75,-1.72 -4.5,-3.97 -7.5,-4.22 0.06,-0.03 0.19,-0.19 0.22,-0.13l1.37 -0.65c0.78,-0.38 1.13,-0.5 1.75,-1.04 9.88,-8.06 5.03,-26.78 -14.06,-26.78l-22.78 0 0 58.6 0 0z"/>
   <path class="fil2" d="M1058.37 1031.86c0,-10.12 6.78,-19.62 15.9,-19.62l2.75 0c9.72,0 16.57,8.78 16.57,18.59 0,6.13 -1.22,11.75 -4.91,15.44 -3.25,3.25 -7.72,5.94 -12.91,5.44 -6.4,-0.59 -9.37,-2.28 -12.65,-5.97 -2.63,-2.94 -4.75,-8.41 -4.75,-13.88l0 0zm16.19 -30.31l4.09 0c3.84,0.25 7.66,1.28 11.16,3.09 8.19,4.29 13.9,11.91 15.84,21.04 0.25,1.12 0.78,5.31 0.72,6.5 -0.31,4.56 -1.25,8.72 -2.78,12.09 -4.44,9.88 -14.63,17.94 -25.88,17.94l-3.09 0c-14.5,0 -28.66,-13.41 -28.66,-31.03 0,-6.35 2.28,-12 5.38,-16.66 5.09,-7.69 14.03,-12.35 23.22,-12.97l0 0z"/>
   <path class="fil2" d="M565.73 1028.08l-13.81 0c0,-4.62 0,-8.93 0,-13.56 0,-0.75 -0.07,-0.91 0.72,-0.91 9.09,-0.09 20,-1.56 20,7.25 0,3.6 -3.16,7.22 -6.91,7.22zm-25.88 -24.47l0 56.51c0,0.81 0.22,1.06 1.04,1.06l10 0c0.81,0 1.03,-0.25 1.03,-1.06l0 -21.35 9.69 0 11.37 22.41 13.47 0c-0.28,-1.25 -0.84,-2.03 -1.43,-3.06 -0.69,-1.06 -1.07,-2 -1.75,-3.1l-9.94 -17.97c4.53,-0.37 15.31,-11.37 9.25,-24.06 -2.97,-6.28 -9.28,-10.41 -17.54,-10.41l-24.15 0c-0.82,0 -1.03,0.25 -1.03,1.03l-0.01 0z"/>
   <path class="fil2" d="M817.75 1028.08l-13.47 0 0 -14.47 10.38 0c5.19,0 9.87,1.13 10.37,5.85 0.5,4.44 -2.25,8.62 -7.28,8.62l0 0zm-25.19 33.1l11.72 0 0 -22.41c11.82,0 8.91,-1.44 12.32,5.28l3 5.63c1.18,2.4 5.34,9.78 5.75,11.5l13.47 0c-0.16,-1.84 -9.6,-18 -11.16,-20.91 -0.66,-1.22 -1.28,-1.81 -1.62,-3.22 2.65,-0.62 5.75,-3.59 7.21,-5.56 8.63,-11.56 0.91,-28.91 -15.15,-28.91l-25.54 0 0 58.6 0 0z"/>
   <polygon class="fil2" points="958.27,1061.18 970.02,1061.18 970.02,1038.08 994.17,1038.08 994.17,1061.18 1005.89,1061.18 1005.89,1002.58 994.17,1002.58 994.17,1027.05 970.02,1027.05 970.02,1002.58 958.27,1002.58 "/>
   <path class="fil2" d="M710.4 1061.18l41.75 0 0 -11.03 -30.03 0 0 -12.41 25.22 0 0 -9.66c0,-0.78 -0.25,-1.03 -1.06,-1.03l-24.16 0 0 -13.44 29.35 0 0 -11.03 -41.07 0 0 58.6 0 0z"/>
   <path class="fil2" d="M476.07 1014.52c0.65,2.97 4.37,13.47 5.22,16.53 0.5,1.72 2.59,5.66 1.15,5.66l-13.53 0c-0.69,0 -0.59,0.03 -0.4,-0.72 0.93,-3.69 5.93,-18 6.68,-21.5 0.19,-0.81 0.69,-0.81 0.88,0.03l0 0zm-28.07 46.66l12.44 0c0.19,-2.47 3.53,-10.03 4.66,-14.19 0.25,-0.84 0.12,-0.66 1.06,-0.66l19 0c1,0 0.81,-0.06 1.25,0.91 1.56,3.63 3.35,11 4.75,13.94l12.44 0 -14.97 -40.91c-0.5,-1.35 -0.94,-2.41 -1.41,-3.75 -0.9,-2.66 -1.75,-4.85 -2.65,-7.35 -0.47,-1.25 -0.91,-2.5 -1.38,-3.78 -0.47,-1.25 -1.03,-2.47 -1.34,-3.84l-12.44 0c-0.13,1.41 -1.97,5.78 -2.56,7.47l-16.22 44.41c-0.6,1.53 -2.51,6.44 -2.63,7.75l0 0z"/>
   <path class="fil2" d="M1172.31 1029.11l-14.15 0 0 -15.15c8.81,0 20.03,-1.85 20.03,7.25 0,3.47 -2.63,7.9 -5.88,7.9zm17.6 -9.34l0 2.41c-0.28,4.65 -2.25,9.22 -5.44,12.56 -6.72,7.03 -15.47,5.41 -26.31,5.41l0 21.03 -11.75 0 0 -58.6 24.19 0c8.12,0 13.93,3.88 17.37,10.22 1.16,2.16 1.78,4.53 1.94,6.97l0 0z"/>
   <path class="fil2" d="M875.41 1017.05c0,5.28 -0.15,9.22 4.38,13.53 5,4.78 12.94,6.32 19.22,8.41 1.94,0.62 3.19,1.13 4.84,2.06 7.29,4.16 1.19,14.6 -17.09,9.47 -1.5,-0.4 -2.47,-0.69 -3.91,-1.28 -1.28,-0.5 -2.78,-1.22 -4,-1.5l-4.12 9.28c5.09,2.72 11.93,4.75 18.75,5.19l5.31 0c5,-0.34 9.75,-1.75 13.5,-4.53 8.06,-6 10.91,-21.91 -6.19,-28.85 -7.47,-3.03 -18.97,-4.22 -18.97,-10.75 0,-9.53 18.85,-5.78 25.22,-2.75 0.66,-2.81 3.6,-7.16 3.79,-9.66 -1.25,-0.28 -2.51,-0.96 -3.76,-1.4 -3.9,-1.41 -8.59,-2.47 -13.34,-2.72l-4.47 0c-4.88,0.28 -9.53,1.56 -13.16,4.28 -2.81,2.12 -6,6.5 -6,11.22l0 0z"/>
   <path class="fil3" d="M681.6 193.17c0.03,-0.13 52.25,-25.82 54.94,-40l-14.59 -4.91c5.44,-3.25 6.37,-0.97 20.16,-10.82 6.25,-4.43 11.65,-8.84 18.47,-12.5 4.9,-2.59 16.03,-9.12 21.03,-9.93 6.66,-1.1 21.16,2.53 28.75,2.31 -4.81,4.94 -17.12,7.34 -28.47,23.03 -8.03,11.1 -13.13,18.72 -24.41,27.07 -15.25,11.25 -57.69,30.19 -75.88,25.75zm77.01 34.75c-0.94,1.06 -4.94,17.91 -5.91,21 -2.19,6.88 0.16,22.69 -1.28,25.32 -3.63,1.59 -4.97,-11.47 -11.1,-4.25 -11.84,13.97 -22.41,21.37 -40.28,27.91 0.72,-2.82 13.25,-16.63 15.97,-20.23 5.72,-7.59 9.25,-16.09 13.69,-22.9l-17.13 -1.13c0.25,-4.53 10.35,-3.09 14.91,-14.94 8.19,-21.16 -2.6,-52.6 26.16,-62.25 -2.47,10.25 -8.94,21 -7.6,32.28 4.41,-4.16 10.16,-34 24.66,-46.19 4.66,12.94 -8.97,22.59 -9.44,37.6 -0.21,7.4 1.57,13.81 4.04,20.68 6.18,17.04 -1.1,4.66 -6.69,7.1l0 0zm73.32 -85.19c-17.57,-5.78 -10.47,-16.41 -29.26,7.59 -18.5,23.6 -5.68,35.1 -7.18,38.75 -4.91,1.35 -17.07,-13.5 -18.41,-19.34 -2.38,-10.35 2.97,-20.5 9.72,-27.97 6,-6.63 13.72,-12.57 21.28,-17.32 7.1,-4.47 23.75,-10.65 30.85,-6.37 -9.85,12.78 -7,7.15 -7,24.66l0 0z"/>
   <path class="fil3" d="M890.74 246.39c-2.87,14.38 -24.47,10.35 -23.16,-1.56 1.69,-15.03 25.07,-8.03 23.16,1.56zm-12.87 -6.59c-10.78,2.75 -6.16,13.5 1.81,12.28 10.53,-1.66 6.16,-14.35 -1.81,-12.28z"/>
   <path class="fil3" d="M584.15 288.49l14.1 -13.38 3.75 3.13 -10.97 15.75 15.81 -11.06 3.38 3.94 -12.78 13.9 16.47 -8.56 3.06 4.53 -15 11.66 18.06 -6.07 1.88 4.6 -17.16 9.97 19.04 -3.85 1.31 4.72 -31.01 12.38c-1.56,-1.97 -2.56,-19.63 -16.47,-29.19 -1.87,-1.34 -8.87,-4.41 -9.62,-5.91l21.06 -25.72c9.53,0.13 -3.87,14.63 -4.9,19.16l-0.01 0zm-54.62 75.85c5.37,-3.75 18.03,-5.25 24.34,-4.13 3.28,0.6 20.1,5.22 20.6,8.47 -2.16,0.66 -8.72,0.07 -12.6,0.85 -3.59,0.75 -8.16,1.81 -11.78,1.78 -5.13,-0.03 -17.25,-2.88 -20.57,-6.97l0.01 0zm47.44 -13.85l8.56 5.35c-0.44,0.44 -11,6 -11.59,6.03 -3.5,0.13 2,-10.03 3.03,-11.38l0 0zm-20.94 4.72l5.03 -10.81c8.59,1.31 12.59,1.84 9.16,9.81 -1.88,4.29 -1.35,5.07 -5.69,3.72 -1.85,-0.59 -7.16,-1.87 -8.5,-2.72zm-37.94 -3.4l18.87 -7.85c0.78,2.22 -6.87,11.13 -8.5,13.07 -2,2.37 -3.25,4.78 -5.87,1.4 -1.16,-1.43 -3.88,-5.03 -4.5,-6.62l0 0zm17.47 4.75l8.15 -13.47 12.5 0.25c-0.62,2.34 -4.25,10.5 -5.87,11.19 -0.72,0.28 -13.53,2 -14.78,2.03zm43 -11l2.81 -11.79c5.91,0.94 5.1,4.79 4.1,9.29 -1.22,5.68 -1.82,6.81 -6.91,2.5zm-15.88 -5.94l2.41 -11.35c1.66,-0.28 7.09,1.44 8.88,2.1 4.03,1.47 2.65,4.09 1.62,7.65 -1.37,4.72 -0.19,6.32 -4.69,4.51 -2.19,-0.88 -6.53,-1.91 -8.22,-2.91l0 0zm20.16 -19.44l3.44 10.03c-5.53,0.06 -4.16,-5.91 -3.44,-10.03zm-37.19 17.97l3.09 -11.59 11.66 0.56c-0.03,0.69 -2.25,11 -2.47,11.34 -0.9,1.53 -9.94,0.1 -12.28,-0.31l0 0zm-20.63 4.28c0.66,-2.81 3.91,-8.66 5.19,-11.84 1.5,-3.63 9.41,-4.16 13.25,-4.16 -0.25,2.66 -2.28,11.78 -4.5,12.56 -1.65,0.6 -12.47,3.41 -13.94,3.44l0 0zm-0.25 -41.1c7.13,3.85 0.1,41.88 -8.43,44.2 -4.88,1.34 -1.19,-20.44 -0.1,-23.69 1.19,-3.47 3.19,-6.5 4.85,-9.79 1.22,-2.46 3.06,-9.93 3.68,-10.71l0 -0.01zm24.26 8.38l11.78 0.47 0.5 12.06c-14.78,0 -12.28,0.57 -12.28,-12.53zm-17.07 13.59l0.47 -12.09 11.69 -1.66c0.03,12.63 4.06,12.38 -12.16,13.76l0 -0.01zm45.82 3.07l-11.94 -3.16 0.34 -11.69c1.32,0.22 10.07,2.1 10.91,2.47 2.06,0.97 1.13,9.88 0.69,12.38l0 0zm-37.66 -31.57c4.72,10.07 4.59,10.63 -5.78,11.1 -6.69,0.31 -2.07,-3.13 0.09,-4.85 3.5,-2.72 3.34,-3.93 5.69,-6.25l0 0zm34.32 13.19l-9.04 -1.97 -0.65 -4.25 9.69 6.22zm-27.51 -9.06l12.1 0.44 1.59 5.71c-1.91,0.19 -7.31,-0.12 -9.56,-0.18 -4.16,-0.13 -2.57,-2.57 -4.13,-5.97l0 0z"/>
   <path class="fil3" d="M1001.69 285.52l15.97 25.28c-1.69,1.47 -10.28,2.38 -15.13,7.01 -2.81,2.68 -8.65,12.25 -9.53,13.15l-21.88 -20.91 3.1 -3.93 16.12 10.15 -11.56 -14.5 3.81 -4 14 12.22 -9 -16.06c0.82,-0.63 3.54,-2.97 4.32,-2.97l11.56 13.93c0.91,-4.75 -11.06,-18.78 -1.78,-19.37l0 0zm-6.03 71.38c5.94,-2.87 33.16,6.16 32.13,10.25 -0.66,2.63 -14.16,-0.19 -17.6,-2.56 -2.16,-1.5 -4.16,-3.28 -6.41,-4.72 -2.46,-1.53 -6.9,-1.84 -8.12,-2.97l0 0zm30.28 -10.78l17.35 11.34 -0.47 0.69c-0.91,2.78 -7.63,10.53 -11.13,3.41 -3.25,-6.53 -3.53,-9.88 -5.75,-15.44zm-18.28 -5.78l12.13 3.22 4.75 15.19c-12.19,-5.91 -16.88,-3.35 -16.88,-18.41zm-10.03 -0.28l5.12 -0.07 1.82 12.1c-4.54,0.09 -5.47,0.5 -5.91,-3.44 -0.25,-2.28 -1.19,-6.56 -1.03,-8.59zm4.18 -11.6l0.5 6.6 -3.28 0.06 2.78 -6.66zm40.95 -9.22c0.47,0.69 0.5,6.16 1.4,8.63 0.94,2.5 2.41,4.56 3.22,7.19 0.94,3 1.94,16.69 -1.18,17.4 -4.22,1 -7.63,-29.34 -3.44,-33.22l0 0zm-23.69 18.19l-11.63 -2 -0.13 -12.06c0.79,0 10.91,1.69 11.29,1.87 2,1.13 0.78,9.72 0.47,12.19l0 0zm4.81 -10.09l11.84 4.37 2.26 15.44c-1.29,-0.06 -9.13,-5.06 -10.88,-6.03 -6.72,-3.78 -0.84,-9.22 -3.22,-13.78zm12.94 -6.04l-0.69 5.41c-2.62,-0.5 -11.66,-3.9 -11.16,-6.56 0.72,-3.85 2.1,-2.85 5.44,-1.85 1.94,0.57 5,1.57 6.41,3zm-23.22 -2.18l6.84 -1.88c0.41,4.88 -4.75,3.22 -6.84,1.88z"/>
   <path class="fil3" d="M883.76 323.65c9.94,2.72 4.1,23.31 0.97,30.16 -20.75,44.97 -119.79,73.53 -165.61,85.63 -6.87,1.84 -28.53,8.53 -33.87,8.78 -8.5,0.38 4,-4.5 5.34,-4.87 5.63,-1.5 10.94,-2.69 16.63,-4.35 32.22,-9.31 62.81,-18.59 93.91,-31.66 33.54,-14.09 88.32,-39.75 82.63,-83.69l0 0z"/>
   <path class="fil3" d="M794.95 595.61c5.88,-3.59 17.35,-3.88 19.38,4.22 2.78,11.16 -8.19,14.06 -9.94,18.13l11.41 0.59 0.22 5.34 -21.16 0c-0.13,-7.78 1,-5.84 6.34,-11.18 3.6,-3.6 7.35,-5.75 6.54,-11.22 -2.32,-2.72 -4.41,-2.54 -7.72,-1.66 -4.69,1.25 -3.85,-0.63 -5.07,-4.22z"/>
   <path class="fil3" d="M703.91 600.89c-3.18,-0.87 -10.15,-3.22 -12.12,0.47 -0.19,6.56 18.47,3.13 15.41,16.28 -2.5,10.72 -16.48,6.25 -22.63,4.41l2.34 -5.84c3.38,2.06 10.78,3.96 13.91,0.06 -1.03,-4 -7.56,-3.97 -11.25,-6 -4.41,-2.47 -6.19,-7.5 -3.75,-12.16 2.4,-4.56 7.94,-5.34 12.62,-4.84 5.13,0.53 11,1.87 5.47,7.62l0 0z"/>
   <path class="fil3" d="M856.18 598.48c4.12,-2.65 7.44,-5.31 12.56,-4.75l0.13 30.16 -6.35 0 0 -21.56 -3.94 0.84 -2.4 -4.69 0 0z"/>
   <path class="fil3" d="M729.79 600.48l-0.09 23.41 -6.75 0 -0.03 -23.41 -9.03 -0.09 0 -6.75 24.56 0.03c2.84,9 -3.13,6.38 -8.66,6.81l0 0z"/>
   <polygon class="fil3" points="662.01,606.02 674.48,606.3 674.57,612.05 662.22,612.2 661.91,617.45 677.19,617.58 677.29,623.89 655.16,623.89 655.16,593.64 676.85,593.64 676.82,600.3 662.03,600.42 662,606.02 "/>
   <path class="fil3" d="M896.46 607.64c13.72,14.53 -11.12,23.66 -16.91,11.44 -2.93,-6.25 0.82,-7.97 3.29,-11.41 -1.88,-3.43 -4.29,-4.4 -1.82,-9.53 3.03,-6.34 13.47,-6.78 17.07,-0.31 2.97,5.28 0.12,6.44 -1.63,9.81l0 0zm-10.44 -4.97c1.13,4.22 7.41,3.28 7.22,-0.87 -0.18,-3.63 -7.12,-4.44 -7.22,0.87zm1.82 9.03c-1.1,0.35 -1.6,-0.15 -2.6,1.51 -0.78,1.24 -0.81,2.15 -0.15,3.46 2.18,4.38 11.47,2 9.06,-3.12 -1.16,-2.41 -3.94,-2.6 -6.31,-1.85z"/>
   <path class="fil3" d="M746.57 623.74l-0.12 -29.82c4.22,-1.19 14.19,-0.34 17.91,1.66 12.03,6.47 11.69,33.44 -17.79,28.16zm7.07 -6.22c7.22,0.31 10.84,-0.78 10.87,-8.53 0.07,-8 -3.56,-8.79 -10.84,-8.54l-0.03 17.07 0 0z"/>
   <path class="fil3" d="M849.43 611.24c-3.94,22.44 -28.26,14.4 -25.6,-4.79 2.97,-21.19 29.1,-15.12 25.6,4.79zm-13.1 -11.72c-9.31,2.53 -6.34,20.15 1.22,18.87 6.88,-1.15 6.75,-15.44 1.47,-18.47 -1.5,-0.84 -1.84,-0.65 -2.69,-0.4l0 0z"/>
  </g>
 </g>
</svg>
