<?xml version="1.0" encoding="utf-8"?>
<!-- Generator: Adobe Illustrator 21.0.0, SVG Export Plug-In . SVG Version: 6.00 Build 0)  -->
<svg version="1.1" id="Layer_1" xmlns="http://www.w3.org/2000/svg" xmlns:xlink="http://www.w3.org/1999/xlink" x="0px" y="0px"
	 viewBox="0 0 713.1 718.9" style="enable-background:new 0 0 713.1 718.9;" xml:space="preserve">
<style type="text/css">
	.st0{fill:#FFFFFF;}
	.st1{fill:#E49B0E;}
</style>
<path class="st0" d="M505.6,29.5c25.7,11.7,44.6,33.4,66,49.9c21.4,16.5,48,27.7,64.8,48c16.8,20.4,22.8,48,34.6,71.4
	c11.8,23.3,28.7,45,35.2,70.3c6.5,25.3,5.7,52.3,6.5,78.8c0.8,26.4,1.1,53.4-4.1,79.9c-5.2,26.5-19.7,50.5-31.3,76.2
	c-11.7,25.7-16.7,55-33.2,76.4c-16.5,21.4-43.8,32.2-64.2,49c-20.4,16.8-38.3,36.5-61.7,48.3c-23.4,11.8-49.5,15.7-74.8,22.1
	c-25.3,6.5-50.1,18.3-76.5,19.1c-26.4,0.8-52.4-8.9-78.9-14.1c-26.5-5.2-54.1-8.6-79.7-20.2c-25.7-11.7-46.9-29.4-68.4-45.9
	c-21.4-16.5-46.2-29.6-63-49.9c-16.8-20.4-22.7-48-34.5-71.4C30.6,493.9,14.6,472.4,8.1,447c-6.5-25.3-6.1-52-6.9-78.4
	c-0.8-26.4-3.1-53.5,2.1-80c5.2-26.5,18.5-51.2,30.2-76.9s22.3-51.3,38.8-72.7c16.5-21.4,36.9-38.9,57.3-55.7
	c20.4-16.8,41.7-32.2,65.1-44c23.3-11.8,49.2-16.1,74.5-22.6c25.4-6.5,50.2-15.8,76.7-16.6c26.4-0.8,52.5,5,79.1,10.2
	C451.5,15.6,479.9,17.8,505.6,29.5L505.6,29.5L505.6,29.5z"/>
<path d="M682.6,356v3.4c-0.3,6.4-2.6,13.7-7.6,22.4c-1.7,3-18.5,31.1-18.7,31.2c-0.1,0-11.3-22.7-13.1-25.6
	c-6.5-10.8-11.2-12.7-13.2-25.4c-5.1,3-8.4,7.6-12.2,9c-1.9,0.7,5.5,2,9.1,5.4c9.7,9.1,8.7,10.2,14.9,20.9
	c9.6,16.3,13,35.2,16.4,53.6c11.4,60.7-35.5,45.9-51.9,83.1c-7.1,16.2-4.7,38-17.1,52.8c-11.7,13.9-36,18-51.8,10.1
	c-8.3-4.2-14.4-10.4-11.4,1.9c3.2,13.3-0.4,13.2-9,20.8c-10.9,9.6-16.7,29.7-31.7,38.3c-16.6,9.5-41.6-1.4-60.1-1.6
	c-19.8-0.3-31.6,12.6-47.8,21.7c-6.7,3.8-12.7,5.6-18.1,6.1h-5c-25.6-2-40.6-34.3-80.5-26.2c-19.7,4-38.7,9.6-54.2-7.3
	c-10.9-11.9-18-29.4-31.2-38.7c-14.6-10.3-36.6-8.8-53.1-16.8c-8.5-4.1-13.2-9.9-16.6-18.6c-1.9-4.9-7.1-23.7-6.7-28.1l18-3.1
	c-12.3-9.4-25.3-20.5-38-29.8c-6.4-4.7-36.9-23.7-35.6-31.6c4.7-3.5,79-4.4,91.1-5.6c30.2-3.1,61.1,0.7,91.1,3.7l0,15.8l-48.4,17.9
	l7.7,49.4l115.6-0.3c2.4-2.1,1-7.3,6.6-8c4.5-0.6,9.7,0.4,14.2,0.3c11.8-0.2,6.1-11.8,4.1-18.8c-2.3-8.1-16.2-39.1-16.3-41.7
	l15.8,2.2c0.1,0.1,5,20.7,6.6,24.7c2.9,7.5,5.8,14.3,9.5,21.4c5.5,10.6,3.3,14.1,17.8,13c4.4-0.3,10.2-1.6,14.3-1.3
	c6.2,0.4,4.8,5.6,7.3,8l17.4,0.1c5.4-4.8-2.4-6.9,12.5-6.7c6.9,0.1,10.1-3.6,6.7-10.2c-4.6-8.7-9.9-15.4-16.2-22.8
	c-5.5-6.4-13.1-14-19.2-20.1c-3.1-3.1-6.7-7.1-8.4-11.1c-1.2-3-3.4-12.7-6.8-12.6l0.2,16.2c-8.8,4.3-70.4-5.9-83.3-8.7
	c-26.6-5.8-50.3-12.1-77.6-15.3c-29.5-3.5-59.8-2-89.5-0.6c-14.8,0.7-29.5,0.9-44.3,2.3c-9.3,0.9-32.9,5.8-36.3-6.1
	c5.4-2.6,33.9-3.3,34.3-7.1l-0.1-1.2l-30.3,1.5c3.7-11.4,56.6-13.6,67.8-14.4c23.2-1.7,47.6-5.3,70.1-11.7
	c20.3-5.7,38.8-14.3,56.9-24.9c8.3-4.9,44.8-27.2,48.2-33.6l-0.6-1l-67.4,39.9l-0.6-1c14.1-19.2,38-38.3,56.5-53.8
	c20-16.8,40-33.6,59.8-50.6c19.1-16.4,40.9-34.2,56.7-53.6c18.2-22.4,37.6-44.3,69.8-36.4c6.7,1.7,14.2,4.5,20.7,7.1
	c4.7,1.9,16.9,5.7,10.9,12.6c-4.5,5.1-15.5,8.5-1.7,11.7c8.6,2,1.8,12.1-0.5,17.5c-8.6,19.6-12.1,21-8.6,43.8
	c7.7,50.7,9.6,87.2-25.8,129.9c-8.4,10.1-17.2,19.2-27.4,27.6c-5.1,4.2-10.3,8.1-15.9,11.5c-5.7,3.6-12.6,5.7-17.3,10.2
	c1.9,7.6,28,35.9,34.6,44c4.7,5.8,11.4,20,19,20.2c5.6,0.1,12.8-0.7,18.5-1.1c9.3-0.7,8.3-1.4,13.2,5c3.7-1.5-0.6-7.4,1.1-11.5
	c1-2.4,8.6-5.1,11.2-6.7c22.4-14.4,39.7-34.3,48.8-59.7c13.7-38.2,5.9-80.9-18.8-112.7c-5.3-6.8-11.2-12.8-17.7-18.5
	c-11.4-10-12.4-3.9-14.7-21.3c-2.7-20.1-2.2-11.2,6.4-26.5c4.8-8.5,8.2-16.1,10.6-25.6c2.6-10.3,0-22.7,9.7-26.5
	c8.5-3.4,16.6-7.8,25.2-11c12.9-4.7,8-14.3-3.2-17.6c-11.7-3.3-28.9,0.4-32.7-0.7c-2.7-3.6-7.7-16.8-11.5-22.9
	c-18.3-29.1-53.7-47.7-87.8-48.6c-5.7-0.2-11-0.4-16.7-0.4c-7.5,0.1-8-1.6-12.4,4.7c-13.7,19-3.2,31.1,5.8,48.9
	c-2.8-0.1-17.2-8.1-20.6-10c-3.2-1.7-16-13.1-16.8-13.2c-6.5,5-6.8,23.4-4.2,30.8c1.8,5.2,8.3,25.1,9.9,28.5l-16.5-5.1
	c-2.1,11.2-5,12.6-5,26.8c0,4.7,0.4,28.4-1.2,30.7l-14.8-16.2c-10.9,9.1-15.2,14.9-28.9,21.7c-11.9,5.9-24.6,9.1-36.9,13.6
	c2-7.3,36.3-39.2,39.3-51.3l-22.3-8.5c5.9-6.6,23.7-6.3,27-21.1c1.5-6.7,1.9-14.5,2.7-21.3c0.9-7.7,2.9-13.2,4.1-20
	c-10.5,3.8-22.4,7.8-33.5,8.9c-4.5,0.5-36-0.7-37.3-4.4c1.3-2.3,66.5-29.2,66.1-39.2c-6.5-6.4-41.1-4.3-51-4.3
	c-18.5,0-36.9,0-55.6,0l-7.4,49.5l48.7,18.7l0,155.9c0,27-0.7,16.7-15.8,36c-10.6,13.6-17.3,14-33.4,18.8
	c-14.3,4.2-28.3,6.8-43.1,8.8c-28.3,3.9-64.3,2.8-90.8,12.9c4.8-28.2,8-51.3,26.4-73.7c11.5-13.9,15.1-2.6,25.4-6.9
	c-0.1-0.5-10-9-11.5-10.8c-3.4-4.2-6.6-13.9-7.6-15c-2.1,2.3-2,15.9-3.9,20c-1.5,3.2-8,10.2-10.5,13.5c-3.3,4.5-6.5,9.9-9.1,14.9
	c-0.8,1.5-7.3,16.7-7.4,16.7l-0.1,0.1c-6.5-10.2-20-29.6-23.8-40c-6.8-18.6,2.4-31.3,12.2-46c11.8-17.8,16-26.2,12.1-48.4
	c-3.1-17.7-9.6-35.3,3.3-51c4.3-5.2,30.2-26.1,35.9-25.3c4.6,0.6,15.7,11.3,16.6,7.5c0.8-3.5-4.9-17.5-4.3-25.7
	c0.9-11.4,7.4-40.2,13.8-49.6c10-14.5,28.6-15.4,44.3-19c44.1-10,39.2-50.4,69.3-57.5c17.5-4.1,37.1,5.9,55.9,4.6
	c17-1.2,28.5-12.5,42.5-20.8c40.2-23.9,54.6,21.7,91.4,21.1c18.2-0.3,36.7-10.3,54.8-3.2c13.9,5.4,23.2,20.8,30.2,33.2
	c-30.6-16-42.3-25.1-79.1-16.8c-13.5,3-25.8,7.6-38.9,11.9c-6.2,2-14.1,5.1-20.7,3.8c-5-1-14.4-8.2-17.1-8.2l4.4,12.4
	c-13.5,4.2-34.8-3.9-48.3-3.8c9.5,10,50.1,18.4,64.2,20.1c13.1,1.5,26.7,2.2,39.9,1.5c14.8-0.7,23.4-4.7,35.9-6.2l5.8,24.3
	c6.3-4,8.7-23.2,27.7-29.8c14.7-5.1,31.6,4.3,45.6,8.7c36.2,11.4,57.6,3,68.7,46.1c4.2,16,3.6,29.2,16.2,41.1
	c10.1,9.5,22.8,15.7,32.7,24.7c11.5,10.5,18.3,25.1,4.1,36.8c-1.9,1.6-16.7,10.5-16.8,10.9c-0.4,2.4,16.1-3,21.6,0.8
	c0.1,16.8-7,24.5,3,42.6C670.2,329.7,681.7,340.9,682.6,356L682.6,356L682.6,356z"/>
<g>
	<path class="st1" d="M604,570.4l18.3-22.1l13.8,22.8c1.6-11.4-0.6-25.1,0.8-37.6c1.5-14,8-18.1,10.8-28.2
		c-5.3,1.7-26.8,18.6-31.1,23.2C611,534.8,603.9,562.3,604,570.4L604,570.4z"/>
	<path class="st1" d="M647.5,211.4c-1.9-7.4-9.2-18.5-11.8-26.8c-2-6.4-4-30.7-5.6-33.4c-1.1,2-8.5,15.1-9.3,15.6l-16.2-20.5
		l-0.9,0.7c3,12.5,5,31,12.9,41.1C619.7,192.2,642.8,209.9,647.5,211.4L647.5,211.4z"/>
	<path class="st1" d="M164.7,622.1l-22.2,6.8c1.2,1.2,30.9,4.2,37.5,6.4c6.7,2.2,27.2,13.4,29.7,13.8c-1.7-5.5-18.5-26.8-23.2-31
		c-7-6.1-31.9-11.5-41.5-12.8L164.7,622.1L164.7,622.1z"/>
	<path class="st1" d="M33.6,313.2l-1.7,20c3,0.3,18.7-28.7,19.7-31.8c2.5-7.9,1.6-14.8,0.2-22.7c-0.6-3.6-2.5-19.9-4.2-21.6
		c-2.6,2.7-9.8,32.7-15.7,41.7C28,304.5,23.4,309,18,313.4C8.8,321,30.5,312.1,33.6,313.2L33.6,313.2z"/>
	<path class="st1" d="M255.8,49.4c4.3,3.2,37.6,6.3,44.4,3.7c3.8-1.5,31.7-16.2,31.3-19.8l-32.1,4c-2.9-8.5,12.7-23.3-13.7-1.9
		C279.9,40,256.2,48.6,255.8,49.4L255.8,49.4L255.8,49.4z"/>
	<path class="st1" d="M47.5,460c3.9-5,6.2-35.8,4.7-42.3c-1.9-8.3-12.4-24.1-17.5-31.6c-3.9-5.9-2.8-0.2-2.5,3.5
		c0.3,3.6,0.7,7.2,1.3,10.9C35.1,410.8,42.9,456.1,47.5,460L47.5,460z"/>
	<path class="st1" d="M458.4,667.7c-4.8-3.2-35.7-6.2-42.2-4.6c-7.8,2-24.2,12.8-31.5,17.5c-8.3,5.4,11.5,1.6,14.4,1.2
		C408.6,680.5,456.2,672.2,458.4,667.7L458.4,667.7L458.4,667.7z"/>
	<path class="st1" d="M681.9,383.6c-3.6,1.3-16.6,25.3-18.8,29.9c-5.2,10.7-0.3,30.7,2,42.2c1.2,6.4,1.4,5.5,3.5,0.1
		C673.6,442.8,682.3,393.8,681.9,383.6L681.9,383.6z"/>
	<path class="st1" d="M458.5,48.9c-4.5-5.1-48.7-11.9-59.4-13.6c-3.6-0.6-7.2-1-10.8-1.3c-4.5-0.4-9.1-1.7-3.2,2.6
		c5.6,4.1,25.3,15.9,31.4,17.3C422,55.2,455.3,52.6,458.5,48.9L458.5,48.9L458.5,48.9z"/>
	<path class="st1" d="M681.4,333.4c2.7-3.6-10.6-72.9-15-76.3c-1.7,1.6-3.8,18.1-4.3,21.5c-1.2,8.5-2.4,14.3,0.2,22.8
		C663.4,305.3,679.1,332.4,681.4,333.4z"/>
	<path class="st1" d="M504.1,649c7.8-1.4,63.3-37.6,65.1-43.8c-11.1,2.1-33.3,5.7-41.6,12.6C522.9,621.7,505.9,643.7,504.1,649
		L504.1,649z"/>
	<path class="st1" d="M110.2,570.8c-0.9-10.1-6.7-33.7-12.8-41.8c-4.5-6.1-24-19.9-31-23.6C67.4,513.2,103.8,568.1,110.2,570.8z"/>
	<path class="st1" d="M66.4,211.4c5.3-1.7,27.4-18.6,31.2-23.4c5.4-6.9,12.4-33.4,12.6-42C101.9,152.4,68.6,201.5,66.4,211.4
		L66.4,211.4z"/>
	<path class="st1" d="M255.5,668c3.1,5.5,67.3,15.2,76.4,15.5c-1.2-3.3-27.3-18-31.8-19.7C293.6,661.5,260.3,663.7,255.5,668
		L255.5,668L255.5,668z"/>
	<path class="st1" d="M569.2,111.9c-2.8-6.7-57.6-43.2-65.1-43.8c3.1,6.4,18,26.8,23.3,31C537.5,106.9,556.8,108.8,569.2,111.9z"/>
	<path class="st1" d="M144.7,111.9c11.6-2.9,32.5-5.2,41.6-12.7c4.5-3.7,22-26.1,23.5-31.2C201.5,69.6,147.6,105,144.7,111.9z"/>
	<path class="st1" d="M499.8,248.6c0.6,1.4,4.2,3.3,5.7,4.2c3.2,2.2,3.1,1.6,6.6-0.1c9.4-4.5,18.6-9.6,27.8-13.3
		c2.1-0.9,14.2-4.3,12.5-7c-3.7-6.1-28.7-4-35-2.9c-5,0.9-14.4,1-11.2,6.6C509.4,241.8,500.2,244.8,499.8,248.6L499.8,248.6
		L499.8,248.6z"/>
	<path class="st1" d="M164.1,288.3c0,0,0.1-0.2,0.1-0.1s0.1,0,0.1,0S163.7,287.8,164.1,288.3z"/>
</g>
<path class="st0" d="M261.7,192.3c0-0.1,52.2-25.8,54.9-40l-14.6-4.9c5.4-3.2,6.4-1,20.2-10.8c6.2-4.4,11.6-8.8,18.5-12.5
	c4.9-2.6,16-9.1,21-9.9c6.7-1.1,21.2,2.5,28.7,2.3c-4.8,4.9-17.1,7.3-28.5,23c-8,11.1-13.1,18.7-24.4,27.1
	C322.3,177.8,279.8,196.7,261.7,192.3L261.7,192.3z M338.7,227c-0.9,1.1-4.9,17.9-5.9,21c-2.2,6.9,0.2,22.7-1.3,25.3
	c-3.6,1.6-5-11.5-11.1-4.2c-11.8,14-22.4,21.4-40.3,27.9c0.7-2.8,13.2-16.6,16-20.2c5.7-7.6,9.2-16.1,13.7-22.9l-17.1-1.1
	c0.2-4.5,10.3-3.1,14.9-14.9c8.2-21.2-2.6-52.6,26.2-62.2c-2.5,10.2-8.9,21-7.6,32.3c4.4-4.2,10.2-34,24.7-46.2
	c4.7,12.9-9,22.6-9.4,37.6c-0.2,7.4,1.6,13.8,4,20.7C351.5,237,344.3,224.6,338.7,227L338.7,227L338.7,227z M412,141.8
	c-17.6-5.8-10.5-16.4-29.3,7.6c-18.5,23.6-5.7,35.1-7.2,38.7c-4.9,1.3-17.1-13.5-18.4-19.3c-2.4-10.3,3-20.5,9.7-28
	c6-6.6,13.7-12.6,21.3-17.3c7.1-4.5,23.7-10.6,30.8-6.4C409.1,129.9,412,124.3,412,141.8L412,141.8z"/>
<path class="st0" d="M470.8,245.5c-2.9,14.4-24.5,10.3-23.2-1.6C449.3,228.9,472.7,235.9,470.8,245.5z M457.9,238.9
	c-10.8,2.7-6.2,13.5,1.8,12.3C470.3,249.5,465.9,236.8,457.9,238.9z"/>
<path class="st0" d="M164.2,287.6l14.1-13.4l3.7,3.1l-11,15.7l15.8-11.1l3.4,3.9l-12.8,13.9l16.5-8.6l3.1,4.5l-15,11.7l18.1-6.1
	l1.9,4.6l-17.2,10l19-3.8l1.3,4.7l-31,12.4c-1.6-2-2.6-19.6-16.5-29.2c-1.9-1.3-8.9-4.4-9.6-5.9l21.1-25.7
	C178.7,268.5,165.3,283,164.2,287.6L164.2,287.6L164.2,287.6z M109.6,363.4c5.4-3.7,18-5.2,24.3-4.1c3.3,0.6,20.1,5.2,20.6,8.5
	c-2.2,0.7-8.7,0.1-12.6,0.8c-3.6,0.7-8.2,1.8-11.8,1.8C125,370.4,112.9,367.5,109.6,363.4L109.6,363.4z M157,349.6l8.6,5.3
	c-0.4,0.4-11,6-11.6,6C150.5,361.1,156,350.9,157,349.6L157,349.6z M136.1,354.3l5-10.8c8.6,1.3,12.6,1.8,9.2,9.8
	c-1.9,4.3-1.3,5.1-5.7,3.7C142.7,356.4,137.4,355.1,136.1,354.3z M98.2,350.9L117,343c0.8,2.2-6.9,11.1-8.5,13.1
	c-2,2.4-3.2,4.8-5.9,1.4C101.5,356.1,98.8,352.5,98.2,350.9L98.2,350.9z M115.6,355.6l8.1-13.5l12.5,0.2c-0.6,2.3-4.2,10.5-5.9,11.2
	C129.7,353.9,116.9,355.6,115.6,355.6z M158.6,344.6l2.8-11.8c5.9,0.9,5.1,4.8,4.1,9.3C164.3,347.8,163.7,349,158.6,344.6z
	 M142.7,338.7l2.4-11.3c1.7-0.3,7.1,1.4,8.9,2.1c4,1.5,2.6,4.1,1.6,7.6c-1.4,4.7-0.2,6.3-4.7,4.5
	C148.8,340.7,144.4,339.7,142.7,338.7L142.7,338.7z M162.9,319.3l3.4,10C160.8,329.4,162.2,323.4,162.9,319.3z M125.7,337.2
	l3.1-11.6l11.7,0.6c0,0.7-2.2,11-2.5,11.3C137.1,339.1,128.1,337.6,125.7,337.2L125.7,337.2z M105.1,341.5c0.7-2.8,3.9-8.7,5.2-11.8
	c1.5-3.6,9.4-4.2,13.2-4.2c-0.2,2.7-2.3,11.8-4.5,12.6C117.4,338.7,106.6,341.5,105.1,341.5L105.1,341.5z M104.8,300.4
	c7.1,3.8,0.1,41.9-8.4,44.2c-4.9,1.3-1.2-20.4-0.1-23.7c1.2-3.5,3.2-6.5,4.8-9.8C102.4,308.7,104.2,301.2,104.8,300.4L104.8,300.4z
	 M129.1,308.8l11.8,0.5l0.5,12.1C126.6,321.3,129.1,321.9,129.1,308.8z M112,322.4l0.5-12.1l11.7-1.7
	C124.2,321.3,128.2,321,112,322.4L112,322.4z M157.8,325.5l-11.9-3.2l0.3-11.7c1.3,0.2,10.1,2.1,10.9,2.5
	C159.2,314,158.3,323,157.8,325.5L157.8,325.5z M120.2,293.9c4.7,10.1,4.6,10.6-5.8,11.1c-6.7,0.3-2.1-3.1,0.1-4.8
	C118,297.4,117.8,296.2,120.2,293.9L120.2,293.9z M154.5,307.1l-9-2l-0.6-4.2L154.5,307.1z M127,298l12.1,0.4l1.6,5.7
	c-1.9,0.2-7.3-0.1-9.6-0.2C127,303.9,128.6,301.4,127,298L127,298z"/>
<path class="st0" d="M581.7,284.6l16,25.3c-1.7,1.5-10.3,2.4-15.1,7c-2.8,2.7-8.6,12.2-9.5,13.1l-21.9-20.9l3.1-3.9l16.1,10.1
	l-11.6-14.5l3.8-4l14,12.2l-9-16.1c0.8-0.6,3.5-3,4.3-3l11.6,13.9C584.4,299.2,572.4,285.2,581.7,284.6L581.7,284.6L581.7,284.6z
	 M575.7,356c5.9-2.9,33.2,6.2,32.1,10.2c-0.7,2.6-14.2-0.2-17.6-2.6c-2.2-1.5-4.2-3.3-6.4-4.7C581.4,357.4,576.9,357.1,575.7,356
	L575.7,356z M606,345.2l17.3,11.3l-0.5,0.7c-0.9,2.8-7.6,10.5-11.1,3.4C608.5,354.1,608.2,350.8,606,345.2z M587.7,339.4l12.1,3.2
	l4.7,15.2C592.4,351.9,587.7,354.5,587.7,339.4z M577.7,339.1l5.1-0.1l1.8,12.1c-4.5,0.1-5.5,0.5-5.9-3.4
	C578.4,345.5,577.5,341.2,577.7,339.1z M581.8,327.5l0.5,6.6l-3.3,0.1L581.8,327.5z M622.8,318.3c0.5,0.7,0.5,6.2,1.4,8.6
	c0.9,2.5,2.4,4.6,3.2,7.2c0.9,3,1.9,16.7-1.2,17.4C622,352.5,618.6,322.2,622.8,318.3L622.8,318.3z M599.1,336.5l-11.6-2l-0.1-12.1
	c0.8,0,10.9,1.7,11.3,1.9C600.6,325.5,599.4,334,599.1,336.5L599.1,336.5L599.1,336.5z M603.9,326.4l11.8,4.4l2.3,15.4
	c-1.3-0.1-9.1-5.1-10.9-6C600.4,336.4,606.3,331,603.9,326.4z M616.9,320.4l-0.7,5.4c-2.6-0.5-11.7-3.9-11.2-6.6
	c0.7-3.8,2.1-2.8,5.4-1.8C612.4,318,615.4,319,616.9,320.4z M593.6,318.2l6.8-1.9C600.9,321.2,595.7,319.5,593.6,318.2z"/>
<path class="st0" d="M463.8,322.7c9.9,2.7,4.1,23.3,1,30.2c-20.7,45-119.8,73.5-165.6,85.6c-6.9,1.8-28.5,8.5-33.9,8.8
	c-8.5,0.4,4-4.5,5.3-4.9c5.6-1.5,10.9-2.7,16.6-4.3c32.2-9.3,62.8-18.6,93.9-31.7C414.7,392.3,469.5,366.7,463.8,322.7L463.8,322.7z
	"/>
<path class="st0" d="M375,594.7c5.9-3.6,17.3-3.9,19.4,4.2c2.8,11.2-8.2,14.1-9.9,18.1l11.4,0.6l0.2,5.3h-21.2
	c-0.1-7.8,1-5.8,6.3-11.2c3.6-3.6,7.3-5.7,6.5-11.2c-2.3-2.7-4.4-2.5-7.7-1.7C375.4,600.1,376.2,598.3,375,594.7L375,594.7z"/>
<path class="st0" d="M284,600c-3.2-0.9-10.1-3.2-12.1,0.5c-0.2,6.6,18.5,3.1,15.4,16.3c-2.5,10.7-16.5,6.2-22.6,4.4l2.3-5.8
	c3.4,2.1,10.8,4,13.9,0.1c-1-4-7.6-4-11.2-6c-4.4-2.5-6.2-7.5-3.7-12.2c2.4-4.6,7.9-5.3,12.6-4.8C283.6,592.9,289.5,594.2,284,600
	L284,600L284,600z"/>
<path class="st0" d="M436.2,597.5c4.1-2.6,7.4-5.3,12.6-4.7l0.1,30.2h-6.3v-21.6l-3.9,0.8L436.2,597.5L436.2,597.5z"/>
<path class="st0" d="M309.8,599.5l-0.1,23.4H303l0-23.4l-9-0.1v-6.7l24.6,0C321.3,601.7,315.4,599.1,309.8,599.5L309.8,599.5
	L309.8,599.5z"/>
<polygon class="st0" points="242.1,605.1 254.5,605.4 254.6,611.1 242.3,611.3 242,616.5 257.2,616.6 257.3,623 235.2,623 
	235.2,592.7 256.9,592.7 256.9,599.4 242.1,599.5 242.1,605.1 "/>
<path class="st0" d="M476.5,606.7c13.7,14.5-11.1,23.7-16.9,11.4c-2.9-6.2,0.8-8,3.3-11.4c-1.9-3.4-4.3-4.4-1.8-9.5
	c3-6.3,13.5-6.8,17.1-0.3C481.1,602.2,478.3,603.3,476.5,606.7L476.5,606.7z M466.1,601.7c1.1,4.2,7.4,3.3,7.2-0.9
	C473.1,597.2,466.2,596.4,466.1,601.7z M467.9,610.8c-1.1,0.3-1.6-0.1-2.6,1.5c-0.8,1.2-0.8,2.1-0.2,3.5c2.2,4.4,11.5,2,9.1-3.1
	C473,610.2,470.3,610,467.9,610.8L467.9,610.8z"/>
<path class="st0" d="M326.6,622.8l-0.1-29.8c4.2-1.2,14.2-0.3,17.9,1.7C356.4,601.1,356.1,628.1,326.6,622.8L326.6,622.8z
	 M333.7,616.6c7.2,0.3,10.8-0.8,10.9-8.5c0.1-8-3.6-8.8-10.8-8.5L333.7,616.6L333.7,616.6L333.7,616.6z"/>
<path class="st0" d="M429.5,610.3c-3.9,22.4-28.3,14.4-25.6-4.8C406.8,584.3,433,590.4,429.5,610.3z M416.4,598.6
	c-9.3,2.5-6.3,20.1,1.2,18.9c6.9-1.1,6.7-15.4,1.5-18.5C417.6,598.1,417.2,598.3,416.4,598.6L416.4,598.6L416.4,598.6z"/>
</svg>
